<?xml version="1.0" encoding="utf-8" standalone="no"?>
<!DOCTYPE svg PUBLIC "-//W3C//DTD SVG 1.1//EN"
  "http://www.w3.org/Graphics/SVG/1.1/DTD/svg11.dtd">
<svg xmlns:xlink="http://www.w3.org/1999/xlink" width="568.37125pt" height="352.65125pt" viewBox="0 0 568.37125 352.65125" xmlns="http://www.w3.org/2000/svg" version="1.1">
 <metadata>
  <rdf:RDF xmlns:dc="http://purl.org/dc/elements/1.1/" xmlns:cc="http://creativecommons.org/ns#" xmlns:rdf="http://www.w3.org/1999/02/22-rdf-syntax-ns#">
   <cc:Work>
    <dc:type rdf:resource="http://purl.org/dc/dcmitype/StillImage"/>
    <dc:date>2025-05-25T15:29:03.053511</dc:date>
    <dc:format>image/svg+xml</dc:format>
    <dc:creator>
     <cc:Agent>
      <dc:title>Matplotlib v3.8.4, https://matplotlib.org/</dc:title>
     </cc:Agent>
    </dc:creator>
   </cc:Work>
  </rdf:RDF>
 </metadata>
 <defs>
  <style type="text/css">*{stroke-linejoin: round; stroke-linecap: butt}</style>
 </defs>
 <g id="figure_1">
  <g id="patch_1">
   <path d="M 0 352.65125 
L 568.37125 352.65125 
L 568.37125 0 
L 0 0 
z
" style="fill: #ffffff"/>
  </g>
  <g id="axes_1">
   <g id="patch_2">
    <path d="M 43.78125 314.816875 
L 561.17125 314.816875 
L 561.17125 22.318125 
L 43.78125 22.318125 
z
" style="fill: #ffffff"/>
   </g>
   <g id="PolyCollection_1">
    <defs>
     <path id="m70754e23ba" d="M 67.298977 -51.129773 
L 67.298977 -51.474122 
L 68.241572 -51.49946 
L 69.184166 -51.526451 
L 70.12676 -51.555187 
L 71.069354 -51.585764 
L 72.011949 -51.61828 
L 72.954543 -51.652838 
L 73.897137 -51.689546 
L 74.839732 -51.728514 
L 75.782326 -51.769858 
L 76.72492 -51.813697 
L 77.667514 -51.860156 
L 78.610109 -51.90936 
L 79.552703 -51.961444 
L 80.495297 -52.016543 
L 81.437891 -52.074799 
L 82.380486 -52.136356 
L 83.32308 -52.201363 
L 84.265674 -52.269975 
L 85.208269 -52.342348 
L 86.150863 -52.418646 
L 87.093457 -52.499033 
L 88.036051 -52.583681 
L 88.978646 -52.672762 
L 89.92124 -52.766455 
L 90.863834 -52.86494 
L 91.806429 -52.968404 
L 92.749023 -53.077033 
L 93.691617 -53.19102 
L 94.634211 -53.310559 
L 95.576806 -53.435847 
L 96.5194 -53.567084 
L 97.461994 -53.704472 
L 98.404588 -53.848214 
L 99.347183 -53.998518 
L 100.289777 -54.155589 
L 101.232371 -54.319637 
L 102.174966 -54.490871 
L 103.11756 -54.669499 
L 104.060154 -54.855733 
L 105.002748 -55.049781 
L 105.945343 -55.251852 
L 106.887937 -55.462153 
L 107.830531 -55.680889 
L 108.773126 -55.908265 
L 109.71572 -56.144481 
L 110.658314 -56.389734 
L 111.600908 -56.64422 
L 112.543503 -56.908128 
L 113.486097 -57.181643 
L 114.428691 -57.464946 
L 115.371286 -57.75821 
L 116.31388 -58.061603 
L 117.256474 -58.375287 
L 118.199068 -58.699414 
L 119.141663 -59.034129 
L 120.084257 -59.379568 
L 121.026851 -59.735859 
L 121.969445 -60.103118 
L 122.91204 -60.481451 
L 123.854634 -60.870953 
L 124.797228 -61.271707 
L 125.739823 -61.683784 
L 126.682417 -62.107241 
L 127.625011 -62.542123 
L 128.567605 -62.988458 
L 129.5102 -63.446264 
L 130.452794 -63.915538 
L 131.395388 -64.396265 
L 132.337983 -64.888413 
L 133.280577 -65.391933 
L 134.223171 -65.906759 
L 135.165765 -66.432806 
L 136.10836 -66.969972 
L 137.050954 -67.518138 
L 137.993548 -68.077165 
L 138.936143 -68.646893 
L 139.878737 -69.227145 
L 140.821331 -69.817724 
L 141.763925 -70.418414 
L 142.70652 -71.028978 
L 143.649114 -71.649159 
L 144.591708 -72.27868 
L 145.534302 -72.917245 
L 146.476897 -73.564536 
L 147.419491 -74.220218 
L 148.362085 -74.883934 
L 149.30468 -75.555309 
L 150.247274 -76.233946 
L 151.189868 -76.919432 
L 152.132462 -77.611335 
L 153.075057 -78.309202 
L 154.017651 -79.012567 
L 154.960245 -79.720942 
L 155.90284 -80.433825 
L 156.845434 -81.150698 
L 157.788028 -81.871028 
L 158.730622 -82.594265 
L 159.673217 -83.319849 
L 160.615811 -84.047204 
L 161.558405 -84.775744 
L 162.500999 -85.504871 
L 163.443594 -86.233977 
L 164.386188 -86.962446 
L 165.328782 -87.689653 
L 166.271377 -88.414968 
L 167.213971 -89.137755 
L 168.156565 -89.857372 
L 169.099159 -90.573176 
L 170.041754 -91.284522 
L 170.984348 -91.990764 
L 171.926942 -92.691258 
L 172.869537 -93.385361 
L 173.812131 -94.072437 
L 174.754725 -94.751851 
L 175.697319 -95.422977 
L 176.639914 -96.085198 
L 177.582508 -96.737905 
L 178.525102 -97.380501 
L 179.467697 -98.012402 
L 180.410291 -98.633035 
L 181.352885 -99.241848 
L 182.295479 -99.8383 
L 183.238074 -100.421872 
L 184.180668 -100.992065 
L 185.123262 -101.548398 
L 186.065856 -102.090415 
L 187.008451 -102.617684 
L 187.951045 -103.129796 
L 188.893639 -103.62637 
L 189.836234 -104.107052 
L 190.778828 -104.571516 
L 191.721422 -105.019467 
L 192.664016 -105.450639 
L 193.606611 -105.864799 
L 194.549205 -106.261746 
L 195.491799 -106.641312 
L 196.434394 -107.003365 
L 197.376988 -107.347805 
L 198.319582 -107.674569 
L 199.262176 -107.983631 
L 200.204771 -108.274999 
L 201.147365 -108.54872 
L 202.089959 -108.804876 
L 203.032554 -109.043588 
L 203.975148 -109.265014 
L 204.917742 -109.469349 
L 205.860336 -109.656824 
L 206.802931 -109.82771 
L 207.745525 -109.982312 
L 208.688119 -110.120973 
L 209.630713 -110.244071 
L 210.573308 -110.352021 
L 211.515902 -110.445271 
L 212.458496 -110.524304 
L 213.401091 -110.589636 
L 214.343685 -110.641815 
L 215.286279 -110.68142 
L 216.228873 -110.709063 
L 217.171468 -110.72538 
L 218.114062 -110.73104 
L 219.056656 -110.726735 
L 219.999251 -110.713183 
L 220.941845 -110.691126 
L 221.884439 -110.661328 
L 222.827033 -110.624573 
L 223.769628 -110.581663 
L 224.712222 -110.533419 
L 225.654816 -110.480677 
L 226.597411 -110.424284 
L 227.540005 -110.365101 
L 228.482599 -110.303999 
L 229.425193 -110.241855 
L 230.367788 -110.179552 
L 231.310382 -110.117978 
L 232.252976 -110.058023 
L 233.19557 -110.000576 
L 234.138165 -109.946523 
L 235.080759 -109.896749 
L 236.023353 -109.852129 
L 236.965948 -109.813533 
L 237.908542 -109.781819 
L 238.851136 -109.757835 
L 239.79373 -109.742412 
L 240.736325 -109.736369 
L 241.678919 -109.740505 
L 242.621513 -109.7556 
L 243.564108 -109.782414 
L 244.506702 -109.821683 
L 245.449296 -109.87412 
L 246.39189 -109.940411 
L 247.334485 -110.021215 
L 248.277079 -110.117164 
L 249.219673 -110.228858 
L 250.162267 -110.356867 
L 251.104862 -110.501728 
L 252.047456 -110.663946 
L 252.99005 -110.843992 
L 253.932645 -111.0423 
L 254.875239 -111.25927 
L 255.817833 -111.495267 
L 256.760427 -111.750617 
L 257.703022 -112.02561 
L 258.645616 -112.320498 
L 259.58821 -112.635499 
L 260.530805 -112.970788 
L 261.473399 -113.326507 
L 262.415993 -113.702759 
L 263.358587 -114.09961 
L 264.301182 -114.517092 
L 265.243776 -114.955199 
L 266.18637 -115.413889 
L 267.128965 -115.893088 
L 268.071559 -116.392687 
L 269.014153 -116.912546 
L 269.956747 -117.452492 
L 270.899342 -118.012322 
L 271.841936 -118.591806 
L 272.78453 -119.190683 
L 273.727124 -119.808668 
L 274.669719 -120.445452 
L 275.612313 -121.100702 
L 276.554907 -121.774063 
L 277.497502 -122.465163 
L 278.440096 -123.173608 
L 279.38269 -123.898992 
L 280.325284 -124.640893 
L 281.267879 -125.398877 
L 282.210473 -126.1725 
L 283.153067 -126.961309 
L 284.095662 -127.764845 
L 285.038256 -128.582646 
L 285.98085 -129.414245 
L 286.923444 -130.259176 
L 287.866039 -131.116975 
L 288.808633 -131.987181 
L 289.751227 -132.869336 
L 290.693822 -133.762993 
L 291.636416 -134.66771 
L 292.57901 -135.583059 
L 293.521604 -136.508622 
L 294.464199 -137.443994 
L 295.406793 -138.388789 
L 296.349387 -139.342634 
L 297.291981 -140.305176 
L 298.234576 -141.27608 
L 299.17717 -142.255033 
L 300.119764 -143.241742 
L 301.062359 -144.235938 
L 302.004953 -145.237374 
L 302.947547 -146.245827 
L 303.890141 -147.261099 
L 304.832736 -148.283015 
L 305.77533 -149.311429 
L 306.717924 -150.346216 
L 307.660519 -151.38728 
L 308.603113 -152.434549 
L 309.545707 -153.487975 
L 310.488301 -154.547537 
L 311.430896 -155.613238 
L 312.37349 -156.685103 
L 313.316084 -157.763183 
L 314.258678 -158.847549 
L 315.201273 -159.938294 
L 316.143867 -161.035534 
L 317.086461 -162.1394 
L 318.029056 -163.250044 
L 318.97165 -164.367634 
L 319.914244 -165.492353 
L 320.856838 -166.624397 
L 321.799433 -167.763976 
L 322.742027 -168.911309 
L 323.684621 -170.066624 
L 324.627216 -171.230157 
L 325.56981 -172.402148 
L 326.512404 -173.58284 
L 327.454998 -174.772478 
L 328.397593 -175.971306 
L 329.340187 -177.179567 
L 330.282781 -178.397497 
L 331.225376 -179.625327 
L 332.16797 -180.863279 
L 333.110564 -182.111565 
L 334.053158 -183.370385 
L 334.995753 -184.639923 
L 335.938347 -185.920349 
L 336.880941 -187.211814 
L 337.823535 -188.51445 
L 338.76613 -189.828367 
L 339.708724 -191.153651 
L 340.651318 -192.490366 
L 341.593913 -193.838548 
L 342.536507 -195.198206 
L 343.479101 -196.56932 
L 344.421695 -197.95184 
L 345.36429 -199.345685 
L 346.306884 -200.750741 
L 347.249478 -202.166861 
L 348.192073 -203.593866 
L 349.134667 -205.031537 
L 350.077261 -206.479626 
L 351.019855 -207.937844 
L 351.96245 -209.405868 
L 352.905044 -210.883337 
L 353.847638 -212.369854 
L 354.790233 -213.864985 
L 355.732827 -215.368257 
L 356.675421 -216.879163 
L 357.618015 -218.397156 
L 358.56061 -219.921656 
L 359.503204 -221.452044 
L 360.445798 -222.987668 
L 361.388392 -224.527837 
L 362.330987 -226.071831 
L 363.273581 -227.618893 
L 364.216175 -229.168234 
L 365.15877 -230.719033 
L 366.101364 -232.27044 
L 367.043958 -233.821573 
L 367.986552 -235.371523 
L 368.929147 -236.919353 
L 369.871741 -238.464101 
L 370.814335 -240.004778 
L 371.75693 -241.540373 
L 372.699524 -243.069853 
L 373.642118 -244.592164 
L 374.584712 -246.106233 
L 375.527307 -247.61097 
L 376.469901 -249.105267 
L 377.412495 -250.588003 
L 378.355089 -252.058044 
L 379.297684 -253.514243 
L 380.240278 -254.955444 
L 381.182872 -256.380484 
L 382.125467 -257.788191 
L 383.068061 -259.177389 
L 384.010655 -260.546899 
L 384.953249 -261.89554 
L 385.895844 -263.222131 
L 386.838438 -264.52549 
L 387.781032 -265.804441 
L 388.723627 -267.057812 
L 389.666221 -268.284435 
L 390.608815 -269.483151 
L 391.551409 -270.652811 
L 392.494004 -271.792276 
L 393.436598 -272.900418 
L 394.379192 -273.976125 
L 395.321787 -275.018298 
L 396.264381 -276.025857 
L 397.206975 -276.997737 
L 398.149569 -277.932894 
L 399.092164 -278.830307 
L 400.034758 -279.688973 
L 400.977352 -280.507915 
L 401.919946 -281.286182 
L 402.862541 -282.022846 
L 403.805135 -282.717009 
L 404.747729 -283.3678 
L 405.690324 -283.974378 
L 406.632918 -284.535936 
L 407.575512 -285.051694 
L 408.518106 -285.520909 
L 409.460701 -285.942871 
L 410.403295 -286.316907 
L 411.345889 -286.642378 
L 412.288484 -286.918683 
L 413.231078 -287.14526 
L 414.173672 -287.321586 
L 415.116266 -287.447179 
L 416.058861 -287.521596 
L 417.001455 -287.544436 
L 417.944049 -287.515342 
L 418.886644 -287.433997 
L 419.829238 -287.30013 
L 420.771832 -287.113514 
L 421.714426 -286.873965 
L 422.657021 -286.581346 
L 423.599615 -286.235564 
L 424.542209 -285.836572 
L 425.484803 -285.384369 
L 426.427398 -284.879001 
L 427.369992 -284.32056 
L 428.312586 -283.709184 
L 429.255181 -283.045057 
L 430.197775 -282.328409 
L 431.140369 -281.559519 
L 432.082963 -280.738708 
L 433.025558 -279.866344 
L 433.968152 -278.942842 
L 434.910746 -277.968659 
L 435.853341 -276.944298 
L 436.795935 -275.870304 
L 437.738529 -274.747268 
L 438.681123 -273.575819 
L 439.623718 -272.356631 
L 440.566312 -271.090416 
L 441.508906 -269.777928 
L 442.451501 -268.419956 
L 443.394095 -267.01733 
L 444.336689 -265.570914 
L 445.279283 -264.081608 
L 446.221878 -262.550345 
L 447.164472 -260.978091 
L 448.107066 -259.365844 
L 449.04966 -257.714629 
L 449.992255 -256.025501 
L 450.934849 -254.299541 
L 451.877443 -252.537856 
L 452.820038 -250.741575 
L 453.762632 -248.911849 
L 454.705226 -247.049851 
L 455.64782 -245.156769 
L 456.590415 -243.233811 
L 457.533009 -241.282198 
L 458.475603 -239.303165 
L 459.418198 -237.297959 
L 460.360792 -235.267837 
L 461.303386 -233.214062 
L 462.24598 -231.137906 
L 463.188575 -229.040645 
L 464.131169 -226.923557 
L 465.073763 -224.787923 
L 466.016357 -222.635021 
L 466.958952 -220.466131 
L 467.901546 -218.282526 
L 468.84414 -216.085476 
L 469.786735 -213.876243 
L 470.729329 -211.656084 
L 471.671923 -209.426242 
L 472.614517 -207.187954 
L 473.557112 -204.942441 
L 474.499706 -202.690914 
L 475.4423 -200.434566 
L 476.384895 -198.174578 
L 477.327489 -195.912111 
L 478.270083 -193.648311 
L 479.212677 -191.384303 
L 480.155272 -189.121194 
L 481.097866 -186.860069 
L 482.04046 -184.601993 
L 482.983055 -182.348008 
L 483.925649 -180.099134 
L 484.868243 -177.856367 
L 485.810837 -175.620681 
L 486.753432 -173.393024 
L 487.696026 -171.174319 
L 488.63862 -168.965466 
L 489.581214 -166.767339 
L 490.523809 -164.580784 
L 491.466403 -162.406624 
L 492.408997 -160.245657 
L 493.351592 -158.09865 
L 494.294186 -155.96635 
L 495.23678 -153.849475 
L 496.179374 -151.748715 
L 497.121969 -149.664738 
L 498.064563 -147.598184 
L 499.007157 -145.549668 
L 499.949752 -143.519779 
L 500.892346 -141.509081 
L 501.83494 -139.518112 
L 502.777534 -137.547387 
L 503.720129 -135.597394 
L 504.662723 -133.668601 
L 505.605317 -131.761447 
L 506.547912 -129.87635 
L 507.490506 -128.013706 
L 508.4331 -126.173885 
L 509.375694 -124.357236 
L 510.318289 -122.564087 
L 511.260883 -120.794742 
L 512.203477 -119.049486 
L 513.146071 -117.32858 
L 514.088666 -115.632266 
L 515.03126 -113.960766 
L 515.973854 -112.314282 
L 516.916449 -110.692996 
L 517.859043 -109.09707 
L 518.801637 -107.526649 
L 519.744231 -105.981858 
L 520.686826 -104.462804 
L 521.62942 -102.969577 
L 522.572014 -101.50225 
L 523.514609 -100.060878 
L 524.457203 -98.645498 
L 525.399797 -97.256133 
L 526.342391 -95.892789 
L 527.284986 -94.555456 
L 528.22758 -93.244109 
L 529.170174 -91.958706 
L 530.112768 -90.699193 
L 531.055363 -89.465499 
L 531.997957 -88.257541 
L 532.940551 -87.075221 
L 533.883146 -85.918426 
L 534.82574 -84.787031 
L 535.768334 -83.680899 
L 536.710928 -82.599879 
L 537.653523 -81.543808 
L 537.653523 -51.129773 
L 537.653523 -51.129773 
L 536.710928 -51.129773 
L 535.768334 -51.129773 
L 534.82574 -51.129773 
L 533.883146 -51.129773 
L 532.940551 -51.129773 
L 531.997957 -51.129773 
L 531.055363 -51.129773 
L 530.112768 -51.129773 
L 529.170174 -51.129773 
L 528.22758 -51.129773 
L 527.284986 -51.129773 
L 526.342391 -51.129773 
L 525.399797 -51.129773 
L 524.457203 -51.129773 
L 523.514609 -51.129773 
L 522.572014 -51.129773 
L 521.62942 -51.129773 
L 520.686826 -51.129773 
L 519.744231 -51.129773 
L 518.801637 -51.129773 
L 517.859043 -51.129773 
L 516.916449 -51.129773 
L 515.973854 -51.129773 
L 515.03126 -51.129773 
L 514.088666 -51.129773 
L 513.146071 -51.129773 
L 512.203477 -51.129773 
L 511.260883 -51.129773 
L 510.318289 -51.129773 
L 509.375694 -51.129773 
L 508.4331 -51.129773 
L 507.490506 -51.129773 
L 506.547912 -51.129773 
L 505.605317 -51.129773 
L 504.662723 -51.129773 
L 503.720129 -51.129773 
L 502.777534 -51.129773 
L 501.83494 -51.129773 
L 500.892346 -51.129773 
L 499.949752 -51.129773 
L 499.007157 -51.129773 
L 498.064563 -51.129773 
L 497.121969 -51.129773 
L 496.179374 -51.129773 
L 495.23678 -51.129773 
L 494.294186 -51.129773 
L 493.351592 -51.129773 
L 492.408997 -51.129773 
L 491.466403 -51.129773 
L 490.523809 -51.129773 
L 489.581214 -51.129773 
L 488.63862 -51.129773 
L 487.696026 -51.129773 
L 486.753432 -51.129773 
L 485.810837 -51.129773 
L 484.868243 -51.129773 
L 483.925649 -51.129773 
L 482.983055 -51.129773 
L 482.04046 -51.129773 
L 481.097866 -51.129773 
L 480.155272 -51.129773 
L 479.212677 -51.129773 
L 478.270083 -51.129773 
L 477.327489 -51.129773 
L 476.384895 -51.129773 
L 475.4423 -51.129773 
L 474.499706 -51.129773 
L 473.557112 -51.129773 
L 472.614517 -51.129773 
L 471.671923 -51.129773 
L 470.729329 -51.129773 
L 469.786735 -51.129773 
L 468.84414 -51.129773 
L 467.901546 -51.129773 
L 466.958952 -51.129773 
L 466.016357 -51.129773 
L 465.073763 -51.129773 
L 464.131169 -51.129773 
L 463.188575 -51.129773 
L 462.24598 -51.129773 
L 461.303386 -51.129773 
L 460.360792 -51.129773 
L 459.418198 -51.129773 
L 458.475603 -51.129773 
L 457.533009 -51.129773 
L 456.590415 -51.129773 
L 455.64782 -51.129773 
L 454.705226 -51.129773 
L 453.762632 -51.129773 
L 452.820038 -51.129773 
L 451.877443 -51.129773 
L 450.934849 -51.129773 
L 449.992255 -51.129773 
L 449.04966 -51.129773 
L 448.107066 -51.129773 
L 447.164472 -51.129773 
L 446.221878 -51.129773 
L 445.279283 -51.129773 
L 444.336689 -51.129773 
L 443.394095 -51.129773 
L 442.451501 -51.129773 
L 441.508906 -51.129773 
L 440.566312 -51.129773 
L 439.623718 -51.129773 
L 438.681123 -51.129773 
L 437.738529 -51.129773 
L 436.795935 -51.129773 
L 435.853341 -51.129773 
L 434.910746 -51.129773 
L 433.968152 -51.129773 
L 433.025558 -51.129773 
L 432.082963 -51.129773 
L 431.140369 -51.129773 
L 430.197775 -51.129773 
L 429.255181 -51.129773 
L 428.312586 -51.129773 
L 427.369992 -51.129773 
L 426.427398 -51.129773 
L 425.484803 -51.129773 
L 424.542209 -51.129773 
L 423.599615 -51.129773 
L 422.657021 -51.129773 
L 421.714426 -51.129773 
L 420.771832 -51.129773 
L 419.829238 -51.129773 
L 418.886644 -51.129773 
L 417.944049 -51.129773 
L 417.001455 -51.129773 
L 416.058861 -51.129773 
L 415.116266 -51.129773 
L 414.173672 -51.129773 
L 413.231078 -51.129773 
L 412.288484 -51.129773 
L 411.345889 -51.129773 
L 410.403295 -51.129773 
L 409.460701 -51.129773 
L 408.518106 -51.129773 
L 407.575512 -51.129773 
L 406.632918 -51.129773 
L 405.690324 -51.129773 
L 404.747729 -51.129773 
L 403.805135 -51.129773 
L 402.862541 -51.129773 
L 401.919946 -51.129773 
L 400.977352 -51.129773 
L 400.034758 -51.129773 
L 399.092164 -51.129773 
L 398.149569 -51.129773 
L 397.206975 -51.129773 
L 396.264381 -51.129773 
L 395.321787 -51.129773 
L 394.379192 -51.129773 
L 393.436598 -51.129773 
L 392.494004 -51.129773 
L 391.551409 -51.129773 
L 390.608815 -51.129773 
L 389.666221 -51.129773 
L 388.723627 -51.129773 
L 387.781032 -51.129773 
L 386.838438 -51.129773 
L 385.895844 -51.129773 
L 384.953249 -51.129773 
L 384.010655 -51.129773 
L 383.068061 -51.129773 
L 382.125467 -51.129773 
L 381.182872 -51.129773 
L 380.240278 -51.129773 
L 379.297684 -51.129773 
L 378.355089 -51.129773 
L 377.412495 -51.129773 
L 376.469901 -51.129773 
L 375.527307 -51.129773 
L 374.584712 -51.129773 
L 373.642118 -51.129773 
L 372.699524 -51.129773 
L 371.75693 -51.129773 
L 370.814335 -51.129773 
L 369.871741 -51.129773 
L 368.929147 -51.129773 
L 367.986552 -51.129773 
L 367.043958 -51.129773 
L 366.101364 -51.129773 
L 365.15877 -51.129773 
L 364.216175 -51.129773 
L 363.273581 -51.129773 
L 362.330987 -51.129773 
L 361.388392 -51.129773 
L 360.445798 -51.129773 
L 359.503204 -51.129773 
L 358.56061 -51.129773 
L 357.618015 -51.129773 
L 356.675421 -51.129773 
L 355.732827 -51.129773 
L 354.790233 -51.129773 
L 353.847638 -51.129773 
L 352.905044 -51.129773 
L 351.96245 -51.129773 
L 351.019855 -51.129773 
L 350.077261 -51.129773 
L 349.134667 -51.129773 
L 348.192073 -51.129773 
L 347.249478 -51.129773 
L 346.306884 -51.129773 
L 345.36429 -51.129773 
L 344.421695 -51.129773 
L 343.479101 -51.129773 
L 342.536507 -51.129773 
L 341.593913 -51.129773 
L 340.651318 -51.129773 
L 339.708724 -51.129773 
L 338.76613 -51.129773 
L 337.823535 -51.129773 
L 336.880941 -51.129773 
L 335.938347 -51.129773 
L 334.995753 -51.129773 
L 334.053158 -51.129773 
L 333.110564 -51.129773 
L 332.16797 -51.129773 
L 331.225376 -51.129773 
L 330.282781 -51.129773 
L 329.340187 -51.129773 
L 328.397593 -51.129773 
L 327.454998 -51.129773 
L 326.512404 -51.129773 
L 325.56981 -51.129773 
L 324.627216 -51.129773 
L 323.684621 -51.129773 
L 322.742027 -51.129773 
L 321.799433 -51.129773 
L 320.856838 -51.129773 
L 319.914244 -51.129773 
L 318.97165 -51.129773 
L 318.029056 -51.129773 
L 317.086461 -51.129773 
L 316.143867 -51.129773 
L 315.201273 -51.129773 
L 314.258678 -51.129773 
L 313.316084 -51.129773 
L 312.37349 -51.129773 
L 311.430896 -51.129773 
L 310.488301 -51.129773 
L 309.545707 -51.129773 
L 308.603113 -51.129773 
L 307.660519 -51.129773 
L 306.717924 -51.129773 
L 305.77533 -51.129773 
L 304.832736 -51.129773 
L 303.890141 -51.129773 
L 302.947547 -51.129773 
L 302.004953 -51.129773 
L 301.062359 -51.129773 
L 300.119764 -51.129773 
L 299.17717 -51.129773 
L 298.234576 -51.129773 
L 297.291981 -51.129773 
L 296.349387 -51.129773 
L 295.406793 -51.129773 
L 294.464199 -51.129773 
L 293.521604 -51.129773 
L 292.57901 -51.129773 
L 291.636416 -51.129773 
L 290.693822 -51.129773 
L 289.751227 -51.129773 
L 288.808633 -51.129773 
L 287.866039 -51.129773 
L 286.923444 -51.129773 
L 285.98085 -51.129773 
L 285.038256 -51.129773 
L 284.095662 -51.129773 
L 283.153067 -51.129773 
L 282.210473 -51.129773 
L 281.267879 -51.129773 
L 280.325284 -51.129773 
L 279.38269 -51.129773 
L 278.440096 -51.129773 
L 277.497502 -51.129773 
L 276.554907 -51.129773 
L 275.612313 -51.129773 
L 274.669719 -51.129773 
L 273.727124 -51.129773 
L 272.78453 -51.129773 
L 271.841936 -51.129773 
L 270.899342 -51.129773 
L 269.956747 -51.129773 
L 269.014153 -51.129773 
L 268.071559 -51.129773 
L 267.128965 -51.129773 
L 266.18637 -51.129773 
L 265.243776 -51.129773 
L 264.301182 -51.129773 
L 263.358587 -51.129773 
L 262.415993 -51.129773 
L 261.473399 -51.129773 
L 260.530805 -51.129773 
L 259.58821 -51.129773 
L 258.645616 -51.129773 
L 257.703022 -51.129773 
L 256.760427 -51.129773 
L 255.817833 -51.129773 
L 254.875239 -51.129773 
L 253.932645 -51.129773 
L 252.99005 -51.129773 
L 252.047456 -51.129773 
L 251.104862 -51.129773 
L 250.162267 -51.129773 
L 249.219673 -51.129773 
L 248.277079 -51.129773 
L 247.334485 -51.129773 
L 246.39189 -51.129773 
L 245.449296 -51.129773 
L 244.506702 -51.129773 
L 243.564108 -51.129773 
L 242.621513 -51.129773 
L 241.678919 -51.129773 
L 240.736325 -51.129773 
L 239.79373 -51.129773 
L 238.851136 -51.129773 
L 237.908542 -51.129773 
L 236.965948 -51.129773 
L 236.023353 -51.129773 
L 235.080759 -51.129773 
L 234.138165 -51.129773 
L 233.19557 -51.129773 
L 232.252976 -51.129773 
L 231.310382 -51.129773 
L 230.367788 -51.129773 
L 229.425193 -51.129773 
L 228.482599 -51.129773 
L 227.540005 -51.129773 
L 226.597411 -51.129773 
L 225.654816 -51.129773 
L 224.712222 -51.129773 
L 223.769628 -51.129773 
L 222.827033 -51.129773 
L 221.884439 -51.129773 
L 220.941845 -51.129773 
L 219.999251 -51.129773 
L 219.056656 -51.129773 
L 218.114062 -51.129773 
L 217.171468 -51.129773 
L 216.228873 -51.129773 
L 215.286279 -51.129773 
L 214.343685 -51.129773 
L 213.401091 -51.129773 
L 212.458496 -51.129773 
L 211.515902 -51.129773 
L 210.573308 -51.129773 
L 209.630713 -51.129773 
L 208.688119 -51.129773 
L 207.745525 -51.129773 
L 206.802931 -51.129773 
L 205.860336 -51.129773 
L 204.917742 -51.129773 
L 203.975148 -51.129773 
L 203.032554 -51.129773 
L 202.089959 -51.129773 
L 201.147365 -51.129773 
L 200.204771 -51.129773 
L 199.262176 -51.129773 
L 198.319582 -51.129773 
L 197.376988 -51.129773 
L 196.434394 -51.129773 
L 195.491799 -51.129773 
L 194.549205 -51.129773 
L 193.606611 -51.129773 
L 192.664016 -51.129773 
L 191.721422 -51.129773 
L 190.778828 -51.129773 
L 189.836234 -51.129773 
L 188.893639 -51.129773 
L 187.951045 -51.129773 
L 187.008451 -51.129773 
L 186.065856 -51.129773 
L 185.123262 -51.129773 
L 184.180668 -51.129773 
L 183.238074 -51.129773 
L 182.295479 -51.129773 
L 181.352885 -51.129773 
L 180.410291 -51.129773 
L 179.467697 -51.129773 
L 178.525102 -51.129773 
L 177.582508 -51.129773 
L 176.639914 -51.129773 
L 175.697319 -51.129773 
L 174.754725 -51.129773 
L 173.812131 -51.129773 
L 172.869537 -51.129773 
L 171.926942 -51.129773 
L 170.984348 -51.129773 
L 170.041754 -51.129773 
L 169.099159 -51.129773 
L 168.156565 -51.129773 
L 167.213971 -51.129773 
L 166.271377 -51.129773 
L 165.328782 -51.129773 
L 164.386188 -51.129773 
L 163.443594 -51.129773 
L 162.500999 -51.129773 
L 161.558405 -51.129773 
L 160.615811 -51.129773 
L 159.673217 -51.129773 
L 158.730622 -51.129773 
L 157.788028 -51.129773 
L 156.845434 -51.129773 
L 155.90284 -51.129773 
L 154.960245 -51.129773 
L 154.017651 -51.129773 
L 153.075057 -51.129773 
L 152.132462 -51.129773 
L 151.189868 -51.129773 
L 150.247274 -51.129773 
L 149.30468 -51.129773 
L 148.362085 -51.129773 
L 147.419491 -51.129773 
L 146.476897 -51.129773 
L 145.534302 -51.129773 
L 144.591708 -51.129773 
L 143.649114 -51.129773 
L 142.70652 -51.129773 
L 141.763925 -51.129773 
L 140.821331 -51.129773 
L 139.878737 -51.129773 
L 138.936143 -51.129773 
L 137.993548 -51.129773 
L 137.050954 -51.129773 
L 136.10836 -51.129773 
L 135.165765 -51.129773 
L 134.223171 -51.129773 
L 133.280577 -51.129773 
L 132.337983 -51.129773 
L 131.395388 -51.129773 
L 130.452794 -51.129773 
L 129.5102 -51.129773 
L 128.567605 -51.129773 
L 127.625011 -51.129773 
L 126.682417 -51.129773 
L 125.739823 -51.129773 
L 124.797228 -51.129773 
L 123.854634 -51.129773 
L 122.91204 -51.129773 
L 121.969445 -51.129773 
L 121.026851 -51.129773 
L 120.084257 -51.129773 
L 119.141663 -51.129773 
L 118.199068 -51.129773 
L 117.256474 -51.129773 
L 116.31388 -51.129773 
L 115.371286 -51.129773 
L 114.428691 -51.129773 
L 113.486097 -51.129773 
L 112.543503 -51.129773 
L 111.600908 -51.129773 
L 110.658314 -51.129773 
L 109.71572 -51.129773 
L 108.773126 -51.129773 
L 107.830531 -51.129773 
L 106.887937 -51.129773 
L 105.945343 -51.129773 
L 105.002748 -51.129773 
L 104.060154 -51.129773 
L 103.11756 -51.129773 
L 102.174966 -51.129773 
L 101.232371 -51.129773 
L 100.289777 -51.129773 
L 99.347183 -51.129773 
L 98.404588 -51.129773 
L 97.461994 -51.129773 
L 96.5194 -51.129773 
L 95.576806 -51.129773 
L 94.634211 -51.129773 
L 93.691617 -51.129773 
L 92.749023 -51.129773 
L 91.806429 -51.129773 
L 90.863834 -51.129773 
L 89.92124 -51.129773 
L 88.978646 -51.129773 
L 88.036051 -51.129773 
L 87.093457 -51.129773 
L 86.150863 -51.129773 
L 85.208269 -51.129773 
L 84.265674 -51.129773 
L 83.32308 -51.129773 
L 82.380486 -51.129773 
L 81.437891 -51.129773 
L 80.495297 -51.129773 
L 79.552703 -51.129773 
L 78.610109 -51.129773 
L 77.667514 -51.129773 
L 76.72492 -51.129773 
L 75.782326 -51.129773 
L 74.839732 -51.129773 
L 73.897137 -51.129773 
L 72.954543 -51.129773 
L 72.011949 -51.129773 
L 71.069354 -51.129773 
L 70.12676 -51.129773 
L 69.184166 -51.129773 
L 68.241572 -51.129773 
L 67.298977 -51.129773 
z
" style="stroke: #ff0000; stroke-opacity: 0.2"/>
    </defs>
    <g clip-path="url(#p6269ee0b84)">
     <use xlink:href="#m70754e23ba" x="0" y="352.65125" style="fill: #ff0000; fill-opacity: 0.2; stroke: #ff0000; stroke-opacity: 0.2"/>
    </g>
   </g>
   <g id="PolyCollection_2">
    <defs>
     <path id="mf891ac415b" d="M 67.298977 -51.129773 
L 67.298977 -57.044368 
L 68.241572 -57.329768 
L 69.184166 -57.621251 
L 70.12676 -57.918487 
L 71.069354 -58.221126 
L 72.011949 -58.528798 
L 72.954543 -58.841118 
L 73.897137 -59.157686 
L 74.839732 -59.47809 
L 75.782326 -59.801908 
L 76.72492 -60.128712 
L 77.667514 -60.458071 
L 78.610109 -60.78955 
L 79.552703 -61.122718 
L 80.495297 -61.457149 
L 81.437891 -61.792423 
L 82.380486 -62.12813 
L 83.32308 -62.463874 
L 84.265674 -62.799271 
L 85.208269 -63.133959 
L 86.150863 -63.46759 
L 87.093457 -63.799842 
L 88.036051 -64.130411 
L 88.978646 -64.459021 
L 89.92124 -64.785418 
L 90.863834 -65.109375 
L 91.806429 -65.430689 
L 92.749023 -65.749186 
L 93.691617 -66.064716 
L 94.634211 -66.377153 
L 95.576806 -66.686397 
L 96.5194 -66.992372 
L 97.461994 -67.295023 
L 98.404588 -67.594315 
L 99.347183 -67.890235 
L 100.289777 -68.182783 
L 101.232371 -68.471978 
L 102.174966 -68.757853 
L 103.11756 -69.040449 
L 104.060154 -69.31982 
L 105.002748 -69.596028 
L 105.945343 -69.869139 
L 106.887937 -70.139226 
L 107.830531 -70.406364 
L 108.773126 -70.670629 
L 109.71572 -70.9321 
L 110.658314 -71.190852 
L 111.600908 -71.446963 
L 112.543503 -71.700506 
L 113.486097 -71.951555 
L 114.428691 -72.200178 
L 115.371286 -72.446445 
L 116.31388 -72.69042 
L 117.256474 -72.932169 
L 118.199068 -73.171754 
L 119.141663 -73.409237 
L 120.084257 -73.644681 
L 121.026851 -73.878146 
L 121.969445 -74.109696 
L 122.91204 -74.339396 
L 123.854634 -74.56731 
L 124.797228 -74.793508 
L 125.739823 -75.018059 
L 126.682417 -75.241037 
L 127.625011 -75.462516 
L 128.567605 -75.682573 
L 129.5102 -75.901288 
L 130.452794 -76.118741 
L 131.395388 -76.335011 
L 132.337983 -76.550179 
L 133.280577 -76.764322 
L 134.223171 -76.977518 
L 135.165765 -77.189836 
L 136.10836 -77.401344 
L 137.050954 -77.612102 
L 137.993548 -77.822162 
L 138.936143 -78.031567 
L 139.878737 -78.240349 
L 140.821331 -78.448531 
L 141.763925 -78.656122 
L 142.70652 -78.863117 
L 143.649114 -79.0695 
L 144.591708 -79.275241 
L 145.534302 -79.480293 
L 146.476897 -79.684598 
L 147.419491 -79.888085 
L 148.362085 -80.090671 
L 149.30468 -80.292258 
L 150.247274 -80.492742 
L 151.189868 -80.692009 
L 152.132462 -80.889938 
L 153.075057 -81.086403 
L 154.017651 -81.281275 
L 154.960245 -81.474426 
L 155.90284 -81.66573 
L 156.845434 -81.855062 
L 157.788028 -82.042309 
L 158.730622 -82.227362 
L 159.673217 -82.410127 
L 160.615811 -82.590523 
L 161.558405 -82.768484 
L 162.500999 -82.943963 
L 163.443594 -83.116932 
L 164.386188 -83.287386 
L 165.328782 -83.455339 
L 166.271377 -83.620832 
L 167.213971 -83.783929 
L 168.156565 -83.944719 
L 169.099159 -84.103317 
L 170.041754 -84.259861 
L 170.984348 -84.414516 
L 171.926942 -84.567472 
L 172.869537 -84.718942 
L 173.812131 -84.869161 
L 174.754725 -85.018389 
L 175.697319 -85.166903 
L 176.639914 -85.315002 
L 177.582508 -85.463003 
L 178.525102 -85.611239 
L 179.467697 -85.760057 
L 180.410291 -85.909821 
L 181.352885 -86.060902 
L 182.295479 -86.213685 
L 183.238074 -86.368563 
L 184.180668 -86.525934 
L 185.123262 -86.686203 
L 186.065856 -86.84978 
L 187.008451 -87.017075 
L 187.951045 -87.1885 
L 188.893639 -87.364467 
L 189.836234 -87.545383 
L 190.778828 -87.731653 
L 191.721422 -87.923678 
L 192.664016 -88.121847 
L 193.606611 -88.326546 
L 194.549205 -88.538145 
L 195.491799 -88.757005 
L 196.434394 -88.983472 
L 197.376988 -89.217873 
L 198.319582 -89.460521 
L 199.262176 -89.711706 
L 200.204771 -89.971694 
L 201.147365 -90.240728 
L 202.089959 -90.519024 
L 203.032554 -90.806766 
L 203.975148 -91.104108 
L 204.917742 -91.41117 
L 205.860336 -91.728034 
L 206.802931 -92.054744 
L 207.745525 -92.391301 
L 208.688119 -92.737666 
L 209.630713 -93.093754 
L 210.573308 -93.459431 
L 211.515902 -93.834519 
L 212.458496 -94.218787 
L 213.401091 -94.611955 
L 214.343685 -95.013693 
L 215.286279 -95.423618 
L 216.228873 -95.841298 
L 217.171468 -96.266249 
L 218.114062 -96.697937 
L 219.056656 -97.13578 
L 219.999251 -97.579151 
L 220.941845 -98.027375 
L 221.884439 -98.47974 
L 222.827033 -98.935491 
L 223.769628 -99.393841 
L 224.712222 -99.853971 
L 225.654816 -100.315036 
L 226.597411 -100.77617 
L 227.540005 -101.236489 
L 228.482599 -101.6951 
L 229.425193 -102.151105 
L 230.367788 -102.603608 
L 231.310382 -103.05172 
L 232.252976 -103.494565 
L 233.19557 -103.931293 
L 234.138165 -104.361075 
L 235.080759 -104.783123 
L 236.023353 -105.196685 
L 236.965948 -105.601059 
L 237.908542 -105.995597 
L 238.851136 -106.379709 
L 239.79373 -106.752871 
L 240.736325 -107.11463 
L 241.678919 -107.464607 
L 242.621513 -107.802503 
L 243.564108 -108.1281 
L 244.506702 -108.441267 
L 245.449296 -108.741962 
L 246.39189 -109.030229 
L 247.334485 -109.306205 
L 248.277079 -109.570116 
L 249.219673 -109.822276 
L 250.162267 -110.063089 
L 251.104862 -110.293044 
L 252.047456 -110.512711 
L 252.99005 -110.722742 
L 253.932645 -110.92386 
L 254.875239 -111.116861 
L 255.817833 -111.302603 
L 256.760427 -111.482003 
L 257.703022 -111.656029 
L 258.645616 -111.825697 
L 259.58821 -111.992055 
L 260.530805 -112.156188 
L 261.473399 -112.3192 
L 262.415993 -112.482213 
L 263.358587 -112.646355 
L 264.301182 -112.812756 
L 265.243776 -112.982541 
L 266.18637 -113.15682 
L 267.128965 -113.336685 
L 268.071559 -113.523199 
L 269.014153 -113.717396 
L 269.956747 -113.920272 
L 270.899342 -114.132779 
L 271.841936 -114.355825 
L 272.78453 -114.590267 
L 273.727124 -114.836906 
L 274.669719 -115.096491 
L 275.612313 -115.36971 
L 276.554907 -115.657192 
L 277.497502 -115.959506 
L 278.440096 -116.27716 
L 279.38269 -116.610602 
L 280.325284 -116.960218 
L 281.267879 -117.326338 
L 282.210473 -117.709235 
L 283.153067 -118.109125 
L 284.095662 -118.526174 
L 285.038256 -118.960498 
L 285.98085 -119.412166 
L 286.923444 -119.881207 
L 287.866039 -120.367607 
L 288.808633 -120.87132 
L 289.751227 -121.392269 
L 290.693822 -121.930348 
L 291.636416 -122.485432 
L 292.57901 -123.057375 
L 293.521604 -123.646018 
L 294.464199 -124.251194 
L 295.406793 -124.872729 
L 296.349387 -125.510451 
L 297.291981 -126.164189 
L 298.234576 -126.833781 
L 299.17717 -127.519074 
L 300.119764 -128.219933 
L 301.062359 -128.936238 
L 302.004953 -129.667893 
L 302.947547 -130.414825 
L 303.890141 -131.176989 
L 304.832736 -131.954366 
L 305.77533 -132.746972 
L 306.717924 -133.554852 
L 307.660519 -134.378088 
L 308.603113 -135.216794 
L 309.545707 -136.071119 
L 310.488301 -136.94125 
L 311.430896 -137.827406 
L 312.37349 -138.729841 
L 313.316084 -139.648842 
L 314.258678 -140.584729 
L 315.201273 -141.537851 
L 316.143867 -142.508586 
L 317.086461 -143.497339 
L 318.029056 -144.504538 
L 318.97165 -145.530633 
L 319.914244 -146.576091 
L 320.856838 -147.641398 
L 321.799433 -148.727051 
L 322.742027 -149.833556 
L 323.684621 -150.96143 
L 324.627216 -152.11119 
L 325.56981 -153.283358 
L 326.512404 -154.478453 
L 327.454998 -155.696991 
L 328.397593 -156.939482 
L 329.340187 -158.206428 
L 330.282781 -159.498318 
L 331.225376 -160.815632 
L 332.16797 -162.158834 
L 333.110564 -163.528373 
L 334.053158 -164.924679 
L 334.995753 -166.348166 
L 335.938347 -167.799226 
L 336.880941 -169.27823 
L 337.823535 -170.785528 
L 338.76613 -172.321446 
L 339.708724 -173.886285 
L 340.651318 -175.480322 
L 341.593913 -177.103804 
L 342.536507 -178.756953 
L 343.479101 -180.439957 
L 344.421695 -182.152974 
L 345.36429 -183.89613 
L 346.306884 -185.669511 
L 347.249478 -187.473168 
L 348.192073 -189.307108 
L 349.134667 -191.171297 
L 350.077261 -193.065653 
L 351.019855 -194.990043 
L 351.96245 -196.944283 
L 352.905044 -198.928131 
L 353.847638 -200.941286 
L 354.790233 -202.983383 
L 355.732827 -205.053993 
L 356.675421 -207.152613 
L 357.618015 -209.278672 
L 358.56061 -211.431521 
L 359.503204 -213.610431 
L 360.445798 -215.814595 
L 361.388392 -218.043121 
L 362.330987 -220.295035 
L 363.273581 -222.569274 
L 364.216175 -224.864689 
L 365.15877 -227.180042 
L 366.101364 -229.514008 
L 367.043958 -231.865172 
L 367.986552 -234.232031 
L 368.929147 -236.612992 
L 369.871741 -239.006377 
L 370.814335 -241.410419 
L 371.75693 -243.823267 
L 372.699524 -246.242982 
L 373.642118 -248.667542 
L 374.584712 -251.094842 
L 375.527307 -253.522695 
L 376.469901 -255.948828 
L 377.412495 -258.37089 
L 378.355089 -260.786448 
L 379.297684 -263.192986 
L 380.240278 -265.587907 
L 381.182872 -267.968535 
L 382.125467 -270.332107 
L 383.068061 -272.675783 
L 384.010655 -274.996636 
L 384.953249 -277.29166 
L 385.895844 -279.557763 
L 386.838438 -281.791772 
L 387.781032 -283.990433 
L 388.723627 -286.150411 
L 389.666221 -288.268294 
L 390.608815 -290.340594 
L 391.551409 -292.363756 
L 392.494004 -294.334155 
L 393.436598 -296.248113 
L 394.379192 -298.101897 
L 395.321787 -299.891735 
L 396.264381 -301.613827 
L 397.206975 -303.264355 
L 398.149569 -304.839497 
L 399.092164 -306.335447 
L 400.034758 -307.748429 
L 400.977352 -309.074717 
L 401.919946 -310.310657 
L 402.862541 -311.452686 
L 403.805135 -312.497358 
L 404.747729 -313.441364 
L 405.690324 -314.28156 
L 406.632918 -315.01499 
L 407.575512 -315.638909 
L 408.518106 -316.150811 
L 409.460701 -316.54845 
L 410.403295 -316.829864 
L 411.345889 -316.9934 
L 412.288484 -317.037727 
L 413.231078 -316.961864 
L 414.173672 -316.765189 
L 415.116266 -316.447458 
L 416.058861 -316.008811 
L 417.001455 -315.449788 
L 417.944049 -314.771329 
L 418.886644 -313.974779 
L 419.829238 -313.061887 
L 420.771832 -312.0348 
L 421.714426 -310.896059 
L 422.657021 -309.648586 
L 423.599615 -308.29567 
L 424.542209 -306.840951 
L 425.484803 -305.288401 
L 426.427398 -303.642297 
L 427.369992 -301.907202 
L 428.312586 -300.087932 
L 429.255181 -298.18953 
L 430.197775 -296.217235 
L 431.140369 -294.176448 
L 432.082963 -292.0727 
L 433.025558 -289.911618 
L 433.968152 -287.69889 
L 434.910746 -285.440233 
L 435.853341 -283.141358 
L 436.795935 -280.807939 
L 437.738529 -278.445578 
L 438.681123 -276.059778 
L 439.623718 -273.655912 
L 440.566312 -271.239197 
L 441.508906 -268.814668 
L 442.451501 -266.387156 
L 443.394095 -263.961267 
L 444.336689 -261.541362 
L 445.279283 -259.131545 
L 446.221878 -256.735644 
L 447.164472 -254.357205 
L 448.107066 -251.99948 
L 449.04966 -249.665423 
L 449.992255 -247.357682 
L 450.934849 -245.078602 
L 451.877443 -242.830225 
L 452.820038 -240.614286 
L 453.762632 -238.432226 
L 454.705226 -236.285192 
L 455.64782 -234.174044 
L 456.590415 -232.099369 
L 457.533009 -230.061487 
L 458.475603 -228.060462 
L 459.418198 -226.096117 
L 460.360792 -224.168044 
L 461.303386 -222.275622 
L 462.24598 -220.418027 
L 463.188575 -218.594248 
L 464.131169 -216.803106 
L 465.073763 -215.043264 
L 466.016357 -213.313245 
L 466.958952 -211.611449 
L 467.901546 -209.936165 
L 468.84414 -208.28559 
L 469.786735 -206.657844 
L 470.729329 -205.050979 
L 471.671923 -203.463003 
L 472.614517 -201.891884 
L 473.557112 -200.335572 
L 474.499706 -198.792007 
L 475.4423 -197.259132 
L 476.384895 -195.734905 
L 477.327489 -194.217312 
L 478.270083 -192.704373 
L 479.212677 -191.194156 
L 480.155272 -189.684783 
L 481.097866 -188.174438 
L 482.04046 -186.661376 
L 482.983055 -185.143927 
L 483.925649 -183.620505 
L 484.868243 -182.089607 
L 485.810837 -180.549826 
L 486.753432 -178.999844 
L 487.696026 -177.438445 
L 488.63862 -175.864509 
L 489.581214 -174.277019 
L 490.523809 -172.675059 
L 491.466403 -171.057815 
L 492.408997 -169.424579 
L 493.351592 -167.774743 
L 494.294186 -166.107802 
L 495.23678 -164.423354 
L 496.179374 -162.721098 
L 497.121969 -161.000831 
L 498.064563 -159.262453 
L 499.007157 -157.505957 
L 499.949752 -155.731439 
L 500.892346 -153.939085 
L 501.83494 -152.129181 
L 502.777534 -150.302105 
L 503.720129 -148.458326 
L 504.662723 -146.598409 
L 505.605317 -144.723007 
L 506.547912 -142.832866 
L 507.490506 -140.928819 
L 508.4331 -139.011787 
L 509.375694 -137.082781 
L 510.318289 -135.142896 
L 511.260883 -133.19331 
L 512.203477 -131.235284 
L 513.146071 -129.270161 
L 514.088666 -127.299359 
L 515.03126 -125.324373 
L 515.973854 -123.346768 
L 516.916449 -121.368176 
L 517.859043 -119.390294 
L 518.801637 -117.414875 
L 519.744231 -115.443726 
L 520.686826 -113.478702 
L 521.62942 -111.521697 
L 522.572014 -109.574638 
L 523.514609 -107.639479 
L 524.457203 -105.718191 
L 525.399797 -103.812756 
L 526.342391 -101.925155 
L 527.284986 -100.057363 
L 528.22758 -98.211335 
L 529.170174 -96.389003 
L 530.112768 -94.592261 
L 531.055363 -92.822956 
L 531.997957 -91.082885 
L 532.940551 -89.373776 
L 533.883146 -87.69729 
L 534.82574 -86.055003 
L 535.768334 -84.448404 
L 536.710928 -82.878886 
L 537.653523 -81.34774 
L 537.653523 -51.129773 
L 537.653523 -51.129773 
L 536.710928 -51.129773 
L 535.768334 -51.129773 
L 534.82574 -51.129773 
L 533.883146 -51.129773 
L 532.940551 -51.129773 
L 531.997957 -51.129773 
L 531.055363 -51.129773 
L 530.112768 -51.129773 
L 529.170174 -51.129773 
L 528.22758 -51.129773 
L 527.284986 -51.129773 
L 526.342391 -51.129773 
L 525.399797 -51.129773 
L 524.457203 -51.129773 
L 523.514609 -51.129773 
L 522.572014 -51.129773 
L 521.62942 -51.129773 
L 520.686826 -51.129773 
L 519.744231 -51.129773 
L 518.801637 -51.129773 
L 517.859043 -51.129773 
L 516.916449 -51.129773 
L 515.973854 -51.129773 
L 515.03126 -51.129773 
L 514.088666 -51.129773 
L 513.146071 -51.129773 
L 512.203477 -51.129773 
L 511.260883 -51.129773 
L 510.318289 -51.129773 
L 509.375694 -51.129773 
L 508.4331 -51.129773 
L 507.490506 -51.129773 
L 506.547912 -51.129773 
L 505.605317 -51.129773 
L 504.662723 -51.129773 
L 503.720129 -51.129773 
L 502.777534 -51.129773 
L 501.83494 -51.129773 
L 500.892346 -51.129773 
L 499.949752 -51.129773 
L 499.007157 -51.129773 
L 498.064563 -51.129773 
L 497.121969 -51.129773 
L 496.179374 -51.129773 
L 495.23678 -51.129773 
L 494.294186 -51.129773 
L 493.351592 -51.129773 
L 492.408997 -51.129773 
L 491.466403 -51.129773 
L 490.523809 -51.129773 
L 489.581214 -51.129773 
L 488.63862 -51.129773 
L 487.696026 -51.129773 
L 486.753432 -51.129773 
L 485.810837 -51.129773 
L 484.868243 -51.129773 
L 483.925649 -51.129773 
L 482.983055 -51.129773 
L 482.04046 -51.129773 
L 481.097866 -51.129773 
L 480.155272 -51.129773 
L 479.212677 -51.129773 
L 478.270083 -51.129773 
L 477.327489 -51.129773 
L 476.384895 -51.129773 
L 475.4423 -51.129773 
L 474.499706 -51.129773 
L 473.557112 -51.129773 
L 472.614517 -51.129773 
L 471.671923 -51.129773 
L 470.729329 -51.129773 
L 469.786735 -51.129773 
L 468.84414 -51.129773 
L 467.901546 -51.129773 
L 466.958952 -51.129773 
L 466.016357 -51.129773 
L 465.073763 -51.129773 
L 464.131169 -51.129773 
L 463.188575 -51.129773 
L 462.24598 -51.129773 
L 461.303386 -51.129773 
L 460.360792 -51.129773 
L 459.418198 -51.129773 
L 458.475603 -51.129773 
L 457.533009 -51.129773 
L 456.590415 -51.129773 
L 455.64782 -51.129773 
L 454.705226 -51.129773 
L 453.762632 -51.129773 
L 452.820038 -51.129773 
L 451.877443 -51.129773 
L 450.934849 -51.129773 
L 449.992255 -51.129773 
L 449.04966 -51.129773 
L 448.107066 -51.129773 
L 447.164472 -51.129773 
L 446.221878 -51.129773 
L 445.279283 -51.129773 
L 444.336689 -51.129773 
L 443.394095 -51.129773 
L 442.451501 -51.129773 
L 441.508906 -51.129773 
L 440.566312 -51.129773 
L 439.623718 -51.129773 
L 438.681123 -51.129773 
L 437.738529 -51.129773 
L 436.795935 -51.129773 
L 435.853341 -51.129773 
L 434.910746 -51.129773 
L 433.968152 -51.129773 
L 433.025558 -51.129773 
L 432.082963 -51.129773 
L 431.140369 -51.129773 
L 430.197775 -51.129773 
L 429.255181 -51.129773 
L 428.312586 -51.129773 
L 427.369992 -51.129773 
L 426.427398 -51.129773 
L 425.484803 -51.129773 
L 424.542209 -51.129773 
L 423.599615 -51.129773 
L 422.657021 -51.129773 
L 421.714426 -51.129773 
L 420.771832 -51.129773 
L 419.829238 -51.129773 
L 418.886644 -51.129773 
L 417.944049 -51.129773 
L 417.001455 -51.129773 
L 416.058861 -51.129773 
L 415.116266 -51.129773 
L 414.173672 -51.129773 
L 413.231078 -51.129773 
L 412.288484 -51.129773 
L 411.345889 -51.129773 
L 410.403295 -51.129773 
L 409.460701 -51.129773 
L 408.518106 -51.129773 
L 407.575512 -51.129773 
L 406.632918 -51.129773 
L 405.690324 -51.129773 
L 404.747729 -51.129773 
L 403.805135 -51.129773 
L 402.862541 -51.129773 
L 401.919946 -51.129773 
L 400.977352 -51.129773 
L 400.034758 -51.129773 
L 399.092164 -51.129773 
L 398.149569 -51.129773 
L 397.206975 -51.129773 
L 396.264381 -51.129773 
L 395.321787 -51.129773 
L 394.379192 -51.129773 
L 393.436598 -51.129773 
L 392.494004 -51.129773 
L 391.551409 -51.129773 
L 390.608815 -51.129773 
L 389.666221 -51.129773 
L 388.723627 -51.129773 
L 387.781032 -51.129773 
L 386.838438 -51.129773 
L 385.895844 -51.129773 
L 384.953249 -51.129773 
L 384.010655 -51.129773 
L 383.068061 -51.129773 
L 382.125467 -51.129773 
L 381.182872 -51.129773 
L 380.240278 -51.129773 
L 379.297684 -51.129773 
L 378.355089 -51.129773 
L 377.412495 -51.129773 
L 376.469901 -51.129773 
L 375.527307 -51.129773 
L 374.584712 -51.129773 
L 373.642118 -51.129773 
L 372.699524 -51.129773 
L 371.75693 -51.129773 
L 370.814335 -51.129773 
L 369.871741 -51.129773 
L 368.929147 -51.129773 
L 367.986552 -51.129773 
L 367.043958 -51.129773 
L 366.101364 -51.129773 
L 365.15877 -51.129773 
L 364.216175 -51.129773 
L 363.273581 -51.129773 
L 362.330987 -51.129773 
L 361.388392 -51.129773 
L 360.445798 -51.129773 
L 359.503204 -51.129773 
L 358.56061 -51.129773 
L 357.618015 -51.129773 
L 356.675421 -51.129773 
L 355.732827 -51.129773 
L 354.790233 -51.129773 
L 353.847638 -51.129773 
L 352.905044 -51.129773 
L 351.96245 -51.129773 
L 351.019855 -51.129773 
L 350.077261 -51.129773 
L 349.134667 -51.129773 
L 348.192073 -51.129773 
L 347.249478 -51.129773 
L 346.306884 -51.129773 
L 345.36429 -51.129773 
L 344.421695 -51.129773 
L 343.479101 -51.129773 
L 342.536507 -51.129773 
L 341.593913 -51.129773 
L 340.651318 -51.129773 
L 339.708724 -51.129773 
L 338.76613 -51.129773 
L 337.823535 -51.129773 
L 336.880941 -51.129773 
L 335.938347 -51.129773 
L 334.995753 -51.129773 
L 334.053158 -51.129773 
L 333.110564 -51.129773 
L 332.16797 -51.129773 
L 331.225376 -51.129773 
L 330.282781 -51.129773 
L 329.340187 -51.129773 
L 328.397593 -51.129773 
L 327.454998 -51.129773 
L 326.512404 -51.129773 
L 325.56981 -51.129773 
L 324.627216 -51.129773 
L 323.684621 -51.129773 
L 322.742027 -51.129773 
L 321.799433 -51.129773 
L 320.856838 -51.129773 
L 319.914244 -51.129773 
L 318.97165 -51.129773 
L 318.029056 -51.129773 
L 317.086461 -51.129773 
L 316.143867 -51.129773 
L 315.201273 -51.129773 
L 314.258678 -51.129773 
L 313.316084 -51.129773 
L 312.37349 -51.129773 
L 311.430896 -51.129773 
L 310.488301 -51.129773 
L 309.545707 -51.129773 
L 308.603113 -51.129773 
L 307.660519 -51.129773 
L 306.717924 -51.129773 
L 305.77533 -51.129773 
L 304.832736 -51.129773 
L 303.890141 -51.129773 
L 302.947547 -51.129773 
L 302.004953 -51.129773 
L 301.062359 -51.129773 
L 300.119764 -51.129773 
L 299.17717 -51.129773 
L 298.234576 -51.129773 
L 297.291981 -51.129773 
L 296.349387 -51.129773 
L 295.406793 -51.129773 
L 294.464199 -51.129773 
L 293.521604 -51.129773 
L 292.57901 -51.129773 
L 291.636416 -51.129773 
L 290.693822 -51.129773 
L 289.751227 -51.129773 
L 288.808633 -51.129773 
L 287.866039 -51.129773 
L 286.923444 -51.129773 
L 285.98085 -51.129773 
L 285.038256 -51.129773 
L 284.095662 -51.129773 
L 283.153067 -51.129773 
L 282.210473 -51.129773 
L 281.267879 -51.129773 
L 280.325284 -51.129773 
L 279.38269 -51.129773 
L 278.440096 -51.129773 
L 277.497502 -51.129773 
L 276.554907 -51.129773 
L 275.612313 -51.129773 
L 274.669719 -51.129773 
L 273.727124 -51.129773 
L 272.78453 -51.129773 
L 271.841936 -51.129773 
L 270.899342 -51.129773 
L 269.956747 -51.129773 
L 269.014153 -51.129773 
L 268.071559 -51.129773 
L 267.128965 -51.129773 
L 266.18637 -51.129773 
L 265.243776 -51.129773 
L 264.301182 -51.129773 
L 263.358587 -51.129773 
L 262.415993 -51.129773 
L 261.473399 -51.129773 
L 260.530805 -51.129773 
L 259.58821 -51.129773 
L 258.645616 -51.129773 
L 257.703022 -51.129773 
L 256.760427 -51.129773 
L 255.817833 -51.129773 
L 254.875239 -51.129773 
L 253.932645 -51.129773 
L 252.99005 -51.129773 
L 252.047456 -51.129773 
L 251.104862 -51.129773 
L 250.162267 -51.129773 
L 249.219673 -51.129773 
L 248.277079 -51.129773 
L 247.334485 -51.129773 
L 246.39189 -51.129773 
L 245.449296 -51.129773 
L 244.506702 -51.129773 
L 243.564108 -51.129773 
L 242.621513 -51.129773 
L 241.678919 -51.129773 
L 240.736325 -51.129773 
L 239.79373 -51.129773 
L 238.851136 -51.129773 
L 237.908542 -51.129773 
L 236.965948 -51.129773 
L 236.023353 -51.129773 
L 235.080759 -51.129773 
L 234.138165 -51.129773 
L 233.19557 -51.129773 
L 232.252976 -51.129773 
L 231.310382 -51.129773 
L 230.367788 -51.129773 
L 229.425193 -51.129773 
L 228.482599 -51.129773 
L 227.540005 -51.129773 
L 226.597411 -51.129773 
L 225.654816 -51.129773 
L 224.712222 -51.129773 
L 223.769628 -51.129773 
L 222.827033 -51.129773 
L 221.884439 -51.129773 
L 220.941845 -51.129773 
L 219.999251 -51.129773 
L 219.056656 -51.129773 
L 218.114062 -51.129773 
L 217.171468 -51.129773 
L 216.228873 -51.129773 
L 215.286279 -51.129773 
L 214.343685 -51.129773 
L 213.401091 -51.129773 
L 212.458496 -51.129773 
L 211.515902 -51.129773 
L 210.573308 -51.129773 
L 209.630713 -51.129773 
L 208.688119 -51.129773 
L 207.745525 -51.129773 
L 206.802931 -51.129773 
L 205.860336 -51.129773 
L 204.917742 -51.129773 
L 203.975148 -51.129773 
L 203.032554 -51.129773 
L 202.089959 -51.129773 
L 201.147365 -51.129773 
L 200.204771 -51.129773 
L 199.262176 -51.129773 
L 198.319582 -51.129773 
L 197.376988 -51.129773 
L 196.434394 -51.129773 
L 195.491799 -51.129773 
L 194.549205 -51.129773 
L 193.606611 -51.129773 
L 192.664016 -51.129773 
L 191.721422 -51.129773 
L 190.778828 -51.129773 
L 189.836234 -51.129773 
L 188.893639 -51.129773 
L 187.951045 -51.129773 
L 187.008451 -51.129773 
L 186.065856 -51.129773 
L 185.123262 -51.129773 
L 184.180668 -51.129773 
L 183.238074 -51.129773 
L 182.295479 -51.129773 
L 181.352885 -51.129773 
L 180.410291 -51.129773 
L 179.467697 -51.129773 
L 178.525102 -51.129773 
L 177.582508 -51.129773 
L 176.639914 -51.129773 
L 175.697319 -51.129773 
L 174.754725 -51.129773 
L 173.812131 -51.129773 
L 172.869537 -51.129773 
L 171.926942 -51.129773 
L 170.984348 -51.129773 
L 170.041754 -51.129773 
L 169.099159 -51.129773 
L 168.156565 -51.129773 
L 167.213971 -51.129773 
L 166.271377 -51.129773 
L 165.328782 -51.129773 
L 164.386188 -51.129773 
L 163.443594 -51.129773 
L 162.500999 -51.129773 
L 161.558405 -51.129773 
L 160.615811 -51.129773 
L 159.673217 -51.129773 
L 158.730622 -51.129773 
L 157.788028 -51.129773 
L 156.845434 -51.129773 
L 155.90284 -51.129773 
L 154.960245 -51.129773 
L 154.017651 -51.129773 
L 153.075057 -51.129773 
L 152.132462 -51.129773 
L 151.189868 -51.129773 
L 150.247274 -51.129773 
L 149.30468 -51.129773 
L 148.362085 -51.129773 
L 147.419491 -51.129773 
L 146.476897 -51.129773 
L 145.534302 -51.129773 
L 144.591708 -51.129773 
L 143.649114 -51.129773 
L 142.70652 -51.129773 
L 141.763925 -51.129773 
L 140.821331 -51.129773 
L 139.878737 -51.129773 
L 138.936143 -51.129773 
L 137.993548 -51.129773 
L 137.050954 -51.129773 
L 136.10836 -51.129773 
L 135.165765 -51.129773 
L 134.223171 -51.129773 
L 133.280577 -51.129773 
L 132.337983 -51.129773 
L 131.395388 -51.129773 
L 130.452794 -51.129773 
L 129.5102 -51.129773 
L 128.567605 -51.129773 
L 127.625011 -51.129773 
L 126.682417 -51.129773 
L 125.739823 -51.129773 
L 124.797228 -51.129773 
L 123.854634 -51.129773 
L 122.91204 -51.129773 
L 121.969445 -51.129773 
L 121.026851 -51.129773 
L 120.084257 -51.129773 
L 119.141663 -51.129773 
L 118.199068 -51.129773 
L 117.256474 -51.129773 
L 116.31388 -51.129773 
L 115.371286 -51.129773 
L 114.428691 -51.129773 
L 113.486097 -51.129773 
L 112.543503 -51.129773 
L 111.600908 -51.129773 
L 110.658314 -51.129773 
L 109.71572 -51.129773 
L 108.773126 -51.129773 
L 107.830531 -51.129773 
L 106.887937 -51.129773 
L 105.945343 -51.129773 
L 105.002748 -51.129773 
L 104.060154 -51.129773 
L 103.11756 -51.129773 
L 102.174966 -51.129773 
L 101.232371 -51.129773 
L 100.289777 -51.129773 
L 99.347183 -51.129773 
L 98.404588 -51.129773 
L 97.461994 -51.129773 
L 96.5194 -51.129773 
L 95.576806 -51.129773 
L 94.634211 -51.129773 
L 93.691617 -51.129773 
L 92.749023 -51.129773 
L 91.806429 -51.129773 
L 90.863834 -51.129773 
L 89.92124 -51.129773 
L 88.978646 -51.129773 
L 88.036051 -51.129773 
L 87.093457 -51.129773 
L 86.150863 -51.129773 
L 85.208269 -51.129773 
L 84.265674 -51.129773 
L 83.32308 -51.129773 
L 82.380486 -51.129773 
L 81.437891 -51.129773 
L 80.495297 -51.129773 
L 79.552703 -51.129773 
L 78.610109 -51.129773 
L 77.667514 -51.129773 
L 76.72492 -51.129773 
L 75.782326 -51.129773 
L 74.839732 -51.129773 
L 73.897137 -51.129773 
L 72.954543 -51.129773 
L 72.011949 -51.129773 
L 71.069354 -51.129773 
L 70.12676 -51.129773 
L 69.184166 -51.129773 
L 68.241572 -51.129773 
L 67.298977 -51.129773 
z
" style="stroke: #0000ff; stroke-opacity: 0.2"/>
    </defs>
    <g clip-path="url(#p6269ee0b84)">
     <use xlink:href="#mf891ac415b" x="0" y="352.65125" style="fill: #0000ff; fill-opacity: 0.2; stroke: #0000ff; stroke-opacity: 0.2"/>
    </g>
   </g>
   <g id="matplotlib.axis_1">
    <g id="xtick_1">
     <g id="line2d_1">
      <path d="M 60.793465 314.816875 
L 60.793465 22.318125 
" clip-path="url(#p6269ee0b84)" style="fill: none; stroke: #b0b0b0; stroke-width: 0.8; stroke-linecap: square"/>
     </g>
     <g id="line2d_2">
      <defs>
       <path id="m03873ff4c5" d="M 0 0 
L 0 3.5 
" style="stroke: #000000; stroke-width: 0.8"/>
      </defs>
      <g>
       <use xlink:href="#m03873ff4c5" x="60.793465" y="314.816875" style="stroke: #000000; stroke-width: 0.8"/>
      </g>
     </g>
     <g id="text_1">
      <!-- 0.0 -->
      <g transform="translate(52.841902 329.415313) scale(0.1 -0.1)">
       <defs>
        <path id="DejaVuSans-30" d="M 2034 4250 
Q 1547 4250 1301 3770 
Q 1056 3291 1056 2328 
Q 1056 1369 1301 889 
Q 1547 409 2034 409 
Q 2525 409 2770 889 
Q 3016 1369 3016 2328 
Q 3016 3291 2770 3770 
Q 2525 4250 2034 4250 
z
M 2034 4750 
Q 2819 4750 3233 4129 
Q 3647 3509 3647 2328 
Q 3647 1150 3233 529 
Q 2819 -91 2034 -91 
Q 1250 -91 836 529 
Q 422 1150 422 2328 
Q 422 3509 836 4129 
Q 1250 4750 2034 4750 
z
" transform="scale(0.015625)"/>
        <path id="DejaVuSans-2e" d="M 684 794 
L 1344 794 
L 1344 0 
L 684 0 
L 684 794 
z
" transform="scale(0.015625)"/>
       </defs>
       <use xlink:href="#DejaVuSans-30"/>
       <use xlink:href="#DejaVuSans-2e" x="63.623047"/>
       <use xlink:href="#DejaVuSans-30" x="95.410156"/>
      </g>
     </g>
    </g>
    <g id="xtick_2">
     <g id="line2d_3">
      <path d="M 156.520108 314.816875 
L 156.520108 22.318125 
" clip-path="url(#p6269ee0b84)" style="fill: none; stroke: #b0b0b0; stroke-width: 0.8; stroke-linecap: square"/>
     </g>
     <g id="line2d_4">
      <g>
       <use xlink:href="#m03873ff4c5" x="156.520108" y="314.816875" style="stroke: #000000; stroke-width: 0.8"/>
      </g>
     </g>
     <g id="text_2">
      <!-- 0.2 -->
      <g transform="translate(148.568545 329.415313) scale(0.1 -0.1)">
       <defs>
        <path id="DejaVuSans-32" d="M 1228 531 
L 3431 531 
L 3431 0 
L 469 0 
L 469 531 
Q 828 903 1448 1529 
Q 2069 2156 2228 2338 
Q 2531 2678 2651 2914 
Q 2772 3150 2772 3378 
Q 2772 3750 2511 3984 
Q 2250 4219 1831 4219 
Q 1534 4219 1204 4116 
Q 875 4013 500 3803 
L 500 4441 
Q 881 4594 1212 4672 
Q 1544 4750 1819 4750 
Q 2544 4750 2975 4387 
Q 3406 4025 3406 3419 
Q 3406 3131 3298 2873 
Q 3191 2616 2906 2266 
Q 2828 2175 2409 1742 
Q 1991 1309 1228 531 
z
" transform="scale(0.015625)"/>
       </defs>
       <use xlink:href="#DejaVuSans-30"/>
       <use xlink:href="#DejaVuSans-2e" x="63.623047"/>
       <use xlink:href="#DejaVuSans-32" x="95.410156"/>
      </g>
     </g>
    </g>
    <g id="xtick_3">
     <g id="line2d_5">
      <path d="M 252.246751 314.816875 
L 252.246751 22.318125 
" clip-path="url(#p6269ee0b84)" style="fill: none; stroke: #b0b0b0; stroke-width: 0.8; stroke-linecap: square"/>
     </g>
     <g id="line2d_6">
      <g>
       <use xlink:href="#m03873ff4c5" x="252.246751" y="314.816875" style="stroke: #000000; stroke-width: 0.8"/>
      </g>
     </g>
     <g id="text_3">
      <!-- 0.4 -->
      <g transform="translate(244.295188 329.415313) scale(0.1 -0.1)">
       <defs>
        <path id="DejaVuSans-34" d="M 2419 4116 
L 825 1625 
L 2419 1625 
L 2419 4116 
z
M 2253 4666 
L 3047 4666 
L 3047 1625 
L 3713 1625 
L 3713 1100 
L 3047 1100 
L 3047 0 
L 2419 0 
L 2419 1100 
L 313 1100 
L 313 1709 
L 2253 4666 
z
" transform="scale(0.015625)"/>
       </defs>
       <use xlink:href="#DejaVuSans-30"/>
       <use xlink:href="#DejaVuSans-2e" x="63.623047"/>
       <use xlink:href="#DejaVuSans-34" x="95.410156"/>
      </g>
     </g>
    </g>
    <g id="xtick_4">
     <g id="line2d_7">
      <path d="M 347.973394 314.816875 
L 347.973394 22.318125 
" clip-path="url(#p6269ee0b84)" style="fill: none; stroke: #b0b0b0; stroke-width: 0.8; stroke-linecap: square"/>
     </g>
     <g id="line2d_8">
      <g>
       <use xlink:href="#m03873ff4c5" x="347.973394" y="314.816875" style="stroke: #000000; stroke-width: 0.8"/>
      </g>
     </g>
     <g id="text_4">
      <!-- 0.6 -->
      <g transform="translate(340.021831 329.415313) scale(0.1 -0.1)">
       <defs>
        <path id="DejaVuSans-36" d="M 2113 2584 
Q 1688 2584 1439 2293 
Q 1191 2003 1191 1497 
Q 1191 994 1439 701 
Q 1688 409 2113 409 
Q 2538 409 2786 701 
Q 3034 994 3034 1497 
Q 3034 2003 2786 2293 
Q 2538 2584 2113 2584 
z
M 3366 4563 
L 3366 3988 
Q 3128 4100 2886 4159 
Q 2644 4219 2406 4219 
Q 1781 4219 1451 3797 
Q 1122 3375 1075 2522 
Q 1259 2794 1537 2939 
Q 1816 3084 2150 3084 
Q 2853 3084 3261 2657 
Q 3669 2231 3669 1497 
Q 3669 778 3244 343 
Q 2819 -91 2113 -91 
Q 1303 -91 875 529 
Q 447 1150 447 2328 
Q 447 3434 972 4092 
Q 1497 4750 2381 4750 
Q 2619 4750 2861 4703 
Q 3103 4656 3366 4563 
z
" transform="scale(0.015625)"/>
       </defs>
       <use xlink:href="#DejaVuSans-30"/>
       <use xlink:href="#DejaVuSans-2e" x="63.623047"/>
       <use xlink:href="#DejaVuSans-36" x="95.410156"/>
      </g>
     </g>
    </g>
    <g id="xtick_5">
     <g id="line2d_9">
      <path d="M 443.700037 314.816875 
L 443.700037 22.318125 
" clip-path="url(#p6269ee0b84)" style="fill: none; stroke: #b0b0b0; stroke-width: 0.8; stroke-linecap: square"/>
     </g>
     <g id="line2d_10">
      <g>
       <use xlink:href="#m03873ff4c5" x="443.700037" y="314.816875" style="stroke: #000000; stroke-width: 0.8"/>
      </g>
     </g>
     <g id="text_5">
      <!-- 0.8 -->
      <g transform="translate(435.748475 329.415313) scale(0.1 -0.1)">
       <defs>
        <path id="DejaVuSans-38" d="M 2034 2216 
Q 1584 2216 1326 1975 
Q 1069 1734 1069 1313 
Q 1069 891 1326 650 
Q 1584 409 2034 409 
Q 2484 409 2743 651 
Q 3003 894 3003 1313 
Q 3003 1734 2745 1975 
Q 2488 2216 2034 2216 
z
M 1403 2484 
Q 997 2584 770 2862 
Q 544 3141 544 3541 
Q 544 4100 942 4425 
Q 1341 4750 2034 4750 
Q 2731 4750 3128 4425 
Q 3525 4100 3525 3541 
Q 3525 3141 3298 2862 
Q 3072 2584 2669 2484 
Q 3125 2378 3379 2068 
Q 3634 1759 3634 1313 
Q 3634 634 3220 271 
Q 2806 -91 2034 -91 
Q 1263 -91 848 271 
Q 434 634 434 1313 
Q 434 1759 690 2068 
Q 947 2378 1403 2484 
z
M 1172 3481 
Q 1172 3119 1398 2916 
Q 1625 2713 2034 2713 
Q 2441 2713 2670 2916 
Q 2900 3119 2900 3481 
Q 2900 3844 2670 4047 
Q 2441 4250 2034 4250 
Q 1625 4250 1398 4047 
Q 1172 3844 1172 3481 
z
" transform="scale(0.015625)"/>
       </defs>
       <use xlink:href="#DejaVuSans-30"/>
       <use xlink:href="#DejaVuSans-2e" x="63.623047"/>
       <use xlink:href="#DejaVuSans-38" x="95.410156"/>
      </g>
     </g>
    </g>
    <g id="xtick_6">
     <g id="line2d_11">
      <path d="M 539.42668 314.816875 
L 539.42668 22.318125 
" clip-path="url(#p6269ee0b84)" style="fill: none; stroke: #b0b0b0; stroke-width: 0.8; stroke-linecap: square"/>
     </g>
     <g id="line2d_12">
      <g>
       <use xlink:href="#m03873ff4c5" x="539.42668" y="314.816875" style="stroke: #000000; stroke-width: 0.8"/>
      </g>
     </g>
     <g id="text_6">
      <!-- 1.0 -->
      <g transform="translate(531.475118 329.415313) scale(0.1 -0.1)">
       <defs>
        <path id="DejaVuSans-31" d="M 794 531 
L 1825 531 
L 1825 4091 
L 703 3866 
L 703 4441 
L 1819 4666 
L 2450 4666 
L 2450 531 
L 3481 531 
L 3481 0 
L 794 0 
L 794 531 
z
" transform="scale(0.015625)"/>
       </defs>
       <use xlink:href="#DejaVuSans-31"/>
       <use xlink:href="#DejaVuSans-2e" x="63.623047"/>
       <use xlink:href="#DejaVuSans-30" x="95.410156"/>
      </g>
     </g>
    </g>
    <g id="text_7">
     <!-- fB_score -->
     <g transform="translate(281.352812 343.093437) scale(0.1 -0.1)">
      <defs>
       <path id="DejaVuSans-66" d="M 2375 4863 
L 2375 4384 
L 1825 4384 
Q 1516 4384 1395 4259 
Q 1275 4134 1275 3809 
L 1275 3500 
L 2222 3500 
L 2222 3053 
L 1275 3053 
L 1275 0 
L 697 0 
L 697 3053 
L 147 3053 
L 147 3500 
L 697 3500 
L 697 3744 
Q 697 4328 969 4595 
Q 1241 4863 1831 4863 
L 2375 4863 
z
" transform="scale(0.015625)"/>
       <path id="DejaVuSans-42" d="M 1259 2228 
L 1259 519 
L 2272 519 
Q 2781 519 3026 730 
Q 3272 941 3272 1375 
Q 3272 1813 3026 2020 
Q 2781 2228 2272 2228 
L 1259 2228 
z
M 1259 4147 
L 1259 2741 
L 2194 2741 
Q 2656 2741 2882 2914 
Q 3109 3088 3109 3444 
Q 3109 3797 2882 3972 
Q 2656 4147 2194 4147 
L 1259 4147 
z
M 628 4666 
L 2241 4666 
Q 2963 4666 3353 4366 
Q 3744 4066 3744 3513 
Q 3744 3084 3544 2831 
Q 3344 2578 2956 2516 
Q 3422 2416 3680 2098 
Q 3938 1781 3938 1306 
Q 3938 681 3513 340 
Q 3088 0 2303 0 
L 628 0 
L 628 4666 
z
" transform="scale(0.015625)"/>
       <path id="DejaVuSans-5f" d="M 3263 -1063 
L 3263 -1509 
L -63 -1509 
L -63 -1063 
L 3263 -1063 
z
" transform="scale(0.015625)"/>
       <path id="DejaVuSans-73" d="M 2834 3397 
L 2834 2853 
Q 2591 2978 2328 3040 
Q 2066 3103 1784 3103 
Q 1356 3103 1142 2972 
Q 928 2841 928 2578 
Q 928 2378 1081 2264 
Q 1234 2150 1697 2047 
L 1894 2003 
Q 2506 1872 2764 1633 
Q 3022 1394 3022 966 
Q 3022 478 2636 193 
Q 2250 -91 1575 -91 
Q 1294 -91 989 -36 
Q 684 19 347 128 
L 347 722 
Q 666 556 975 473 
Q 1284 391 1588 391 
Q 1994 391 2212 530 
Q 2431 669 2431 922 
Q 2431 1156 2273 1281 
Q 2116 1406 1581 1522 
L 1381 1569 
Q 847 1681 609 1914 
Q 372 2147 372 2553 
Q 372 3047 722 3315 
Q 1072 3584 1716 3584 
Q 2034 3584 2315 3537 
Q 2597 3491 2834 3397 
z
" transform="scale(0.015625)"/>
       <path id="DejaVuSans-63" d="M 3122 3366 
L 3122 2828 
Q 2878 2963 2633 3030 
Q 2388 3097 2138 3097 
Q 1578 3097 1268 2742 
Q 959 2388 959 1747 
Q 959 1106 1268 751 
Q 1578 397 2138 397 
Q 2388 397 2633 464 
Q 2878 531 3122 666 
L 3122 134 
Q 2881 22 2623 -34 
Q 2366 -91 2075 -91 
Q 1284 -91 818 406 
Q 353 903 353 1747 
Q 353 2603 823 3093 
Q 1294 3584 2113 3584 
Q 2378 3584 2631 3529 
Q 2884 3475 3122 3366 
z
" transform="scale(0.015625)"/>
       <path id="DejaVuSans-6f" d="M 1959 3097 
Q 1497 3097 1228 2736 
Q 959 2375 959 1747 
Q 959 1119 1226 758 
Q 1494 397 1959 397 
Q 2419 397 2687 759 
Q 2956 1122 2956 1747 
Q 2956 2369 2687 2733 
Q 2419 3097 1959 3097 
z
M 1959 3584 
Q 2709 3584 3137 3096 
Q 3566 2609 3566 1747 
Q 3566 888 3137 398 
Q 2709 -91 1959 -91 
Q 1206 -91 779 398 
Q 353 888 353 1747 
Q 353 2609 779 3096 
Q 1206 3584 1959 3584 
z
" transform="scale(0.015625)"/>
       <path id="DejaVuSans-72" d="M 2631 2963 
Q 2534 3019 2420 3045 
Q 2306 3072 2169 3072 
Q 1681 3072 1420 2755 
Q 1159 2438 1159 1844 
L 1159 0 
L 581 0 
L 581 3500 
L 1159 3500 
L 1159 2956 
Q 1341 3275 1631 3429 
Q 1922 3584 2338 3584 
Q 2397 3584 2469 3576 
Q 2541 3569 2628 3553 
L 2631 2963 
z
" transform="scale(0.015625)"/>
       <path id="DejaVuSans-65" d="M 3597 1894 
L 3597 1613 
L 953 1613 
Q 991 1019 1311 708 
Q 1631 397 2203 397 
Q 2534 397 2845 478 
Q 3156 559 3463 722 
L 3463 178 
Q 3153 47 2828 -22 
Q 2503 -91 2169 -91 
Q 1331 -91 842 396 
Q 353 884 353 1716 
Q 353 2575 817 3079 
Q 1281 3584 2069 3584 
Q 2775 3584 3186 3129 
Q 3597 2675 3597 1894 
z
M 3022 2063 
Q 3016 2534 2758 2815 
Q 2500 3097 2075 3097 
Q 1594 3097 1305 2825 
Q 1016 2553 972 2059 
L 3022 2063 
z
" transform="scale(0.015625)"/>
      </defs>
      <use xlink:href="#DejaVuSans-66"/>
      <use xlink:href="#DejaVuSans-42" x="35.205078"/>
      <use xlink:href="#DejaVuSans-5f" x="103.808594"/>
      <use xlink:href="#DejaVuSans-73" x="153.808594"/>
      <use xlink:href="#DejaVuSans-63" x="205.908203"/>
      <use xlink:href="#DejaVuSans-6f" x="260.888672"/>
      <use xlink:href="#DejaVuSans-72" x="322.070312"/>
      <use xlink:href="#DejaVuSans-65" x="360.933594"/>
     </g>
    </g>
   </g>
   <g id="matplotlib.axis_2">
    <g id="ytick_1">
     <g id="line2d_13">
      <path d="M 43.78125 301.521477 
L 561.17125 301.521477 
" clip-path="url(#p6269ee0b84)" style="fill: none; stroke: #b0b0b0; stroke-width: 0.8; stroke-linecap: square"/>
     </g>
     <g id="line2d_14">
      <defs>
       <path id="m6cc34654b6" d="M 0 0 
L -3.5 0 
" style="stroke: #000000; stroke-width: 0.8"/>
      </defs>
      <g>
       <use xlink:href="#m6cc34654b6" x="43.78125" y="301.521477" style="stroke: #000000; stroke-width: 0.8"/>
      </g>
     </g>
     <g id="text_8">
      <!-- 0.0 -->
      <g transform="translate(20.878125 305.320696) scale(0.1 -0.1)">
       <use xlink:href="#DejaVuSans-30"/>
       <use xlink:href="#DejaVuSans-2e" x="63.623047"/>
       <use xlink:href="#DejaVuSans-30" x="95.410156"/>
      </g>
     </g>
    </g>
    <g id="ytick_2">
     <g id="line2d_15">
      <path d="M 43.78125 252.567501 
L 561.17125 252.567501 
" clip-path="url(#p6269ee0b84)" style="fill: none; stroke: #b0b0b0; stroke-width: 0.8; stroke-linecap: square"/>
     </g>
     <g id="line2d_16">
      <g>
       <use xlink:href="#m6cc34654b6" x="43.78125" y="252.567501" style="stroke: #000000; stroke-width: 0.8"/>
      </g>
     </g>
     <g id="text_9">
      <!-- 0.5 -->
      <g transform="translate(20.878125 256.36672) scale(0.1 -0.1)">
       <defs>
        <path id="DejaVuSans-35" d="M 691 4666 
L 3169 4666 
L 3169 4134 
L 1269 4134 
L 1269 2991 
Q 1406 3038 1543 3061 
Q 1681 3084 1819 3084 
Q 2600 3084 3056 2656 
Q 3513 2228 3513 1497 
Q 3513 744 3044 326 
Q 2575 -91 1722 -91 
Q 1428 -91 1123 -41 
Q 819 9 494 109 
L 494 744 
Q 775 591 1075 516 
Q 1375 441 1709 441 
Q 2250 441 2565 725 
Q 2881 1009 2881 1497 
Q 2881 1984 2565 2268 
Q 2250 2553 1709 2553 
Q 1456 2553 1204 2497 
Q 953 2441 691 2322 
L 691 4666 
z
" transform="scale(0.015625)"/>
       </defs>
       <use xlink:href="#DejaVuSans-30"/>
       <use xlink:href="#DejaVuSans-2e" x="63.623047"/>
       <use xlink:href="#DejaVuSans-35" x="95.410156"/>
      </g>
     </g>
    </g>
    <g id="ytick_3">
     <g id="line2d_17">
      <path d="M 43.78125 203.613525 
L 561.17125 203.613525 
" clip-path="url(#p6269ee0b84)" style="fill: none; stroke: #b0b0b0; stroke-width: 0.8; stroke-linecap: square"/>
     </g>
     <g id="line2d_18">
      <g>
       <use xlink:href="#m6cc34654b6" x="43.78125" y="203.613525" style="stroke: #000000; stroke-width: 0.8"/>
      </g>
     </g>
     <g id="text_10">
      <!-- 1.0 -->
      <g transform="translate(20.878125 207.412744) scale(0.1 -0.1)">
       <use xlink:href="#DejaVuSans-31"/>
       <use xlink:href="#DejaVuSans-2e" x="63.623047"/>
       <use xlink:href="#DejaVuSans-30" x="95.410156"/>
      </g>
     </g>
    </g>
    <g id="ytick_4">
     <g id="line2d_19">
      <path d="M 43.78125 154.65955 
L 561.17125 154.65955 
" clip-path="url(#p6269ee0b84)" style="fill: none; stroke: #b0b0b0; stroke-width: 0.8; stroke-linecap: square"/>
     </g>
     <g id="line2d_20">
      <g>
       <use xlink:href="#m6cc34654b6" x="43.78125" y="154.65955" style="stroke: #000000; stroke-width: 0.8"/>
      </g>
     </g>
     <g id="text_11">
      <!-- 1.5 -->
      <g transform="translate(20.878125 158.458768) scale(0.1 -0.1)">
       <use xlink:href="#DejaVuSans-31"/>
       <use xlink:href="#DejaVuSans-2e" x="63.623047"/>
       <use xlink:href="#DejaVuSans-35" x="95.410156"/>
      </g>
     </g>
    </g>
    <g id="ytick_5">
     <g id="line2d_21">
      <path d="M 43.78125 105.705574 
L 561.17125 105.705574 
" clip-path="url(#p6269ee0b84)" style="fill: none; stroke: #b0b0b0; stroke-width: 0.8; stroke-linecap: square"/>
     </g>
     <g id="line2d_22">
      <g>
       <use xlink:href="#m6cc34654b6" x="43.78125" y="105.705574" style="stroke: #000000; stroke-width: 0.8"/>
      </g>
     </g>
     <g id="text_12">
      <!-- 2.0 -->
      <g transform="translate(20.878125 109.504792) scale(0.1 -0.1)">
       <use xlink:href="#DejaVuSans-32"/>
       <use xlink:href="#DejaVuSans-2e" x="63.623047"/>
       <use xlink:href="#DejaVuSans-30" x="95.410156"/>
      </g>
     </g>
    </g>
    <g id="ytick_6">
     <g id="line2d_23">
      <path d="M 43.78125 56.751598 
L 561.17125 56.751598 
" clip-path="url(#p6269ee0b84)" style="fill: none; stroke: #b0b0b0; stroke-width: 0.8; stroke-linecap: square"/>
     </g>
     <g id="line2d_24">
      <g>
       <use xlink:href="#m6cc34654b6" x="43.78125" y="56.751598" style="stroke: #000000; stroke-width: 0.8"/>
      </g>
     </g>
     <g id="text_13">
      <!-- 2.5 -->
      <g transform="translate(20.878125 60.550816) scale(0.1 -0.1)">
       <use xlink:href="#DejaVuSans-32"/>
       <use xlink:href="#DejaVuSans-2e" x="63.623047"/>
       <use xlink:href="#DejaVuSans-35" x="95.410156"/>
      </g>
     </g>
    </g>
    <g id="text_14">
     <!-- Density -->
     <g transform="translate(14.798438 187.576094) rotate(-90) scale(0.1 -0.1)">
      <defs>
       <path id="DejaVuSans-44" d="M 1259 4147 
L 1259 519 
L 2022 519 
Q 2988 519 3436 956 
Q 3884 1394 3884 2338 
Q 3884 3275 3436 3711 
Q 2988 4147 2022 4147 
L 1259 4147 
z
M 628 4666 
L 1925 4666 
Q 3281 4666 3915 4102 
Q 4550 3538 4550 2338 
Q 4550 1131 3912 565 
Q 3275 0 1925 0 
L 628 0 
L 628 4666 
z
" transform="scale(0.015625)"/>
       <path id="DejaVuSans-6e" d="M 3513 2113 
L 3513 0 
L 2938 0 
L 2938 2094 
Q 2938 2591 2744 2837 
Q 2550 3084 2163 3084 
Q 1697 3084 1428 2787 
Q 1159 2491 1159 1978 
L 1159 0 
L 581 0 
L 581 3500 
L 1159 3500 
L 1159 2956 
Q 1366 3272 1645 3428 
Q 1925 3584 2291 3584 
Q 2894 3584 3203 3211 
Q 3513 2838 3513 2113 
z
" transform="scale(0.015625)"/>
       <path id="DejaVuSans-69" d="M 603 3500 
L 1178 3500 
L 1178 0 
L 603 0 
L 603 3500 
z
M 603 4863 
L 1178 4863 
L 1178 4134 
L 603 4134 
L 603 4863 
z
" transform="scale(0.015625)"/>
       <path id="DejaVuSans-74" d="M 1172 4494 
L 1172 3500 
L 2356 3500 
L 2356 3053 
L 1172 3053 
L 1172 1153 
Q 1172 725 1289 603 
Q 1406 481 1766 481 
L 2356 481 
L 2356 0 
L 1766 0 
Q 1100 0 847 248 
Q 594 497 594 1153 
L 594 3053 
L 172 3053 
L 172 3500 
L 594 3500 
L 594 4494 
L 1172 4494 
z
" transform="scale(0.015625)"/>
       <path id="DejaVuSans-79" d="M 2059 -325 
Q 1816 -950 1584 -1140 
Q 1353 -1331 966 -1331 
L 506 -1331 
L 506 -850 
L 844 -850 
Q 1081 -850 1212 -737 
Q 1344 -625 1503 -206 
L 1606 56 
L 191 3500 
L 800 3500 
L 1894 763 
L 2988 3500 
L 3597 3500 
L 2059 -325 
z
" transform="scale(0.015625)"/>
      </defs>
      <use xlink:href="#DejaVuSans-44"/>
      <use xlink:href="#DejaVuSans-65" x="77.001953"/>
      <use xlink:href="#DejaVuSans-6e" x="138.525391"/>
      <use xlink:href="#DejaVuSans-73" x="201.904297"/>
      <use xlink:href="#DejaVuSans-69" x="254.003906"/>
      <use xlink:href="#DejaVuSans-74" x="281.787109"/>
      <use xlink:href="#DejaVuSans-79" x="320.996094"/>
     </g>
    </g>
   </g>
   <g id="line2d_25">
    <path d="M 67.298977 301.177128 
L 77.667514 300.791094 
L 85.208269 300.308902 
L 91.806429 299.682846 
L 97.461994 298.946778 
L 103.11756 297.981751 
L 107.830531 296.970361 
L 112.543503 295.743122 
L 117.256474 294.275963 
L 121.969445 292.548132 
L 126.682417 290.544009 
L 131.395388 288.254985 
L 136.10836 285.681278 
L 140.821331 282.833526 
L 145.534302 279.734005 
L 151.189868 275.731818 
L 157.788028 270.780222 
L 174.754725 257.899399 
L 179.467697 254.638848 
L 184.180668 251.659185 
L 187.951045 249.521454 
L 191.721422 247.631783 
L 195.491799 246.009938 
L 199.262176 244.667619 
L 203.032554 243.607662 
L 206.802931 242.82354 
L 210.573308 242.299229 
L 214.343685 242.009435 
L 218.114062 241.92021 
L 222.827033 242.026677 
L 230.367788 242.471698 
L 237.908542 242.869431 
L 242.621513 242.89565 
L 246.39189 242.710839 
L 250.162267 242.294383 
L 253.932645 241.60895 
L 256.760427 240.900633 
L 259.58821 240.015751 
L 262.415993 238.948491 
L 265.243776 237.696051 
L 269.014153 235.738704 
L 272.78453 233.460567 
L 276.554907 230.877187 
L 280.325284 228.010357 
L 284.095662 224.886405 
L 288.808633 220.664069 
L 293.521604 216.142628 
L 299.17717 210.396217 
L 305.77533 203.339821 
L 312.37349 195.966147 
L 318.97165 188.283616 
L 325.56981 180.249102 
L 331.225376 173.025923 
L 336.880941 165.439436 
L 342.536507 157.453044 
L 348.192073 149.057384 
L 353.847638 140.281396 
L 361.388392 128.123413 
L 377.412495 102.063247 
L 382.125467 94.863059 
L 385.895844 89.429119 
L 389.666221 84.366815 
L 393.436598 79.750832 
L 396.264381 76.625393 
L 399.092164 73.820943 
L 401.919946 71.365068 
L 404.747729 69.28345 
L 406.632918 68.115314 
L 408.518106 67.130341 
L 410.403295 66.334343 
L 412.288484 65.732567 
L 414.173672 65.329664 
L 416.058861 65.129654 
L 417.944049 65.135908 
L 419.829238 65.35112 
L 421.714426 65.777285 
L 423.599615 66.415686 
L 425.484803 67.266881 
L 427.369992 68.33069 
L 429.255181 69.606193 
L 431.140369 71.091731 
L 433.025558 72.784906 
L 435.853341 75.706952 
L 438.681123 79.075431 
L 441.508906 82.873322 
L 444.336689 87.080336 
L 447.164472 91.673159 
L 449.992255 96.625749 
L 453.762632 103.739401 
L 457.533009 111.369052 
L 462.24598 121.513344 
L 466.958952 132.185119 
L 473.557112 147.708809 
L 491.466403 190.244626 
L 497.121969 202.986512 
L 501.83494 213.133138 
L 506.547912 222.7749 
L 511.260883 231.856508 
L 515.03126 238.690484 
L 518.801637 245.124601 
L 522.572014 251.149 
L 526.342391 256.758461 
L 530.112768 261.952057 
L 533.883146 266.732824 
L 537.653523 271.107442 
L 537.653523 271.107442 
" clip-path="url(#p6269ee0b84)" style="fill: none; stroke: #ff0000; stroke-opacity: 0.7; stroke-width: 1.5; stroke-linecap: square"/>
   </g>
   <g id="line2d_26">
    <path d="M 67.298977 295.606882 
L 73.897137 293.493564 
L 84.265674 289.851979 
L 94.634211 286.274097 
L 102.174966 283.893397 
L 110.658314 281.460398 
L 120.084257 279.006569 
L 131.395388 276.316239 
L 147.419491 272.763165 
L 159.673217 270.241123 
L 169.099159 268.547933 
L 192.664016 264.529403 
L 198.319582 263.190729 
L 203.032554 261.844484 
L 207.745525 260.259949 
L 212.458496 258.432463 
L 218.114062 255.953313 
L 225.654816 252.336214 
L 234.138165 248.290175 
L 238.851136 246.271541 
L 243.564108 244.52315 
L 247.334485 243.345045 
L 252.047456 242.138539 
L 256.760427 241.169247 
L 271.841936 238.295425 
L 275.612313 237.28154 
L 279.38269 236.040648 
L 283.153067 234.542125 
L 286.923444 232.770043 
L 290.693822 230.720902 
L 294.464199 228.400056 
L 298.234576 225.817469 
L 302.004953 222.983357 
L 305.77533 219.904278 
L 309.545707 216.580131 
L 313.316084 213.002408 
L 317.086461 209.153911 
L 320.856838 205.009852 
L 324.627216 200.54006 
L 328.397593 195.711768 
L 332.16797 190.492416 
L 335.938347 184.852024 
L 339.708724 178.764965 
L 343.479101 172.211293 
L 347.249478 165.178082 
L 351.019855 157.661207 
L 354.790233 149.667867 
L 358.56061 141.219729 
L 363.273581 130.081976 
L 368.929147 116.038258 
L 386.838438 70.859478 
L 390.608815 62.310656 
L 393.436598 56.403137 
L 396.264381 51.037423 
L 398.149569 47.811753 
L 400.034758 44.902821 
L 401.919946 42.340593 
L 403.805135 40.153892 
L 405.690324 38.36969 
L 407.575512 37.012341 
L 409.460701 36.1028 
L 410.403295 35.821386 
L 411.345889 35.65785 
L 412.288484 35.613523 
L 413.231078 35.689386 
L 414.173672 35.886061 
L 415.116266 36.203792 
L 417.001455 37.201462 
L 418.886644 38.676471 
L 420.771832 40.61645 
L 422.657021 43.002664 
L 424.542209 45.810299 
L 426.427398 49.008953 
L 428.312586 52.563318 
L 431.140369 58.474802 
L 433.968152 64.95236 
L 437.738529 74.205672 
L 451.877443 109.821025 
L 455.64782 118.477206 
L 459.418198 126.555133 
L 463.188575 134.057002 
L 466.958952 141.039801 
L 470.729329 147.600271 
L 476.384895 156.916345 
L 488.63862 176.786741 
L 493.351592 184.876507 
L 498.064563 193.388797 
L 502.777534 202.349145 
L 508.4331 213.639463 
L 515.973854 229.304482 
L 525.399797 248.838494 
L 530.112768 258.058989 
L 533.883146 264.95396 
L 537.653523 271.30351 
L 537.653523 271.30351 
" clip-path="url(#p6269ee0b84)" style="fill: none; stroke: #0000ff; stroke-opacity: 0.7; stroke-width: 1.5; stroke-linecap: square"/>
   </g>
   <g id="patch_3">
    <path d="M 43.78125 314.816875 
L 43.78125 22.318125 
" style="fill: none; stroke: #000000; stroke-width: 0.8; stroke-linejoin: miter; stroke-linecap: square"/>
   </g>
   <g id="patch_4">
    <path d="M 561.17125 314.816875 
L 561.17125 22.318125 
" style="fill: none; stroke: #000000; stroke-width: 0.8; stroke-linejoin: miter; stroke-linecap: square"/>
   </g>
   <g id="patch_5">
    <path d="M 43.78125 314.816875 
L 561.17125 314.816875 
" style="fill: none; stroke: #000000; stroke-width: 0.8; stroke-linejoin: miter; stroke-linecap: square"/>
   </g>
   <g id="patch_6">
    <path d="M 43.78125 22.318125 
L 561.17125 22.318125 
" style="fill: none; stroke: #000000; stroke-width: 0.8; stroke-linejoin: miter; stroke-linecap: square"/>
   </g>
   <g id="text_15">
    <!-- Feature Distribution for fB_score -->
    <g transform="translate(205.487187 16.318125) scale(0.12 -0.12)">
     <defs>
      <path id="DejaVuSans-46" d="M 628 4666 
L 3309 4666 
L 3309 4134 
L 1259 4134 
L 1259 2759 
L 3109 2759 
L 3109 2228 
L 1259 2228 
L 1259 0 
L 628 0 
L 628 4666 
z
" transform="scale(0.015625)"/>
      <path id="DejaVuSans-61" d="M 2194 1759 
Q 1497 1759 1228 1600 
Q 959 1441 959 1056 
Q 959 750 1161 570 
Q 1363 391 1709 391 
Q 2188 391 2477 730 
Q 2766 1069 2766 1631 
L 2766 1759 
L 2194 1759 
z
M 3341 1997 
L 3341 0 
L 2766 0 
L 2766 531 
Q 2569 213 2275 61 
Q 1981 -91 1556 -91 
Q 1019 -91 701 211 
Q 384 513 384 1019 
Q 384 1609 779 1909 
Q 1175 2209 1959 2209 
L 2766 2209 
L 2766 2266 
Q 2766 2663 2505 2880 
Q 2244 3097 1772 3097 
Q 1472 3097 1187 3025 
Q 903 2953 641 2809 
L 641 3341 
Q 956 3463 1253 3523 
Q 1550 3584 1831 3584 
Q 2591 3584 2966 3190 
Q 3341 2797 3341 1997 
z
" transform="scale(0.015625)"/>
      <path id="DejaVuSans-75" d="M 544 1381 
L 544 3500 
L 1119 3500 
L 1119 1403 
Q 1119 906 1312 657 
Q 1506 409 1894 409 
Q 2359 409 2629 706 
Q 2900 1003 2900 1516 
L 2900 3500 
L 3475 3500 
L 3475 0 
L 2900 0 
L 2900 538 
Q 2691 219 2414 64 
Q 2138 -91 1772 -91 
Q 1169 -91 856 284 
Q 544 659 544 1381 
z
M 1991 3584 
L 1991 3584 
z
" transform="scale(0.015625)"/>
      <path id="DejaVuSans-20" transform="scale(0.015625)"/>
      <path id="DejaVuSans-62" d="M 3116 1747 
Q 3116 2381 2855 2742 
Q 2594 3103 2138 3103 
Q 1681 3103 1420 2742 
Q 1159 2381 1159 1747 
Q 1159 1113 1420 752 
Q 1681 391 2138 391 
Q 2594 391 2855 752 
Q 3116 1113 3116 1747 
z
M 1159 2969 
Q 1341 3281 1617 3432 
Q 1894 3584 2278 3584 
Q 2916 3584 3314 3078 
Q 3713 2572 3713 1747 
Q 3713 922 3314 415 
Q 2916 -91 2278 -91 
Q 1894 -91 1617 61 
Q 1341 213 1159 525 
L 1159 0 
L 581 0 
L 581 4863 
L 1159 4863 
L 1159 2969 
z
" transform="scale(0.015625)"/>
     </defs>
     <use xlink:href="#DejaVuSans-46"/>
     <use xlink:href="#DejaVuSans-65" x="52.019531"/>
     <use xlink:href="#DejaVuSans-61" x="113.542969"/>
     <use xlink:href="#DejaVuSans-74" x="174.822266"/>
     <use xlink:href="#DejaVuSans-75" x="214.03125"/>
     <use xlink:href="#DejaVuSans-72" x="277.410156"/>
     <use xlink:href="#DejaVuSans-65" x="316.273438"/>
     <use xlink:href="#DejaVuSans-20" x="377.796875"/>
     <use xlink:href="#DejaVuSans-44" x="409.583984"/>
     <use xlink:href="#DejaVuSans-69" x="486.585938"/>
     <use xlink:href="#DejaVuSans-73" x="514.369141"/>
     <use xlink:href="#DejaVuSans-74" x="566.46875"/>
     <use xlink:href="#DejaVuSans-72" x="605.677734"/>
     <use xlink:href="#DejaVuSans-69" x="646.791016"/>
     <use xlink:href="#DejaVuSans-62" x="674.574219"/>
     <use xlink:href="#DejaVuSans-75" x="738.050781"/>
     <use xlink:href="#DejaVuSans-74" x="801.429688"/>
     <use xlink:href="#DejaVuSans-69" x="840.638672"/>
     <use xlink:href="#DejaVuSans-6f" x="868.421875"/>
     <use xlink:href="#DejaVuSans-6e" x="929.603516"/>
     <use xlink:href="#DejaVuSans-20" x="992.982422"/>
     <use xlink:href="#DejaVuSans-66" x="1024.769531"/>
     <use xlink:href="#DejaVuSans-6f" x="1059.974609"/>
     <use xlink:href="#DejaVuSans-72" x="1121.15625"/>
     <use xlink:href="#DejaVuSans-20" x="1162.269531"/>
     <use xlink:href="#DejaVuSans-66" x="1194.056641"/>
     <use xlink:href="#DejaVuSans-42" x="1229.261719"/>
     <use xlink:href="#DejaVuSans-5f" x="1297.865234"/>
     <use xlink:href="#DejaVuSans-73" x="1347.865234"/>
     <use xlink:href="#DejaVuSans-63" x="1399.964844"/>
     <use xlink:href="#DejaVuSans-6f" x="1454.945312"/>
     <use xlink:href="#DejaVuSans-72" x="1516.126953"/>
     <use xlink:href="#DejaVuSans-65" x="1554.990234"/>
    </g>
   </g>
   <g id="legend_1">
    <g id="patch_7">
     <path d="M 447.043125 59.674375 
L 554.17125 59.674375 
Q 556.17125 59.674375 556.17125 57.674375 
L 556.17125 29.318125 
Q 556.17125 27.318125 554.17125 27.318125 
L 447.043125 27.318125 
Q 445.043125 27.318125 445.043125 29.318125 
L 445.043125 57.674375 
Q 445.043125 59.674375 447.043125 59.674375 
z
" style="fill: #ffffff; opacity: 0.8; stroke: #cccccc; stroke-linejoin: miter"/>
    </g>
    <g id="line2d_27">
     <path d="M 449.043125 35.416562 
L 459.043125 35.416562 
L 469.043125 35.416562 
" style="fill: none; stroke: #ff0000; stroke-opacity: 0.7; stroke-width: 1.5; stroke-linecap: square"/>
    </g>
    <g id="text_16">
     <!-- Melanoma -->
     <g transform="translate(477.043125 38.916562) scale(0.1 -0.1)">
      <defs>
       <path id="DejaVuSans-4d" d="M 628 4666 
L 1569 4666 
L 2759 1491 
L 3956 4666 
L 4897 4666 
L 4897 0 
L 4281 0 
L 4281 4097 
L 3078 897 
L 2444 897 
L 1241 4097 
L 1241 0 
L 628 0 
L 628 4666 
z
" transform="scale(0.015625)"/>
       <path id="DejaVuSans-6c" d="M 603 4863 
L 1178 4863 
L 1178 0 
L 603 0 
L 603 4863 
z
" transform="scale(0.015625)"/>
       <path id="DejaVuSans-6d" d="M 3328 2828 
Q 3544 3216 3844 3400 
Q 4144 3584 4550 3584 
Q 5097 3584 5394 3201 
Q 5691 2819 5691 2113 
L 5691 0 
L 5113 0 
L 5113 2094 
Q 5113 2597 4934 2840 
Q 4756 3084 4391 3084 
Q 3944 3084 3684 2787 
Q 3425 2491 3425 1978 
L 3425 0 
L 2847 0 
L 2847 2094 
Q 2847 2600 2669 2842 
Q 2491 3084 2119 3084 
Q 1678 3084 1418 2786 
Q 1159 2488 1159 1978 
L 1159 0 
L 581 0 
L 581 3500 
L 1159 3500 
L 1159 2956 
Q 1356 3278 1631 3431 
Q 1906 3584 2284 3584 
Q 2666 3584 2933 3390 
Q 3200 3197 3328 2828 
z
" transform="scale(0.015625)"/>
      </defs>
      <use xlink:href="#DejaVuSans-4d"/>
      <use xlink:href="#DejaVuSans-65" x="86.279297"/>
      <use xlink:href="#DejaVuSans-6c" x="147.802734"/>
      <use xlink:href="#DejaVuSans-61" x="175.585938"/>
      <use xlink:href="#DejaVuSans-6e" x="236.865234"/>
      <use xlink:href="#DejaVuSans-6f" x="300.244141"/>
      <use xlink:href="#DejaVuSans-6d" x="361.425781"/>
      <use xlink:href="#DejaVuSans-61" x="458.837891"/>
     </g>
    </g>
    <g id="line2d_28">
     <path d="M 449.043125 50.094688 
L 459.043125 50.094688 
L 469.043125 50.094688 
" style="fill: none; stroke: #0000ff; stroke-opacity: 0.7; stroke-width: 1.5; stroke-linecap: square"/>
    </g>
    <g id="text_17">
     <!-- Non Melanoma -->
     <g transform="translate(477.043125 53.594688) scale(0.1 -0.1)">
      <defs>
       <path id="DejaVuSans-4e" d="M 628 4666 
L 1478 4666 
L 3547 763 
L 3547 4666 
L 4159 4666 
L 4159 0 
L 3309 0 
L 1241 3903 
L 1241 0 
L 628 0 
L 628 4666 
z
" transform="scale(0.015625)"/>
      </defs>
      <use xlink:href="#DejaVuSans-4e"/>
      <use xlink:href="#DejaVuSans-6f" x="74.804688"/>
      <use xlink:href="#DejaVuSans-6e" x="135.986328"/>
      <use xlink:href="#DejaVuSans-20" x="199.365234"/>
      <use xlink:href="#DejaVuSans-4d" x="231.152344"/>
      <use xlink:href="#DejaVuSans-65" x="317.431641"/>
      <use xlink:href="#DejaVuSans-6c" x="378.955078"/>
      <use xlink:href="#DejaVuSans-61" x="406.738281"/>
      <use xlink:href="#DejaVuSans-6e" x="468.017578"/>
      <use xlink:href="#DejaVuSans-6f" x="531.396484"/>
      <use xlink:href="#DejaVuSans-6d" x="592.578125"/>
      <use xlink:href="#DejaVuSans-61" x="689.990234"/>
     </g>
    </g>
   </g>
  </g>
 </g>
 <defs>
  <clipPath id="p6269ee0b84">
   <rect x="43.78125" y="22.318125" width="517.39" height="292.49875"/>
  </clipPath>
 </defs>
</svg>
