<?xml version="1.0" encoding="utf-8" standalone="no"?>
<!DOCTYPE svg PUBLIC "-//W3C//DTD SVG 1.1//EN"
  "http://www.w3.org/Graphics/SVG/1.1/DTD/svg11.dtd">
<svg xmlns:xlink="http://www.w3.org/1999/xlink" width="568.37125pt" height="352.65125pt" viewBox="0 0 568.37125 352.65125" xmlns="http://www.w3.org/2000/svg" version="1.1">
 <metadata>
  <rdf:RDF xmlns:dc="http://purl.org/dc/elements/1.1/" xmlns:cc="http://creativecommons.org/ns#" xmlns:rdf="http://www.w3.org/1999/02/22-rdf-syntax-ns#">
   <cc:Work>
    <dc:type rdf:resource="http://purl.org/dc/dcmitype/StillImage"/>
    <dc:date>2025-05-25T15:29:02.916762</dc:date>
    <dc:format>image/svg+xml</dc:format>
    <dc:creator>
     <cc:Agent>
      <dc:title>Matplotlib v3.8.4, https://matplotlib.org/</dc:title>
     </cc:Agent>
    </dc:creator>
   </cc:Work>
  </rdf:RDF>
 </metadata>
 <defs>
  <style type="text/css">*{stroke-linejoin: round; stroke-linecap: butt}</style>
 </defs>
 <g id="figure_1">
  <g id="patch_1">
   <path d="M 0 352.65125 
L 568.37125 352.65125 
L 568.37125 0 
L 0 0 
z
" style="fill: #ffffff"/>
  </g>
  <g id="axes_1">
   <g id="patch_2">
    <path d="M 43.78125 314.816875 
L 561.17125 314.816875 
L 561.17125 22.318125 
L 43.78125 22.318125 
z
" style="fill: #ffffff"/>
   </g>
   <g id="PolyCollection_1">
    <defs>
     <path id="mb486bdc4d4" d="M 67.298977 -51.129773 
L 67.298977 -130.230239 
L 68.241572 -135.019505 
L 69.184166 -139.927807 
L 70.12676 -144.944626 
L 71.069354 -150.058638 
L 72.011949 -155.257791 
L 72.954543 -160.529407 
L 73.897137 -165.860283 
L 74.839732 -171.236808 
L 75.782326 -176.645082 
L 76.72492 -182.071037 
L 77.667514 -187.500568 
L 78.610109 -192.919658 
L 79.552703 -198.3145 
L 80.495297 -203.671619 
L 81.437891 -208.977984 
L 82.380486 -214.221108 
L 83.32308 -219.389143 
L 84.265674 -224.470955 
L 85.208269 -229.456188 
L 86.150863 -234.335312 
L 87.093457 -239.099648 
L 88.036051 -243.741382 
L 88.978646 -248.253555 
L 89.92124 -252.630038 
L 90.863834 -256.865491 
L 91.806429 -260.955299 
L 92.749023 -264.895502 
L 93.691617 -268.682707 
L 94.634211 -272.313988 
L 95.576806 -275.786784 
L 96.5194 -279.098788 
L 97.461994 -282.247835 
L 98.404588 -285.231792 
L 99.347183 -288.048451 
L 100.289777 -290.695433 
L 101.232371 -293.1701 
L 102.174966 -295.469478 
L 103.11756 -297.590205 
L 104.060154 -299.528485 
L 105.002748 -301.280073 
L 105.945343 -302.840273 
L 106.887937 -304.203959 
L 107.830531 -305.365621 
L 108.773126 -306.319427 
L 109.71572 -307.059307 
L 110.658314 -307.579058 
L 111.600908 -307.872456 
L 112.543503 -307.933393 
L 113.486097 -307.756019 
L 114.428691 -307.334884 
L 115.371286 -306.665097 
L 116.31388 -305.742479 
L 117.256474 -304.563705 
L 118.199068 -303.126451 
L 119.141663 -301.429524 
L 120.084257 -299.472975 
L 121.026851 -297.258203 
L 121.969445 -294.788029 
L 122.91204 -292.066763 
L 123.854634 -289.100229 
L 124.797228 -285.895785 
L 125.739823 -282.462303 
L 126.682417 -278.810135 
L 127.625011 -274.951049 
L 128.567605 -270.898144 
L 129.5102 -266.665745 
L 130.452794 -262.269279 
L 131.395388 -257.72513 
L 132.337983 -253.050488 
L 133.280577 -248.263178 
L 134.223171 -243.381489 
L 135.165765 -238.423993 
L 136.10836 -233.409367 
L 137.050954 -228.35621 
L 137.993548 -223.282875 
L 138.936143 -218.207296 
L 139.878737 -213.146835 
L 140.821331 -208.118138 
L 141.763925 -203.136999 
L 142.70652 -198.21825 
L 143.649114 -193.375661 
L 144.591708 -188.621856 
L 145.534302 -183.968255 
L 146.476897 -179.42502 
L 147.419491 -175.001038 
L 148.362085 -170.7039 
L 149.30468 -166.539914 
L 150.247274 -162.514119 
L 151.189868 -158.630328 
L 152.132462 -154.891165 
L 153.075057 -151.298131 
L 154.017651 -147.851668 
L 154.960245 -144.551237 
L 155.90284 -141.395393 
L 156.845434 -138.38188 
L 157.788028 -135.507711 
L 158.730622 -132.769266 
L 159.673217 -130.162374 
L 160.615811 -127.682411 
L 161.558405 -125.324379 
L 162.500999 -123.082992 
L 163.443594 -120.952757 
L 164.386188 -118.928043 
L 165.328782 -117.00315 
L 166.271377 -115.172373 
L 167.213971 -113.430054 
L 168.156565 -111.770631 
L 169.099159 -110.188679 
L 170.041754 -108.678942 
L 170.984348 -107.236366 
L 171.926942 -105.856111 
L 172.869537 -104.533575 
L 173.812131 -103.264396 
L 174.754725 -102.04446 
L 175.697319 -100.869895 
L 176.639914 -99.737073 
L 177.582508 -98.642595 
L 178.525102 -97.583283 
L 179.467697 -96.556164 
L 180.410291 -95.55846 
L 181.352885 -94.587566 
L 182.295479 -93.64104 
L 183.238074 -92.716582 
L 184.180668 -91.812025 
L 185.123262 -90.925319 
L 186.065856 -90.054518 
L 187.008451 -89.197774 
L 187.951045 -88.353327 
L 188.893639 -87.519504 
L 189.836234 -86.694712 
L 190.778828 -85.877441 
L 191.721422 -85.066266 
L 192.664016 -84.25985 
L 193.606611 -83.456951 
L 194.549205 -82.65643 
L 195.491799 -81.857257 
L 196.434394 -81.058523 
L 197.376988 -80.259449 
L 198.319582 -79.459392 
L 199.262176 -78.657858 
L 200.204771 -77.854505 
L 201.147365 -77.049153 
L 202.089959 -76.241787 
L 203.032554 -75.432556 
L 203.975148 -74.62178 
L 204.917742 -73.80994 
L 205.860336 -72.997681 
L 206.802931 -72.185796 
L 207.745525 -71.375226 
L 208.688119 -70.567042 
L 209.630713 -69.76243 
L 210.573308 -68.962683 
L 211.515902 -68.169173 
L 212.458496 -67.383341 
L 213.401091 -66.606674 
L 214.343685 -65.840685 
L 215.286279 -65.08689 
L 216.228873 -64.346796 
L 217.171468 -63.621871 
L 218.114062 -62.913534 
L 219.056656 -62.223133 
L 219.999251 -61.551928 
L 220.941845 -60.901082 
L 221.884439 -60.271644 
L 222.827033 -59.66454 
L 223.769628 -59.080563 
L 224.712222 -58.520373 
L 225.654816 -57.984485 
L 226.597411 -57.473275 
L 227.540005 -56.986973 
L 228.482599 -56.525673 
L 229.425193 -56.089331 
L 230.367788 -55.677776 
L 231.310382 -55.290712 
L 232.252976 -54.927731 
L 233.19557 -54.588321 
L 234.138165 -54.271878 
L 235.080759 -53.977713 
L 236.023353 -53.705067 
L 236.965948 -53.453123 
L 237.908542 -53.221017 
L 238.851136 -53.007845 
L 239.79373 -52.812683 
L 240.736325 -52.634591 
L 241.678919 -52.472625 
L 242.621513 -52.325847 
L 243.564108 -52.193334 
L 244.506702 -52.074186 
L 245.449296 -51.967531 
L 246.39189 -51.872538 
L 247.334485 -51.788415 
L 248.277079 -51.714419 
L 249.219673 -51.649856 
L 250.162267 -51.594091 
L 251.104862 -51.546545 
L 252.047456 -51.506698 
L 252.99005 -51.474093 
L 253.932645 -51.448335 
L 254.875239 -51.429091 
L 255.817833 -51.416092 
L 256.760427 -51.409131 
L 257.703022 -51.408062 
L 258.645616 -51.412799 
L 259.58821 -51.423314 
L 260.530805 -51.439635 
L 261.473399 -51.461844 
L 262.415993 -51.490071 
L 263.358587 -51.524495 
L 264.301182 -51.565338 
L 265.243776 -51.61286 
L 266.18637 -51.667355 
L 267.128965 -51.729146 
L 268.071559 -51.798578 
L 269.014153 -51.876014 
L 269.956747 -51.961829 
L 270.899342 -52.056397 
L 271.841936 -52.16009 
L 272.78453 -52.273269 
L 273.727124 -52.396272 
L 274.669719 -52.529408 
L 275.612313 -52.672949 
L 276.554907 -52.827118 
L 277.497502 -52.992083 
L 278.440096 -53.167948 
L 279.38269 -53.35474 
L 280.325284 -53.552407 
L 281.267879 -53.760804 
L 282.210473 -53.97969 
L 283.153067 -54.208721 
L 284.095662 -54.447442 
L 285.038256 -54.695286 
L 285.98085 -54.95157 
L 286.923444 -55.215491 
L 287.866039 -55.486131 
L 288.808633 -55.762454 
L 289.751227 -56.043312 
L 290.693822 -56.327448 
L 291.636416 -56.613507 
L 292.57901 -56.900039 
L 293.521604 -57.185517 
L 294.464199 -57.468341 
L 295.406793 -57.746858 
L 296.349387 -58.019376 
L 297.291981 -58.284177 
L 298.234576 -58.539541 
L 299.17717 -58.783756 
L 300.119764 -59.015144 
L 301.062359 -59.232076 
L 302.004953 -59.432994 
L 302.947547 -59.616427 
L 303.890141 -59.781007 
L 304.832736 -59.925492 
L 305.77533 -60.048777 
L 306.717924 -60.14991 
L 307.660519 -60.2281 
L 308.603113 -60.282736 
L 309.545707 -60.313386 
L 310.488301 -60.319808 
L 311.430896 -60.301951 
L 312.37349 -60.259956 
L 313.316084 -60.194155 
L 314.258678 -60.105066 
L 315.201273 -59.993386 
L 316.143867 -59.859982 
L 317.086461 -59.70588 
L 318.029056 -59.532252 
L 318.97165 -59.340402 
L 319.914244 -59.131747 
L 320.856838 -58.907801 
L 321.799433 -58.67016 
L 322.742027 -58.420477 
L 323.684621 -58.160447 
L 324.627216 -57.891789 
L 325.56981 -57.616224 
L 326.512404 -57.33546 
L 327.454998 -57.05117 
L 328.397593 -56.764985 
L 329.340187 -56.478471 
L 330.282781 -56.193119 
L 331.225376 -55.910333 
L 332.16797 -55.631423 
L 333.110564 -55.357591 
L 334.053158 -55.089932 
L 334.995753 -54.829424 
L 335.938347 -54.576925 
L 336.880941 -54.333179 
L 337.823535 -54.098807 
L 338.76613 -53.874316 
L 339.708724 -53.6601 
L 340.651318 -53.456444 
L 341.593913 -53.26353 
L 342.536507 -53.081444 
L 343.479101 -52.910183 
L 344.421695 -52.749662 
L 345.36429 -52.599721 
L 346.306884 -52.460137 
L 347.249478 -52.330629 
L 348.192073 -52.210866 
L 349.134667 -52.100476 
L 350.077261 -51.999058 
L 351.019855 -51.906179 
L 351.96245 -51.821394 
L 352.905044 -51.74424 
L 353.847638 -51.674251 
L 354.790233 -51.610961 
L 355.732827 -51.553904 
L 356.675421 -51.502626 
L 357.618015 -51.456682 
L 358.56061 -51.415642 
L 359.503204 -51.379095 
L 360.445798 -51.346645 
L 361.388392 -51.317921 
L 362.330987 -51.29257 
L 363.273581 -51.270263 
L 364.216175 -51.250693 
L 365.15877 -51.233574 
L 366.101364 -51.218643 
L 367.043958 -51.205659 
L 367.986552 -51.194401 
L 368.929147 -51.184667 
L 369.871741 -51.176277 
L 370.814335 -51.169065 
L 371.75693 -51.162883 
L 372.699524 -51.157601 
L 373.642118 -51.153099 
L 374.584712 -51.149274 
L 375.527307 -51.146034 
L 376.469901 -51.143296 
L 377.412495 -51.140989 
L 378.355089 -51.139051 
L 379.297684 -51.137428 
L 380.240278 -51.136072 
L 381.182872 -51.134942 
L 382.125467 -51.134004 
L 383.068061 -51.133227 
L 384.010655 -51.132585 
L 384.953249 -51.132057 
L 385.895844 -51.131623 
L 386.838438 -51.131267 
L 387.781032 -51.130977 
L 388.723627 -51.13074 
L 389.666221 -51.130548 
L 390.608815 -51.130392 
L 391.551409 -51.130267 
L 392.494004 -51.130165 
L 393.436598 -51.130084 
L 394.379192 -51.130019 
L 395.321787 -51.129967 
L 396.264381 -51.129926 
L 397.206975 -51.129893 
L 398.149569 -51.129867 
L 399.092164 -51.129846 
L 400.034758 -51.12983 
L 400.977352 -51.129817 
L 401.919946 -51.129807 
L 402.862541 -51.129799 
L 403.805135 -51.129793 
L 404.747729 -51.129788 
L 405.690324 -51.129785 
L 406.632918 -51.129782 
L 407.575512 -51.12978 
L 408.518106 -51.129778 
L 409.460701 -51.129777 
L 410.403295 -51.129776 
L 411.345889 -51.129775 
L 412.288484 -51.129774 
L 413.231078 -51.129774 
L 414.173672 -51.129774 
L 415.116266 -51.129773 
L 416.058861 -51.129773 
L 417.001455 -51.129773 
L 417.944049 -51.129773 
L 418.886644 -51.129773 
L 419.829238 -51.129773 
L 420.771832 -51.129773 
L 421.714426 -51.129773 
L 422.657021 -51.129773 
L 423.599615 -51.129773 
L 424.542209 -51.129773 
L 425.484803 -51.129773 
L 426.427398 -51.129773 
L 427.369992 -51.129773 
L 428.312586 -51.129773 
L 429.255181 -51.129773 
L 430.197775 -51.129773 
L 431.140369 -51.129773 
L 432.082963 -51.129773 
L 433.025558 -51.129773 
L 433.968152 -51.129773 
L 434.910746 -51.129773 
L 435.853341 -51.129773 
L 436.795935 -51.129773 
L 437.738529 -51.129773 
L 438.681123 -51.129773 
L 439.623718 -51.129773 
L 440.566312 -51.129773 
L 441.508906 -51.129773 
L 442.451501 -51.129773 
L 443.394095 -51.129773 
L 444.336689 -51.129773 
L 445.279283 -51.129773 
L 446.221878 -51.129773 
L 447.164472 -51.129773 
L 448.107066 -51.129773 
L 449.04966 -51.129773 
L 449.992255 -51.129773 
L 450.934849 -51.129773 
L 451.877443 -51.129773 
L 452.820038 -51.129773 
L 453.762632 -51.129773 
L 454.705226 -51.129773 
L 455.64782 -51.129773 
L 456.590415 -51.129773 
L 457.533009 -51.129773 
L 458.475603 -51.129773 
L 459.418198 -51.129773 
L 460.360792 -51.129773 
L 461.303386 -51.129773 
L 462.24598 -51.129773 
L 463.188575 -51.129773 
L 464.131169 -51.129773 
L 465.073763 -51.129773 
L 466.016357 -51.129773 
L 466.958952 -51.129773 
L 467.901546 -51.129773 
L 468.84414 -51.129773 
L 469.786735 -51.129773 
L 470.729329 -51.129773 
L 471.671923 -51.129773 
L 472.614517 -51.129773 
L 473.557112 -51.129773 
L 474.499706 -51.129773 
L 475.4423 -51.129773 
L 476.384895 -51.129773 
L 477.327489 -51.129773 
L 478.270083 -51.129773 
L 479.212677 -51.129773 
L 480.155272 -51.129773 
L 481.097866 -51.129773 
L 482.04046 -51.129773 
L 482.983055 -51.129773 
L 483.925649 -51.129773 
L 484.868243 -51.129773 
L 485.810837 -51.129773 
L 486.753432 -51.129773 
L 487.696026 -51.129773 
L 488.63862 -51.129773 
L 489.581214 -51.129773 
L 490.523809 -51.129773 
L 491.466403 -51.129773 
L 492.408997 -51.129773 
L 493.351592 -51.129773 
L 494.294186 -51.129773 
L 495.23678 -51.129773 
L 496.179374 -51.129773 
L 497.121969 -51.129773 
L 498.064563 -51.129773 
L 499.007157 -51.129773 
L 499.949752 -51.129773 
L 500.892346 -51.129773 
L 501.83494 -51.129773 
L 502.777534 -51.129773 
L 503.720129 -51.129773 
L 504.662723 -51.129773 
L 505.605317 -51.129773 
L 506.547912 -51.129773 
L 507.490506 -51.129773 
L 508.4331 -51.129773 
L 509.375694 -51.129773 
L 510.318289 -51.129773 
L 511.260883 -51.129773 
L 512.203477 -51.129773 
L 513.146071 -51.129773 
L 514.088666 -51.129773 
L 515.03126 -51.129773 
L 515.973854 -51.129773 
L 516.916449 -51.129773 
L 517.859043 -51.129773 
L 518.801637 -51.129773 
L 519.744231 -51.129773 
L 520.686826 -51.129773 
L 521.62942 -51.129773 
L 522.572014 -51.129773 
L 523.514609 -51.129773 
L 524.457203 -51.129773 
L 525.399797 -51.129773 
L 526.342391 -51.129773 
L 527.284986 -51.129773 
L 528.22758 -51.129773 
L 529.170174 -51.129773 
L 530.112768 -51.129773 
L 531.055363 -51.129773 
L 531.997957 -51.129773 
L 532.940551 -51.129773 
L 533.883146 -51.129773 
L 534.82574 -51.129773 
L 535.768334 -51.129773 
L 536.710928 -51.129773 
L 537.653523 -51.129773 
L 537.653523 -51.129773 
L 537.653523 -51.129773 
L 536.710928 -51.129773 
L 535.768334 -51.129773 
L 534.82574 -51.129773 
L 533.883146 -51.129773 
L 532.940551 -51.129773 
L 531.997957 -51.129773 
L 531.055363 -51.129773 
L 530.112768 -51.129773 
L 529.170174 -51.129773 
L 528.22758 -51.129773 
L 527.284986 -51.129773 
L 526.342391 -51.129773 
L 525.399797 -51.129773 
L 524.457203 -51.129773 
L 523.514609 -51.129773 
L 522.572014 -51.129773 
L 521.62942 -51.129773 
L 520.686826 -51.129773 
L 519.744231 -51.129773 
L 518.801637 -51.129773 
L 517.859043 -51.129773 
L 516.916449 -51.129773 
L 515.973854 -51.129773 
L 515.03126 -51.129773 
L 514.088666 -51.129773 
L 513.146071 -51.129773 
L 512.203477 -51.129773 
L 511.260883 -51.129773 
L 510.318289 -51.129773 
L 509.375694 -51.129773 
L 508.4331 -51.129773 
L 507.490506 -51.129773 
L 506.547912 -51.129773 
L 505.605317 -51.129773 
L 504.662723 -51.129773 
L 503.720129 -51.129773 
L 502.777534 -51.129773 
L 501.83494 -51.129773 
L 500.892346 -51.129773 
L 499.949752 -51.129773 
L 499.007157 -51.129773 
L 498.064563 -51.129773 
L 497.121969 -51.129773 
L 496.179374 -51.129773 
L 495.23678 -51.129773 
L 494.294186 -51.129773 
L 493.351592 -51.129773 
L 492.408997 -51.129773 
L 491.466403 -51.129773 
L 490.523809 -51.129773 
L 489.581214 -51.129773 
L 488.63862 -51.129773 
L 487.696026 -51.129773 
L 486.753432 -51.129773 
L 485.810837 -51.129773 
L 484.868243 -51.129773 
L 483.925649 -51.129773 
L 482.983055 -51.129773 
L 482.04046 -51.129773 
L 481.097866 -51.129773 
L 480.155272 -51.129773 
L 479.212677 -51.129773 
L 478.270083 -51.129773 
L 477.327489 -51.129773 
L 476.384895 -51.129773 
L 475.4423 -51.129773 
L 474.499706 -51.129773 
L 473.557112 -51.129773 
L 472.614517 -51.129773 
L 471.671923 -51.129773 
L 470.729329 -51.129773 
L 469.786735 -51.129773 
L 468.84414 -51.129773 
L 467.901546 -51.129773 
L 466.958952 -51.129773 
L 466.016357 -51.129773 
L 465.073763 -51.129773 
L 464.131169 -51.129773 
L 463.188575 -51.129773 
L 462.24598 -51.129773 
L 461.303386 -51.129773 
L 460.360792 -51.129773 
L 459.418198 -51.129773 
L 458.475603 -51.129773 
L 457.533009 -51.129773 
L 456.590415 -51.129773 
L 455.64782 -51.129773 
L 454.705226 -51.129773 
L 453.762632 -51.129773 
L 452.820038 -51.129773 
L 451.877443 -51.129773 
L 450.934849 -51.129773 
L 449.992255 -51.129773 
L 449.04966 -51.129773 
L 448.107066 -51.129773 
L 447.164472 -51.129773 
L 446.221878 -51.129773 
L 445.279283 -51.129773 
L 444.336689 -51.129773 
L 443.394095 -51.129773 
L 442.451501 -51.129773 
L 441.508906 -51.129773 
L 440.566312 -51.129773 
L 439.623718 -51.129773 
L 438.681123 -51.129773 
L 437.738529 -51.129773 
L 436.795935 -51.129773 
L 435.853341 -51.129773 
L 434.910746 -51.129773 
L 433.968152 -51.129773 
L 433.025558 -51.129773 
L 432.082963 -51.129773 
L 431.140369 -51.129773 
L 430.197775 -51.129773 
L 429.255181 -51.129773 
L 428.312586 -51.129773 
L 427.369992 -51.129773 
L 426.427398 -51.129773 
L 425.484803 -51.129773 
L 424.542209 -51.129773 
L 423.599615 -51.129773 
L 422.657021 -51.129773 
L 421.714426 -51.129773 
L 420.771832 -51.129773 
L 419.829238 -51.129773 
L 418.886644 -51.129773 
L 417.944049 -51.129773 
L 417.001455 -51.129773 
L 416.058861 -51.129773 
L 415.116266 -51.129773 
L 414.173672 -51.129773 
L 413.231078 -51.129773 
L 412.288484 -51.129773 
L 411.345889 -51.129773 
L 410.403295 -51.129773 
L 409.460701 -51.129773 
L 408.518106 -51.129773 
L 407.575512 -51.129773 
L 406.632918 -51.129773 
L 405.690324 -51.129773 
L 404.747729 -51.129773 
L 403.805135 -51.129773 
L 402.862541 -51.129773 
L 401.919946 -51.129773 
L 400.977352 -51.129773 
L 400.034758 -51.129773 
L 399.092164 -51.129773 
L 398.149569 -51.129773 
L 397.206975 -51.129773 
L 396.264381 -51.129773 
L 395.321787 -51.129773 
L 394.379192 -51.129773 
L 393.436598 -51.129773 
L 392.494004 -51.129773 
L 391.551409 -51.129773 
L 390.608815 -51.129773 
L 389.666221 -51.129773 
L 388.723627 -51.129773 
L 387.781032 -51.129773 
L 386.838438 -51.129773 
L 385.895844 -51.129773 
L 384.953249 -51.129773 
L 384.010655 -51.129773 
L 383.068061 -51.129773 
L 382.125467 -51.129773 
L 381.182872 -51.129773 
L 380.240278 -51.129773 
L 379.297684 -51.129773 
L 378.355089 -51.129773 
L 377.412495 -51.129773 
L 376.469901 -51.129773 
L 375.527307 -51.129773 
L 374.584712 -51.129773 
L 373.642118 -51.129773 
L 372.699524 -51.129773 
L 371.75693 -51.129773 
L 370.814335 -51.129773 
L 369.871741 -51.129773 
L 368.929147 -51.129773 
L 367.986552 -51.129773 
L 367.043958 -51.129773 
L 366.101364 -51.129773 
L 365.15877 -51.129773 
L 364.216175 -51.129773 
L 363.273581 -51.129773 
L 362.330987 -51.129773 
L 361.388392 -51.129773 
L 360.445798 -51.129773 
L 359.503204 -51.129773 
L 358.56061 -51.129773 
L 357.618015 -51.129773 
L 356.675421 -51.129773 
L 355.732827 -51.129773 
L 354.790233 -51.129773 
L 353.847638 -51.129773 
L 352.905044 -51.129773 
L 351.96245 -51.129773 
L 351.019855 -51.129773 
L 350.077261 -51.129773 
L 349.134667 -51.129773 
L 348.192073 -51.129773 
L 347.249478 -51.129773 
L 346.306884 -51.129773 
L 345.36429 -51.129773 
L 344.421695 -51.129773 
L 343.479101 -51.129773 
L 342.536507 -51.129773 
L 341.593913 -51.129773 
L 340.651318 -51.129773 
L 339.708724 -51.129773 
L 338.76613 -51.129773 
L 337.823535 -51.129773 
L 336.880941 -51.129773 
L 335.938347 -51.129773 
L 334.995753 -51.129773 
L 334.053158 -51.129773 
L 333.110564 -51.129773 
L 332.16797 -51.129773 
L 331.225376 -51.129773 
L 330.282781 -51.129773 
L 329.340187 -51.129773 
L 328.397593 -51.129773 
L 327.454998 -51.129773 
L 326.512404 -51.129773 
L 325.56981 -51.129773 
L 324.627216 -51.129773 
L 323.684621 -51.129773 
L 322.742027 -51.129773 
L 321.799433 -51.129773 
L 320.856838 -51.129773 
L 319.914244 -51.129773 
L 318.97165 -51.129773 
L 318.029056 -51.129773 
L 317.086461 -51.129773 
L 316.143867 -51.129773 
L 315.201273 -51.129773 
L 314.258678 -51.129773 
L 313.316084 -51.129773 
L 312.37349 -51.129773 
L 311.430896 -51.129773 
L 310.488301 -51.129773 
L 309.545707 -51.129773 
L 308.603113 -51.129773 
L 307.660519 -51.129773 
L 306.717924 -51.129773 
L 305.77533 -51.129773 
L 304.832736 -51.129773 
L 303.890141 -51.129773 
L 302.947547 -51.129773 
L 302.004953 -51.129773 
L 301.062359 -51.129773 
L 300.119764 -51.129773 
L 299.17717 -51.129773 
L 298.234576 -51.129773 
L 297.291981 -51.129773 
L 296.349387 -51.129773 
L 295.406793 -51.129773 
L 294.464199 -51.129773 
L 293.521604 -51.129773 
L 292.57901 -51.129773 
L 291.636416 -51.129773 
L 290.693822 -51.129773 
L 289.751227 -51.129773 
L 288.808633 -51.129773 
L 287.866039 -51.129773 
L 286.923444 -51.129773 
L 285.98085 -51.129773 
L 285.038256 -51.129773 
L 284.095662 -51.129773 
L 283.153067 -51.129773 
L 282.210473 -51.129773 
L 281.267879 -51.129773 
L 280.325284 -51.129773 
L 279.38269 -51.129773 
L 278.440096 -51.129773 
L 277.497502 -51.129773 
L 276.554907 -51.129773 
L 275.612313 -51.129773 
L 274.669719 -51.129773 
L 273.727124 -51.129773 
L 272.78453 -51.129773 
L 271.841936 -51.129773 
L 270.899342 -51.129773 
L 269.956747 -51.129773 
L 269.014153 -51.129773 
L 268.071559 -51.129773 
L 267.128965 -51.129773 
L 266.18637 -51.129773 
L 265.243776 -51.129773 
L 264.301182 -51.129773 
L 263.358587 -51.129773 
L 262.415993 -51.129773 
L 261.473399 -51.129773 
L 260.530805 -51.129773 
L 259.58821 -51.129773 
L 258.645616 -51.129773 
L 257.703022 -51.129773 
L 256.760427 -51.129773 
L 255.817833 -51.129773 
L 254.875239 -51.129773 
L 253.932645 -51.129773 
L 252.99005 -51.129773 
L 252.047456 -51.129773 
L 251.104862 -51.129773 
L 250.162267 -51.129773 
L 249.219673 -51.129773 
L 248.277079 -51.129773 
L 247.334485 -51.129773 
L 246.39189 -51.129773 
L 245.449296 -51.129773 
L 244.506702 -51.129773 
L 243.564108 -51.129773 
L 242.621513 -51.129773 
L 241.678919 -51.129773 
L 240.736325 -51.129773 
L 239.79373 -51.129773 
L 238.851136 -51.129773 
L 237.908542 -51.129773 
L 236.965948 -51.129773 
L 236.023353 -51.129773 
L 235.080759 -51.129773 
L 234.138165 -51.129773 
L 233.19557 -51.129773 
L 232.252976 -51.129773 
L 231.310382 -51.129773 
L 230.367788 -51.129773 
L 229.425193 -51.129773 
L 228.482599 -51.129773 
L 227.540005 -51.129773 
L 226.597411 -51.129773 
L 225.654816 -51.129773 
L 224.712222 -51.129773 
L 223.769628 -51.129773 
L 222.827033 -51.129773 
L 221.884439 -51.129773 
L 220.941845 -51.129773 
L 219.999251 -51.129773 
L 219.056656 -51.129773 
L 218.114062 -51.129773 
L 217.171468 -51.129773 
L 216.228873 -51.129773 
L 215.286279 -51.129773 
L 214.343685 -51.129773 
L 213.401091 -51.129773 
L 212.458496 -51.129773 
L 211.515902 -51.129773 
L 210.573308 -51.129773 
L 209.630713 -51.129773 
L 208.688119 -51.129773 
L 207.745525 -51.129773 
L 206.802931 -51.129773 
L 205.860336 -51.129773 
L 204.917742 -51.129773 
L 203.975148 -51.129773 
L 203.032554 -51.129773 
L 202.089959 -51.129773 
L 201.147365 -51.129773 
L 200.204771 -51.129773 
L 199.262176 -51.129773 
L 198.319582 -51.129773 
L 197.376988 -51.129773 
L 196.434394 -51.129773 
L 195.491799 -51.129773 
L 194.549205 -51.129773 
L 193.606611 -51.129773 
L 192.664016 -51.129773 
L 191.721422 -51.129773 
L 190.778828 -51.129773 
L 189.836234 -51.129773 
L 188.893639 -51.129773 
L 187.951045 -51.129773 
L 187.008451 -51.129773 
L 186.065856 -51.129773 
L 185.123262 -51.129773 
L 184.180668 -51.129773 
L 183.238074 -51.129773 
L 182.295479 -51.129773 
L 181.352885 -51.129773 
L 180.410291 -51.129773 
L 179.467697 -51.129773 
L 178.525102 -51.129773 
L 177.582508 -51.129773 
L 176.639914 -51.129773 
L 175.697319 -51.129773 
L 174.754725 -51.129773 
L 173.812131 -51.129773 
L 172.869537 -51.129773 
L 171.926942 -51.129773 
L 170.984348 -51.129773 
L 170.041754 -51.129773 
L 169.099159 -51.129773 
L 168.156565 -51.129773 
L 167.213971 -51.129773 
L 166.271377 -51.129773 
L 165.328782 -51.129773 
L 164.386188 -51.129773 
L 163.443594 -51.129773 
L 162.500999 -51.129773 
L 161.558405 -51.129773 
L 160.615811 -51.129773 
L 159.673217 -51.129773 
L 158.730622 -51.129773 
L 157.788028 -51.129773 
L 156.845434 -51.129773 
L 155.90284 -51.129773 
L 154.960245 -51.129773 
L 154.017651 -51.129773 
L 153.075057 -51.129773 
L 152.132462 -51.129773 
L 151.189868 -51.129773 
L 150.247274 -51.129773 
L 149.30468 -51.129773 
L 148.362085 -51.129773 
L 147.419491 -51.129773 
L 146.476897 -51.129773 
L 145.534302 -51.129773 
L 144.591708 -51.129773 
L 143.649114 -51.129773 
L 142.70652 -51.129773 
L 141.763925 -51.129773 
L 140.821331 -51.129773 
L 139.878737 -51.129773 
L 138.936143 -51.129773 
L 137.993548 -51.129773 
L 137.050954 -51.129773 
L 136.10836 -51.129773 
L 135.165765 -51.129773 
L 134.223171 -51.129773 
L 133.280577 -51.129773 
L 132.337983 -51.129773 
L 131.395388 -51.129773 
L 130.452794 -51.129773 
L 129.5102 -51.129773 
L 128.567605 -51.129773 
L 127.625011 -51.129773 
L 126.682417 -51.129773 
L 125.739823 -51.129773 
L 124.797228 -51.129773 
L 123.854634 -51.129773 
L 122.91204 -51.129773 
L 121.969445 -51.129773 
L 121.026851 -51.129773 
L 120.084257 -51.129773 
L 119.141663 -51.129773 
L 118.199068 -51.129773 
L 117.256474 -51.129773 
L 116.31388 -51.129773 
L 115.371286 -51.129773 
L 114.428691 -51.129773 
L 113.486097 -51.129773 
L 112.543503 -51.129773 
L 111.600908 -51.129773 
L 110.658314 -51.129773 
L 109.71572 -51.129773 
L 108.773126 -51.129773 
L 107.830531 -51.129773 
L 106.887937 -51.129773 
L 105.945343 -51.129773 
L 105.002748 -51.129773 
L 104.060154 -51.129773 
L 103.11756 -51.129773 
L 102.174966 -51.129773 
L 101.232371 -51.129773 
L 100.289777 -51.129773 
L 99.347183 -51.129773 
L 98.404588 -51.129773 
L 97.461994 -51.129773 
L 96.5194 -51.129773 
L 95.576806 -51.129773 
L 94.634211 -51.129773 
L 93.691617 -51.129773 
L 92.749023 -51.129773 
L 91.806429 -51.129773 
L 90.863834 -51.129773 
L 89.92124 -51.129773 
L 88.978646 -51.129773 
L 88.036051 -51.129773 
L 87.093457 -51.129773 
L 86.150863 -51.129773 
L 85.208269 -51.129773 
L 84.265674 -51.129773 
L 83.32308 -51.129773 
L 82.380486 -51.129773 
L 81.437891 -51.129773 
L 80.495297 -51.129773 
L 79.552703 -51.129773 
L 78.610109 -51.129773 
L 77.667514 -51.129773 
L 76.72492 -51.129773 
L 75.782326 -51.129773 
L 74.839732 -51.129773 
L 73.897137 -51.129773 
L 72.954543 -51.129773 
L 72.011949 -51.129773 
L 71.069354 -51.129773 
L 70.12676 -51.129773 
L 69.184166 -51.129773 
L 68.241572 -51.129773 
L 67.298977 -51.129773 
z
" style="stroke: #ff0000; stroke-opacity: 0.2"/>
    </defs>
    <g clip-path="url(#pa261960b84)">
     <use xlink:href="#mb486bdc4d4" x="0" y="352.65125" style="fill: #ff0000; fill-opacity: 0.2; stroke: #ff0000; stroke-opacity: 0.2"/>
    </g>
   </g>
   <g id="PolyCollection_2">
    <defs>
     <path id="m0cd709b7af" d="M 67.298977 -51.129773 
L 67.298977 -133.027758 
L 68.241572 -139.880921 
L 69.184166 -146.987474 
L 70.12676 -154.323396 
L 71.069354 -161.861607 
L 72.011949 -169.572192 
L 72.954543 -177.422673 
L 73.897137 -185.378324 
L 74.839732 -193.402529 
L 75.782326 -201.457172 
L 76.72492 -209.503047 
L 77.667514 -217.500293 
L 78.610109 -225.408837 
L 79.552703 -233.188827 
L 80.495297 -240.801075 
L 81.437891 -248.20747 
L 82.380486 -255.371378 
L 83.32308 -262.258006 
L 84.265674 -268.83474 
L 85.208269 -275.071439 
L 86.150863 -280.940685 
L 87.093457 -286.417999 
L 88.036051 -291.481997 
L 88.978646 -296.114517 
L 89.92124 -300.300682 
L 90.863834 -304.028938 
L 91.806429 -307.291038 
L 92.749023 -310.081996 
L 93.691617 -312.399996 
L 94.634211 -314.246286 
L 95.576806 -315.625028 
L 96.5194 -316.543134 
L 97.461994 -317.010085 
L 98.404588 -317.037727 
L 99.347183 -316.640065 
L 100.289777 -315.833038 
L 101.232371 -314.634302 
L 102.174966 -313.063002 
L 103.11756 -311.139548 
L 104.060154 -308.885397 
L 105.002748 -306.322832 
L 105.945343 -303.474758 
L 106.887937 -300.364499 
L 107.830531 -297.015605 
L 108.773126 -293.451669 
L 109.71572 -289.696157 
L 110.658314 -285.772247 
L 111.600908 -281.702673 
L 112.543503 -277.509594 
L 113.486097 -273.214461 
L 114.428691 -268.837903 
L 115.371286 -264.399623 
L 116.31388 -259.918302 
L 117.256474 -255.411524 
L 118.199068 -250.895698 
L 119.141663 -246.386007 
L 120.084257 -241.896359 
L 121.026851 -237.439351 
L 121.969445 -233.026252 
L 122.91204 -228.666986 
L 123.854634 -224.37014 
L 124.797228 -220.142973 
L 125.739823 -215.991448 
L 126.682417 -211.920265 
L 127.625011 -207.932912 
L 128.567605 -204.031732 
L 129.5102 -200.217987 
L 130.452794 -196.491946 
L 131.395388 -192.852975 
L 132.337983 -189.299634 
L 133.280577 -185.829789 
L 134.223171 -182.440714 
L 135.165765 -179.129215 
L 136.10836 -175.891738 
L 137.050954 -172.724487 
L 137.993548 -169.62354 
L 138.936143 -166.584952 
L 139.878737 -163.604862 
L 140.821331 -160.679583 
L 141.763925 -157.80569 
L 142.70652 -154.98009 
L 143.649114 -152.200087 
L 144.591708 -149.463425 
L 145.534302 -146.768326 
L 146.476897 -144.113509 
L 147.419491 -141.498198 
L 148.362085 -138.922115 
L 149.30468 -136.385462 
L 150.247274 -133.888889 
L 151.189868 -131.433458 
L 152.132462 -129.020591 
L 153.075057 -126.652016 
L 154.017651 -124.329704 
L 154.960245 -122.05581 
L 155.90284 -119.832597 
L 156.845434 -117.662379 
L 157.788028 -115.54745 
L 158.730622 -113.49002 
L 159.673217 -111.492161 
L 160.615811 -109.555753 
L 161.558405 -107.682434 
L 162.500999 -105.873562 
L 163.443594 -104.130184 
L 164.386188 -102.45301 
L 165.328782 -100.842402 
L 166.271377 -99.29836 
L 167.213971 -97.820529 
L 168.156565 -96.408207 
L 169.099159 -95.060361 
L 170.041754 -93.775647 
L 170.984348 -92.552446 
L 171.926942 -91.388891 
L 172.869537 -90.282911 
L 173.812131 -89.232264 
L 174.754725 -88.23459 
L 175.697319 -87.287443 
L 176.639914 -86.38834 
L 177.582508 -85.534801 
L 178.525102 -84.724383 
L 179.467697 -83.95472 
L 180.410291 -83.223548 
L 181.352885 -82.528737 
L 182.295479 -81.868302 
L 183.238074 -81.240427 
L 184.180668 -80.643469 
L 185.123262 -80.075962 
L 186.065856 -79.53662 
L 187.008451 -79.024326 
L 187.951045 -78.538122 
L 188.893639 -78.0772 
L 189.836234 -77.640878 
L 190.778828 -77.228588 
L 191.721422 -76.839849 
L 192.664016 -76.474249 
L 193.606611 -76.131421 
L 194.549205 -75.811021 
L 195.491799 -75.512711 
L 196.434394 -75.236135 
L 197.376988 -74.980903 
L 198.319582 -74.746578 
L 199.262176 -74.532658 
L 200.204771 -74.338569 
L 201.147365 -74.163657 
L 202.089959 -74.007182 
L 203.032554 -73.868312 
L 203.975148 -73.746129 
L 204.917742 -73.639626 
L 205.860336 -73.547714 
L 206.802931 -73.469228 
L 207.745525 -73.402936 
L 208.688119 -73.347551 
L 209.630713 -73.301738 
L 210.573308 -73.264135 
L 211.515902 -73.233358 
L 212.458496 -73.208022 
L 213.401091 -73.186756 
L 214.343685 -73.168213 
L 215.286279 -73.15109 
L 216.228873 -73.134139 
L 217.171468 -73.116182 
L 218.114062 -73.096123 
L 219.056656 -73.072956 
L 219.999251 -73.045778 
L 220.941845 -73.013796 
L 221.884439 -72.976331 
L 222.827033 -72.932824 
L 223.769628 -72.882836 
L 224.712222 -72.826054 
L 225.654816 -72.762286 
L 226.597411 -72.691458 
L 227.540005 -72.613614 
L 228.482599 -72.528911 
L 229.425193 -72.43761 
L 230.367788 -72.340075 
L 231.310382 -72.236762 
L 232.252976 -72.128211 
L 233.19557 -72.015043 
L 234.138165 -71.897948 
L 235.080759 -71.777676 
L 236.023353 -71.655031 
L 236.965948 -71.530863 
L 237.908542 -71.406054 
L 238.851136 -71.281513 
L 239.79373 -71.158166 
L 240.736325 -71.036944 
L 241.678919 -70.918776 
L 242.621513 -70.804576 
L 243.564108 -70.695233 
L 244.506702 -70.591602 
L 245.449296 -70.49449 
L 246.39189 -70.404648 
L 247.334485 -70.322759 
L 248.277079 -70.249426 
L 249.219673 -70.185166 
L 250.162267 -70.130395 
L 251.104862 -70.085426 
L 252.047456 -70.050459 
L 252.99005 -70.025574 
L 253.932645 -70.010732 
L 254.875239 -70.005767 
L 255.817833 -70.010394 
L 256.760427 -70.024204 
L 257.703022 -70.046673 
L 258.645616 -70.077169 
L 259.58821 -70.114962 
L 260.530805 -70.159234 
L 261.473399 -70.209092 
L 262.415993 -70.263588 
L 263.358587 -70.321731 
L 264.301182 -70.382506 
L 265.243776 -70.444891 
L 266.18637 -70.507877 
L 267.128965 -70.570485 
L 268.071559 -70.631778 
L 269.014153 -70.69088 
L 269.956747 -70.746987 
L 270.899342 -70.799375 
L 271.841936 -70.847409 
L 272.78453 -70.890544 
L 273.727124 -70.92833 
L 274.669719 -70.960405 
L 275.612313 -70.986493 
L 276.554907 -71.006393 
L 277.497502 -71.01997 
L 278.440096 -71.027143 
L 279.38269 -71.027872 
L 280.325284 -71.022141 
L 281.267879 -71.009945 
L 282.210473 -70.991279 
L 283.153067 -70.96612 
L 284.095662 -70.934419 
L 285.038256 -70.896093 
L 285.98085 -70.851018 
L 286.923444 -70.799022 
L 287.866039 -70.739892 
L 288.808633 -70.673367 
L 289.751227 -70.599152 
L 290.693822 -70.51692 
L 291.636416 -70.426323 
L 292.57901 -70.327005 
L 293.521604 -70.218616 
L 294.464199 -70.100821 
L 295.406793 -69.973321 
L 296.349387 -69.835861 
L 297.291981 -69.688248 
L 298.234576 -69.530359 
L 299.17717 -69.362152 
L 300.119764 -69.183674 
L 301.062359 -68.995067 
L 302.004953 -68.796573 
L 302.947547 -68.588527 
L 303.890141 -68.371365 
L 304.832736 -68.145608 
L 305.77533 -67.911865 
L 306.717924 -67.670813 
L 307.660519 -67.423192 
L 308.603113 -67.169791 
L 309.545707 -66.911429 
L 310.488301 -66.648941 
L 311.430896 -66.383163 
L 312.37349 -66.114915 
L 313.316084 -65.844982 
L 314.258678 -65.574103 
L 315.201273 -65.302953 
L 316.143867 -65.032134 
L 317.086461 -64.76216 
L 318.029056 -64.493456 
L 318.97165 -64.226344 
L 319.914244 -63.961046 
L 320.856838 -63.697684 
L 321.799433 -63.43628 
L 322.742027 -63.176766 
L 323.684621 -62.918991 
L 324.627216 -62.662733 
L 325.56981 -62.407715 
L 326.512404 -62.15362 
L 327.454998 -61.900108 
L 328.397593 -61.646836 
L 329.340187 -61.393479 
L 330.282781 -61.139743 
L 331.225376 -60.885391 
L 332.16797 -60.630253 
L 333.110564 -60.374244 
L 334.053158 -60.117373 
L 334.995753 -59.859756 
L 335.938347 -59.601616 
L 336.880941 -59.343288 
L 337.823535 -59.085216 
L 338.76613 -58.827944 
L 339.708724 -58.572111 
L 340.651318 -58.318431 
L 341.593913 -58.067682 
L 342.536507 -57.820684 
L 343.479101 -57.57828 
L 344.421695 -57.341312 
L 345.36429 -57.110597 
L 346.306884 -56.886908 
L 347.249478 -56.670951 
L 348.192073 -56.463344 
L 349.134667 -56.264602 
L 350.077261 -56.075117 
L 351.019855 -55.895154 
L 351.96245 -55.724839 
L 352.905044 -55.564154 
L 353.847638 -55.412942 
L 354.790233 -55.270905 
L 355.732827 -55.137619 
L 356.675421 -55.012539 
L 357.618015 -54.895016 
L 358.56061 -54.784317 
L 359.503204 -54.679638 
L 360.445798 -54.58013 
L 361.388392 -54.484917 
L 362.330987 -54.393118 
L 363.273581 -54.30387 
L 364.216175 -54.216346 
L 365.15877 -54.129773 
L 366.101364 -54.043449 
L 367.043958 -53.956758 
L 367.986552 -53.869179 
L 368.929147 -53.780295 
L 369.871741 -53.689798 
L 370.814335 -53.59749 
L 371.75693 -53.503285 
L 372.699524 -53.407201 
L 373.642118 -53.309357 
L 374.584712 -53.209962 
L 375.527307 -53.109308 
L 376.469901 -53.007754 
L 377.412495 -52.905714 
L 378.355089 -52.803645 
L 379.297684 -52.702033 
L 380.240278 -52.601376 
L 381.182872 -52.502176 
L 382.125467 -52.404922 
L 383.068061 -52.310081 
L 384.010655 -52.21809 
L 384.953249 -52.129344 
L 385.895844 -52.044191 
L 386.838438 -51.96293 
L 387.781032 -51.885801 
L 388.723627 -51.812991 
L 389.666221 -51.744629 
L 390.608815 -51.680789 
L 391.551409 -51.62149 
L 392.494004 -51.566705 
L 393.436598 -51.516359 
L 394.379192 -51.470337 
L 395.321787 -51.428492 
L 396.264381 -51.390644 
L 397.206975 -51.356591 
L 398.149569 -51.326112 
L 399.092164 -51.298976 
L 400.034758 -51.27494 
L 400.977352 -51.253762 
L 401.919946 -51.235197 
L 402.862541 -51.219008 
L 403.805135 -51.204963 
L 404.747729 -51.192841 
L 405.690324 -51.182432 
L 406.632918 -51.17354 
L 407.575512 -51.165982 
L 408.518106 -51.159592 
L 409.460701 -51.154216 
L 410.403295 -51.149717 
L 411.345889 -51.14597 
L 412.288484 -51.142866 
L 413.231078 -51.140307 
L 414.173672 -51.138209 
L 415.116266 -51.136497 
L 416.058861 -51.135108 
L 417.001455 -51.133985 
L 417.944049 -51.133083 
L 418.886644 -51.132362 
L 419.829238 -51.131788 
L 420.771832 -51.131334 
L 421.714426 -51.130977 
L 422.657021 -51.130697 
L 423.599615 -51.130479 
L 424.542209 -51.130309 
L 425.484803 -51.130179 
L 426.427398 -51.130078 
L 427.369992 -51.130002 
L 428.312586 -51.129943 
L 429.255181 -51.129899 
L 430.197775 -51.129866 
L 431.140369 -51.129841 
L 432.082963 -51.129823 
L 433.025558 -51.129809 
L 433.968152 -51.129799 
L 434.910746 -51.129792 
L 435.853341 -51.129786 
L 436.795935 -51.129783 
L 437.738529 -51.12978 
L 438.681123 -51.129778 
L 439.623718 -51.129776 
L 440.566312 -51.129775 
L 441.508906 -51.129774 
L 442.451501 -51.129774 
L 443.394095 -51.129774 
L 444.336689 -51.129773 
L 445.279283 -51.129773 
L 446.221878 -51.129773 
L 447.164472 -51.129773 
L 448.107066 -51.129773 
L 449.04966 -51.129773 
L 449.992255 -51.129773 
L 450.934849 -51.129773 
L 451.877443 -51.129773 
L 452.820038 -51.129773 
L 453.762632 -51.129773 
L 454.705226 -51.129773 
L 455.64782 -51.129773 
L 456.590415 -51.129773 
L 457.533009 -51.129773 
L 458.475603 -51.129773 
L 459.418198 -51.129773 
L 460.360792 -51.129773 
L 461.303386 -51.129773 
L 462.24598 -51.129773 
L 463.188575 -51.129773 
L 464.131169 -51.129773 
L 465.073763 -51.129773 
L 466.016357 -51.129773 
L 466.958952 -51.129773 
L 467.901546 -51.129773 
L 468.84414 -51.129773 
L 469.786735 -51.129773 
L 470.729329 -51.129774 
L 471.671923 -51.129774 
L 472.614517 -51.129775 
L 473.557112 -51.129776 
L 474.499706 -51.129777 
L 475.4423 -51.129778 
L 476.384895 -51.12978 
L 477.327489 -51.129783 
L 478.270083 -51.129787 
L 479.212677 -51.129792 
L 480.155272 -51.129799 
L 481.097866 -51.129809 
L 482.04046 -51.129822 
L 482.983055 -51.129838 
L 483.925649 -51.12986 
L 484.868243 -51.129889 
L 485.810837 -51.129926 
L 486.753432 -51.129974 
L 487.696026 -51.130036 
L 488.63862 -51.130116 
L 489.581214 -51.130217 
L 490.523809 -51.130345 
L 491.466403 -51.130506 
L 492.408997 -51.130708 
L 493.351592 -51.130959 
L 494.294186 -51.131271 
L 495.23678 -51.131655 
L 496.179374 -51.132126 
L 497.121969 -51.1327 
L 498.064563 -51.133396 
L 499.007157 -51.134234 
L 499.949752 -51.135239 
L 500.892346 -51.136437 
L 501.83494 -51.137857 
L 502.777534 -51.13953 
L 503.720129 -51.141491 
L 504.662723 -51.143775 
L 505.605317 -51.146421 
L 506.547912 -51.149468 
L 507.490506 -51.152955 
L 508.4331 -51.156924 
L 509.375694 -51.161413 
L 510.318289 -51.16646 
L 511.260883 -51.172099 
L 512.203477 -51.17836 
L 513.146071 -51.185268 
L 514.088666 -51.192841 
L 515.03126 -51.201089 
L 515.973854 -51.210012 
L 516.916449 -51.2196 
L 517.859043 -51.22983 
L 518.801637 -51.240668 
L 519.744231 -51.252065 
L 520.686826 -51.263958 
L 521.62942 -51.27627 
L 522.572014 -51.288913 
L 523.514609 -51.301781 
L 524.457203 -51.314759 
L 525.399797 -51.327721 
L 526.342391 -51.340531 
L 527.284986 -51.353048 
L 528.22758 -51.365124 
L 529.170174 -51.376612 
L 530.112768 -51.387365 
L 531.055363 -51.397242 
L 531.997957 -51.406107 
L 532.940551 -51.413838 
L 533.883146 -51.420323 
L 534.82574 -51.42547 
L 535.768334 -51.429202 
L 536.710928 -51.431463 
L 537.653523 -51.432221 
L 537.653523 -51.129773 
L 537.653523 -51.129773 
L 536.710928 -51.129773 
L 535.768334 -51.129773 
L 534.82574 -51.129773 
L 533.883146 -51.129773 
L 532.940551 -51.129773 
L 531.997957 -51.129773 
L 531.055363 -51.129773 
L 530.112768 -51.129773 
L 529.170174 -51.129773 
L 528.22758 -51.129773 
L 527.284986 -51.129773 
L 526.342391 -51.129773 
L 525.399797 -51.129773 
L 524.457203 -51.129773 
L 523.514609 -51.129773 
L 522.572014 -51.129773 
L 521.62942 -51.129773 
L 520.686826 -51.129773 
L 519.744231 -51.129773 
L 518.801637 -51.129773 
L 517.859043 -51.129773 
L 516.916449 -51.129773 
L 515.973854 -51.129773 
L 515.03126 -51.129773 
L 514.088666 -51.129773 
L 513.146071 -51.129773 
L 512.203477 -51.129773 
L 511.260883 -51.129773 
L 510.318289 -51.129773 
L 509.375694 -51.129773 
L 508.4331 -51.129773 
L 507.490506 -51.129773 
L 506.547912 -51.129773 
L 505.605317 -51.129773 
L 504.662723 -51.129773 
L 503.720129 -51.129773 
L 502.777534 -51.129773 
L 501.83494 -51.129773 
L 500.892346 -51.129773 
L 499.949752 -51.129773 
L 499.007157 -51.129773 
L 498.064563 -51.129773 
L 497.121969 -51.129773 
L 496.179374 -51.129773 
L 495.23678 -51.129773 
L 494.294186 -51.129773 
L 493.351592 -51.129773 
L 492.408997 -51.129773 
L 491.466403 -51.129773 
L 490.523809 -51.129773 
L 489.581214 -51.129773 
L 488.63862 -51.129773 
L 487.696026 -51.129773 
L 486.753432 -51.129773 
L 485.810837 -51.129773 
L 484.868243 -51.129773 
L 483.925649 -51.129773 
L 482.983055 -51.129773 
L 482.04046 -51.129773 
L 481.097866 -51.129773 
L 480.155272 -51.129773 
L 479.212677 -51.129773 
L 478.270083 -51.129773 
L 477.327489 -51.129773 
L 476.384895 -51.129773 
L 475.4423 -51.129773 
L 474.499706 -51.129773 
L 473.557112 -51.129773 
L 472.614517 -51.129773 
L 471.671923 -51.129773 
L 470.729329 -51.129773 
L 469.786735 -51.129773 
L 468.84414 -51.129773 
L 467.901546 -51.129773 
L 466.958952 -51.129773 
L 466.016357 -51.129773 
L 465.073763 -51.129773 
L 464.131169 -51.129773 
L 463.188575 -51.129773 
L 462.24598 -51.129773 
L 461.303386 -51.129773 
L 460.360792 -51.129773 
L 459.418198 -51.129773 
L 458.475603 -51.129773 
L 457.533009 -51.129773 
L 456.590415 -51.129773 
L 455.64782 -51.129773 
L 454.705226 -51.129773 
L 453.762632 -51.129773 
L 452.820038 -51.129773 
L 451.877443 -51.129773 
L 450.934849 -51.129773 
L 449.992255 -51.129773 
L 449.04966 -51.129773 
L 448.107066 -51.129773 
L 447.164472 -51.129773 
L 446.221878 -51.129773 
L 445.279283 -51.129773 
L 444.336689 -51.129773 
L 443.394095 -51.129773 
L 442.451501 -51.129773 
L 441.508906 -51.129773 
L 440.566312 -51.129773 
L 439.623718 -51.129773 
L 438.681123 -51.129773 
L 437.738529 -51.129773 
L 436.795935 -51.129773 
L 435.853341 -51.129773 
L 434.910746 -51.129773 
L 433.968152 -51.129773 
L 433.025558 -51.129773 
L 432.082963 -51.129773 
L 431.140369 -51.129773 
L 430.197775 -51.129773 
L 429.255181 -51.129773 
L 428.312586 -51.129773 
L 427.369992 -51.129773 
L 426.427398 -51.129773 
L 425.484803 -51.129773 
L 424.542209 -51.129773 
L 423.599615 -51.129773 
L 422.657021 -51.129773 
L 421.714426 -51.129773 
L 420.771832 -51.129773 
L 419.829238 -51.129773 
L 418.886644 -51.129773 
L 417.944049 -51.129773 
L 417.001455 -51.129773 
L 416.058861 -51.129773 
L 415.116266 -51.129773 
L 414.173672 -51.129773 
L 413.231078 -51.129773 
L 412.288484 -51.129773 
L 411.345889 -51.129773 
L 410.403295 -51.129773 
L 409.460701 -51.129773 
L 408.518106 -51.129773 
L 407.575512 -51.129773 
L 406.632918 -51.129773 
L 405.690324 -51.129773 
L 404.747729 -51.129773 
L 403.805135 -51.129773 
L 402.862541 -51.129773 
L 401.919946 -51.129773 
L 400.977352 -51.129773 
L 400.034758 -51.129773 
L 399.092164 -51.129773 
L 398.149569 -51.129773 
L 397.206975 -51.129773 
L 396.264381 -51.129773 
L 395.321787 -51.129773 
L 394.379192 -51.129773 
L 393.436598 -51.129773 
L 392.494004 -51.129773 
L 391.551409 -51.129773 
L 390.608815 -51.129773 
L 389.666221 -51.129773 
L 388.723627 -51.129773 
L 387.781032 -51.129773 
L 386.838438 -51.129773 
L 385.895844 -51.129773 
L 384.953249 -51.129773 
L 384.010655 -51.129773 
L 383.068061 -51.129773 
L 382.125467 -51.129773 
L 381.182872 -51.129773 
L 380.240278 -51.129773 
L 379.297684 -51.129773 
L 378.355089 -51.129773 
L 377.412495 -51.129773 
L 376.469901 -51.129773 
L 375.527307 -51.129773 
L 374.584712 -51.129773 
L 373.642118 -51.129773 
L 372.699524 -51.129773 
L 371.75693 -51.129773 
L 370.814335 -51.129773 
L 369.871741 -51.129773 
L 368.929147 -51.129773 
L 367.986552 -51.129773 
L 367.043958 -51.129773 
L 366.101364 -51.129773 
L 365.15877 -51.129773 
L 364.216175 -51.129773 
L 363.273581 -51.129773 
L 362.330987 -51.129773 
L 361.388392 -51.129773 
L 360.445798 -51.129773 
L 359.503204 -51.129773 
L 358.56061 -51.129773 
L 357.618015 -51.129773 
L 356.675421 -51.129773 
L 355.732827 -51.129773 
L 354.790233 -51.129773 
L 353.847638 -51.129773 
L 352.905044 -51.129773 
L 351.96245 -51.129773 
L 351.019855 -51.129773 
L 350.077261 -51.129773 
L 349.134667 -51.129773 
L 348.192073 -51.129773 
L 347.249478 -51.129773 
L 346.306884 -51.129773 
L 345.36429 -51.129773 
L 344.421695 -51.129773 
L 343.479101 -51.129773 
L 342.536507 -51.129773 
L 341.593913 -51.129773 
L 340.651318 -51.129773 
L 339.708724 -51.129773 
L 338.76613 -51.129773 
L 337.823535 -51.129773 
L 336.880941 -51.129773 
L 335.938347 -51.129773 
L 334.995753 -51.129773 
L 334.053158 -51.129773 
L 333.110564 -51.129773 
L 332.16797 -51.129773 
L 331.225376 -51.129773 
L 330.282781 -51.129773 
L 329.340187 -51.129773 
L 328.397593 -51.129773 
L 327.454998 -51.129773 
L 326.512404 -51.129773 
L 325.56981 -51.129773 
L 324.627216 -51.129773 
L 323.684621 -51.129773 
L 322.742027 -51.129773 
L 321.799433 -51.129773 
L 320.856838 -51.129773 
L 319.914244 -51.129773 
L 318.97165 -51.129773 
L 318.029056 -51.129773 
L 317.086461 -51.129773 
L 316.143867 -51.129773 
L 315.201273 -51.129773 
L 314.258678 -51.129773 
L 313.316084 -51.129773 
L 312.37349 -51.129773 
L 311.430896 -51.129773 
L 310.488301 -51.129773 
L 309.545707 -51.129773 
L 308.603113 -51.129773 
L 307.660519 -51.129773 
L 306.717924 -51.129773 
L 305.77533 -51.129773 
L 304.832736 -51.129773 
L 303.890141 -51.129773 
L 302.947547 -51.129773 
L 302.004953 -51.129773 
L 301.062359 -51.129773 
L 300.119764 -51.129773 
L 299.17717 -51.129773 
L 298.234576 -51.129773 
L 297.291981 -51.129773 
L 296.349387 -51.129773 
L 295.406793 -51.129773 
L 294.464199 -51.129773 
L 293.521604 -51.129773 
L 292.57901 -51.129773 
L 291.636416 -51.129773 
L 290.693822 -51.129773 
L 289.751227 -51.129773 
L 288.808633 -51.129773 
L 287.866039 -51.129773 
L 286.923444 -51.129773 
L 285.98085 -51.129773 
L 285.038256 -51.129773 
L 284.095662 -51.129773 
L 283.153067 -51.129773 
L 282.210473 -51.129773 
L 281.267879 -51.129773 
L 280.325284 -51.129773 
L 279.38269 -51.129773 
L 278.440096 -51.129773 
L 277.497502 -51.129773 
L 276.554907 -51.129773 
L 275.612313 -51.129773 
L 274.669719 -51.129773 
L 273.727124 -51.129773 
L 272.78453 -51.129773 
L 271.841936 -51.129773 
L 270.899342 -51.129773 
L 269.956747 -51.129773 
L 269.014153 -51.129773 
L 268.071559 -51.129773 
L 267.128965 -51.129773 
L 266.18637 -51.129773 
L 265.243776 -51.129773 
L 264.301182 -51.129773 
L 263.358587 -51.129773 
L 262.415993 -51.129773 
L 261.473399 -51.129773 
L 260.530805 -51.129773 
L 259.58821 -51.129773 
L 258.645616 -51.129773 
L 257.703022 -51.129773 
L 256.760427 -51.129773 
L 255.817833 -51.129773 
L 254.875239 -51.129773 
L 253.932645 -51.129773 
L 252.99005 -51.129773 
L 252.047456 -51.129773 
L 251.104862 -51.129773 
L 250.162267 -51.129773 
L 249.219673 -51.129773 
L 248.277079 -51.129773 
L 247.334485 -51.129773 
L 246.39189 -51.129773 
L 245.449296 -51.129773 
L 244.506702 -51.129773 
L 243.564108 -51.129773 
L 242.621513 -51.129773 
L 241.678919 -51.129773 
L 240.736325 -51.129773 
L 239.79373 -51.129773 
L 238.851136 -51.129773 
L 237.908542 -51.129773 
L 236.965948 -51.129773 
L 236.023353 -51.129773 
L 235.080759 -51.129773 
L 234.138165 -51.129773 
L 233.19557 -51.129773 
L 232.252976 -51.129773 
L 231.310382 -51.129773 
L 230.367788 -51.129773 
L 229.425193 -51.129773 
L 228.482599 -51.129773 
L 227.540005 -51.129773 
L 226.597411 -51.129773 
L 225.654816 -51.129773 
L 224.712222 -51.129773 
L 223.769628 -51.129773 
L 222.827033 -51.129773 
L 221.884439 -51.129773 
L 220.941845 -51.129773 
L 219.999251 -51.129773 
L 219.056656 -51.129773 
L 218.114062 -51.129773 
L 217.171468 -51.129773 
L 216.228873 -51.129773 
L 215.286279 -51.129773 
L 214.343685 -51.129773 
L 213.401091 -51.129773 
L 212.458496 -51.129773 
L 211.515902 -51.129773 
L 210.573308 -51.129773 
L 209.630713 -51.129773 
L 208.688119 -51.129773 
L 207.745525 -51.129773 
L 206.802931 -51.129773 
L 205.860336 -51.129773 
L 204.917742 -51.129773 
L 203.975148 -51.129773 
L 203.032554 -51.129773 
L 202.089959 -51.129773 
L 201.147365 -51.129773 
L 200.204771 -51.129773 
L 199.262176 -51.129773 
L 198.319582 -51.129773 
L 197.376988 -51.129773 
L 196.434394 -51.129773 
L 195.491799 -51.129773 
L 194.549205 -51.129773 
L 193.606611 -51.129773 
L 192.664016 -51.129773 
L 191.721422 -51.129773 
L 190.778828 -51.129773 
L 189.836234 -51.129773 
L 188.893639 -51.129773 
L 187.951045 -51.129773 
L 187.008451 -51.129773 
L 186.065856 -51.129773 
L 185.123262 -51.129773 
L 184.180668 -51.129773 
L 183.238074 -51.129773 
L 182.295479 -51.129773 
L 181.352885 -51.129773 
L 180.410291 -51.129773 
L 179.467697 -51.129773 
L 178.525102 -51.129773 
L 177.582508 -51.129773 
L 176.639914 -51.129773 
L 175.697319 -51.129773 
L 174.754725 -51.129773 
L 173.812131 -51.129773 
L 172.869537 -51.129773 
L 171.926942 -51.129773 
L 170.984348 -51.129773 
L 170.041754 -51.129773 
L 169.099159 -51.129773 
L 168.156565 -51.129773 
L 167.213971 -51.129773 
L 166.271377 -51.129773 
L 165.328782 -51.129773 
L 164.386188 -51.129773 
L 163.443594 -51.129773 
L 162.500999 -51.129773 
L 161.558405 -51.129773 
L 160.615811 -51.129773 
L 159.673217 -51.129773 
L 158.730622 -51.129773 
L 157.788028 -51.129773 
L 156.845434 -51.129773 
L 155.90284 -51.129773 
L 154.960245 -51.129773 
L 154.017651 -51.129773 
L 153.075057 -51.129773 
L 152.132462 -51.129773 
L 151.189868 -51.129773 
L 150.247274 -51.129773 
L 149.30468 -51.129773 
L 148.362085 -51.129773 
L 147.419491 -51.129773 
L 146.476897 -51.129773 
L 145.534302 -51.129773 
L 144.591708 -51.129773 
L 143.649114 -51.129773 
L 142.70652 -51.129773 
L 141.763925 -51.129773 
L 140.821331 -51.129773 
L 139.878737 -51.129773 
L 138.936143 -51.129773 
L 137.993548 -51.129773 
L 137.050954 -51.129773 
L 136.10836 -51.129773 
L 135.165765 -51.129773 
L 134.223171 -51.129773 
L 133.280577 -51.129773 
L 132.337983 -51.129773 
L 131.395388 -51.129773 
L 130.452794 -51.129773 
L 129.5102 -51.129773 
L 128.567605 -51.129773 
L 127.625011 -51.129773 
L 126.682417 -51.129773 
L 125.739823 -51.129773 
L 124.797228 -51.129773 
L 123.854634 -51.129773 
L 122.91204 -51.129773 
L 121.969445 -51.129773 
L 121.026851 -51.129773 
L 120.084257 -51.129773 
L 119.141663 -51.129773 
L 118.199068 -51.129773 
L 117.256474 -51.129773 
L 116.31388 -51.129773 
L 115.371286 -51.129773 
L 114.428691 -51.129773 
L 113.486097 -51.129773 
L 112.543503 -51.129773 
L 111.600908 -51.129773 
L 110.658314 -51.129773 
L 109.71572 -51.129773 
L 108.773126 -51.129773 
L 107.830531 -51.129773 
L 106.887937 -51.129773 
L 105.945343 -51.129773 
L 105.002748 -51.129773 
L 104.060154 -51.129773 
L 103.11756 -51.129773 
L 102.174966 -51.129773 
L 101.232371 -51.129773 
L 100.289777 -51.129773 
L 99.347183 -51.129773 
L 98.404588 -51.129773 
L 97.461994 -51.129773 
L 96.5194 -51.129773 
L 95.576806 -51.129773 
L 94.634211 -51.129773 
L 93.691617 -51.129773 
L 92.749023 -51.129773 
L 91.806429 -51.129773 
L 90.863834 -51.129773 
L 89.92124 -51.129773 
L 88.978646 -51.129773 
L 88.036051 -51.129773 
L 87.093457 -51.129773 
L 86.150863 -51.129773 
L 85.208269 -51.129773 
L 84.265674 -51.129773 
L 83.32308 -51.129773 
L 82.380486 -51.129773 
L 81.437891 -51.129773 
L 80.495297 -51.129773 
L 79.552703 -51.129773 
L 78.610109 -51.129773 
L 77.667514 -51.129773 
L 76.72492 -51.129773 
L 75.782326 -51.129773 
L 74.839732 -51.129773 
L 73.897137 -51.129773 
L 72.954543 -51.129773 
L 72.011949 -51.129773 
L 71.069354 -51.129773 
L 70.12676 -51.129773 
L 69.184166 -51.129773 
L 68.241572 -51.129773 
L 67.298977 -51.129773 
z
" style="stroke: #0000ff; stroke-opacity: 0.2"/>
    </defs>
    <g clip-path="url(#pa261960b84)">
     <use xlink:href="#m0cd709b7af" x="0" y="352.65125" style="fill: #0000ff; fill-opacity: 0.2; stroke: #0000ff; stroke-opacity: 0.2"/>
    </g>
   </g>
   <g id="matplotlib.axis_1">
    <g id="xtick_1">
     <g id="line2d_1">
      <path d="M 60.145623 314.816875 
L 60.145623 22.318125 
" clip-path="url(#pa261960b84)" style="fill: none; stroke: #b0b0b0; stroke-width: 0.8; stroke-linecap: square"/>
     </g>
     <g id="line2d_2">
      <defs>
       <path id="m8c3cb0f390" d="M 0 0 
L 0 3.5 
" style="stroke: #000000; stroke-width: 0.8"/>
      </defs>
      <g>
       <use xlink:href="#m8c3cb0f390" x="60.145623" y="314.816875" style="stroke: #000000; stroke-width: 0.8"/>
      </g>
     </g>
     <g id="text_1">
      <!-- 0.00 -->
      <g transform="translate(49.012811 329.415313) scale(0.1 -0.1)">
       <defs>
        <path id="DejaVuSans-30" d="M 2034 4250 
Q 1547 4250 1301 3770 
Q 1056 3291 1056 2328 
Q 1056 1369 1301 889 
Q 1547 409 2034 409 
Q 2525 409 2770 889 
Q 3016 1369 3016 2328 
Q 3016 3291 2770 3770 
Q 2525 4250 2034 4250 
z
M 2034 4750 
Q 2819 4750 3233 4129 
Q 3647 3509 3647 2328 
Q 3647 1150 3233 529 
Q 2819 -91 2034 -91 
Q 1250 -91 836 529 
Q 422 1150 422 2328 
Q 422 3509 836 4129 
Q 1250 4750 2034 4750 
z
" transform="scale(0.015625)"/>
        <path id="DejaVuSans-2e" d="M 684 794 
L 1344 794 
L 1344 0 
L 684 0 
L 684 794 
z
" transform="scale(0.015625)"/>
       </defs>
       <use xlink:href="#DejaVuSans-30"/>
       <use xlink:href="#DejaVuSans-2e" x="63.623047"/>
       <use xlink:href="#DejaVuSans-30" x="95.410156"/>
       <use xlink:href="#DejaVuSans-30" x="159.033203"/>
      </g>
     </g>
    </g>
    <g id="xtick_2">
     <g id="line2d_3">
      <path d="M 131.889612 314.816875 
L 131.889612 22.318125 
" clip-path="url(#pa261960b84)" style="fill: none; stroke: #b0b0b0; stroke-width: 0.8; stroke-linecap: square"/>
     </g>
     <g id="line2d_4">
      <g>
       <use xlink:href="#m8c3cb0f390" x="131.889612" y="314.816875" style="stroke: #000000; stroke-width: 0.8"/>
      </g>
     </g>
     <g id="text_2">
      <!-- 0.25 -->
      <g transform="translate(120.756799 329.415313) scale(0.1 -0.1)">
       <defs>
        <path id="DejaVuSans-32" d="M 1228 531 
L 3431 531 
L 3431 0 
L 469 0 
L 469 531 
Q 828 903 1448 1529 
Q 2069 2156 2228 2338 
Q 2531 2678 2651 2914 
Q 2772 3150 2772 3378 
Q 2772 3750 2511 3984 
Q 2250 4219 1831 4219 
Q 1534 4219 1204 4116 
Q 875 4013 500 3803 
L 500 4441 
Q 881 4594 1212 4672 
Q 1544 4750 1819 4750 
Q 2544 4750 2975 4387 
Q 3406 4025 3406 3419 
Q 3406 3131 3298 2873 
Q 3191 2616 2906 2266 
Q 2828 2175 2409 1742 
Q 1991 1309 1228 531 
z
" transform="scale(0.015625)"/>
        <path id="DejaVuSans-35" d="M 691 4666 
L 3169 4666 
L 3169 4134 
L 1269 4134 
L 1269 2991 
Q 1406 3038 1543 3061 
Q 1681 3084 1819 3084 
Q 2600 3084 3056 2656 
Q 3513 2228 3513 1497 
Q 3513 744 3044 326 
Q 2575 -91 1722 -91 
Q 1428 -91 1123 -41 
Q 819 9 494 109 
L 494 744 
Q 775 591 1075 516 
Q 1375 441 1709 441 
Q 2250 441 2565 725 
Q 2881 1009 2881 1497 
Q 2881 1984 2565 2268 
Q 2250 2553 1709 2553 
Q 1456 2553 1204 2497 
Q 953 2441 691 2322 
L 691 4666 
z
" transform="scale(0.015625)"/>
       </defs>
       <use xlink:href="#DejaVuSans-30"/>
       <use xlink:href="#DejaVuSans-2e" x="63.623047"/>
       <use xlink:href="#DejaVuSans-32" x="95.410156"/>
       <use xlink:href="#DejaVuSans-35" x="159.033203"/>
      </g>
     </g>
    </g>
    <g id="xtick_3">
     <g id="line2d_5">
      <path d="M 203.6336 314.816875 
L 203.6336 22.318125 
" clip-path="url(#pa261960b84)" style="fill: none; stroke: #b0b0b0; stroke-width: 0.8; stroke-linecap: square"/>
     </g>
     <g id="line2d_6">
      <g>
       <use xlink:href="#m8c3cb0f390" x="203.6336" y="314.816875" style="stroke: #000000; stroke-width: 0.8"/>
      </g>
     </g>
     <g id="text_3">
      <!-- 0.50 -->
      <g transform="translate(192.500788 329.415313) scale(0.1 -0.1)">
       <use xlink:href="#DejaVuSans-30"/>
       <use xlink:href="#DejaVuSans-2e" x="63.623047"/>
       <use xlink:href="#DejaVuSans-35" x="95.410156"/>
       <use xlink:href="#DejaVuSans-30" x="159.033203"/>
      </g>
     </g>
    </g>
    <g id="xtick_4">
     <g id="line2d_7">
      <path d="M 275.377589 314.816875 
L 275.377589 22.318125 
" clip-path="url(#pa261960b84)" style="fill: none; stroke: #b0b0b0; stroke-width: 0.8; stroke-linecap: square"/>
     </g>
     <g id="line2d_8">
      <g>
       <use xlink:href="#m8c3cb0f390" x="275.377589" y="314.816875" style="stroke: #000000; stroke-width: 0.8"/>
      </g>
     </g>
     <g id="text_4">
      <!-- 0.75 -->
      <g transform="translate(264.244776 329.415313) scale(0.1 -0.1)">
       <defs>
        <path id="DejaVuSans-37" d="M 525 4666 
L 3525 4666 
L 3525 4397 
L 1831 0 
L 1172 0 
L 2766 4134 
L 525 4134 
L 525 4666 
z
" transform="scale(0.015625)"/>
       </defs>
       <use xlink:href="#DejaVuSans-30"/>
       <use xlink:href="#DejaVuSans-2e" x="63.623047"/>
       <use xlink:href="#DejaVuSans-37" x="95.410156"/>
       <use xlink:href="#DejaVuSans-35" x="159.033203"/>
      </g>
     </g>
    </g>
    <g id="xtick_5">
     <g id="line2d_9">
      <path d="M 347.121577 314.816875 
L 347.121577 22.318125 
" clip-path="url(#pa261960b84)" style="fill: none; stroke: #b0b0b0; stroke-width: 0.8; stroke-linecap: square"/>
     </g>
     <g id="line2d_10">
      <g>
       <use xlink:href="#m8c3cb0f390" x="347.121577" y="314.816875" style="stroke: #000000; stroke-width: 0.8"/>
      </g>
     </g>
     <g id="text_5">
      <!-- 1.00 -->
      <g transform="translate(335.988765 329.415313) scale(0.1 -0.1)">
       <defs>
        <path id="DejaVuSans-31" d="M 794 531 
L 1825 531 
L 1825 4091 
L 703 3866 
L 703 4441 
L 1819 4666 
L 2450 4666 
L 2450 531 
L 3481 531 
L 3481 0 
L 794 0 
L 794 531 
z
" transform="scale(0.015625)"/>
       </defs>
       <use xlink:href="#DejaVuSans-31"/>
       <use xlink:href="#DejaVuSans-2e" x="63.623047"/>
       <use xlink:href="#DejaVuSans-30" x="95.410156"/>
       <use xlink:href="#DejaVuSans-30" x="159.033203"/>
      </g>
     </g>
    </g>
    <g id="xtick_6">
     <g id="line2d_11">
      <path d="M 418.865566 314.816875 
L 418.865566 22.318125 
" clip-path="url(#pa261960b84)" style="fill: none; stroke: #b0b0b0; stroke-width: 0.8; stroke-linecap: square"/>
     </g>
     <g id="line2d_12">
      <g>
       <use xlink:href="#m8c3cb0f390" x="418.865566" y="314.816875" style="stroke: #000000; stroke-width: 0.8"/>
      </g>
     </g>
     <g id="text_6">
      <!-- 1.25 -->
      <g transform="translate(407.732754 329.415313) scale(0.1 -0.1)">
       <use xlink:href="#DejaVuSans-31"/>
       <use xlink:href="#DejaVuSans-2e" x="63.623047"/>
       <use xlink:href="#DejaVuSans-32" x="95.410156"/>
       <use xlink:href="#DejaVuSans-35" x="159.033203"/>
      </g>
     </g>
    </g>
    <g id="xtick_7">
     <g id="line2d_13">
      <path d="M 490.609555 314.816875 
L 490.609555 22.318125 
" clip-path="url(#pa261960b84)" style="fill: none; stroke: #b0b0b0; stroke-width: 0.8; stroke-linecap: square"/>
     </g>
     <g id="line2d_14">
      <g>
       <use xlink:href="#m8c3cb0f390" x="490.609555" y="314.816875" style="stroke: #000000; stroke-width: 0.8"/>
      </g>
     </g>
     <g id="text_7">
      <!-- 1.50 -->
      <g transform="translate(479.476742 329.415313) scale(0.1 -0.1)">
       <use xlink:href="#DejaVuSans-31"/>
       <use xlink:href="#DejaVuSans-2e" x="63.623047"/>
       <use xlink:href="#DejaVuSans-35" x="95.410156"/>
       <use xlink:href="#DejaVuSans-30" x="159.033203"/>
      </g>
     </g>
    </g>
    <g id="text_8">
     <!-- fA_score -->
     <g transform="translate(281.362969 343.093437) scale(0.1 -0.1)">
      <defs>
       <path id="DejaVuSans-66" d="M 2375 4863 
L 2375 4384 
L 1825 4384 
Q 1516 4384 1395 4259 
Q 1275 4134 1275 3809 
L 1275 3500 
L 2222 3500 
L 2222 3053 
L 1275 3053 
L 1275 0 
L 697 0 
L 697 3053 
L 147 3053 
L 147 3500 
L 697 3500 
L 697 3744 
Q 697 4328 969 4595 
Q 1241 4863 1831 4863 
L 2375 4863 
z
" transform="scale(0.015625)"/>
       <path id="DejaVuSans-41" d="M 2188 4044 
L 1331 1722 
L 3047 1722 
L 2188 4044 
z
M 1831 4666 
L 2547 4666 
L 4325 0 
L 3669 0 
L 3244 1197 
L 1141 1197 
L 716 0 
L 50 0 
L 1831 4666 
z
" transform="scale(0.015625)"/>
       <path id="DejaVuSans-5f" d="M 3263 -1063 
L 3263 -1509 
L -63 -1509 
L -63 -1063 
L 3263 -1063 
z
" transform="scale(0.015625)"/>
       <path id="DejaVuSans-73" d="M 2834 3397 
L 2834 2853 
Q 2591 2978 2328 3040 
Q 2066 3103 1784 3103 
Q 1356 3103 1142 2972 
Q 928 2841 928 2578 
Q 928 2378 1081 2264 
Q 1234 2150 1697 2047 
L 1894 2003 
Q 2506 1872 2764 1633 
Q 3022 1394 3022 966 
Q 3022 478 2636 193 
Q 2250 -91 1575 -91 
Q 1294 -91 989 -36 
Q 684 19 347 128 
L 347 722 
Q 666 556 975 473 
Q 1284 391 1588 391 
Q 1994 391 2212 530 
Q 2431 669 2431 922 
Q 2431 1156 2273 1281 
Q 2116 1406 1581 1522 
L 1381 1569 
Q 847 1681 609 1914 
Q 372 2147 372 2553 
Q 372 3047 722 3315 
Q 1072 3584 1716 3584 
Q 2034 3584 2315 3537 
Q 2597 3491 2834 3397 
z
" transform="scale(0.015625)"/>
       <path id="DejaVuSans-63" d="M 3122 3366 
L 3122 2828 
Q 2878 2963 2633 3030 
Q 2388 3097 2138 3097 
Q 1578 3097 1268 2742 
Q 959 2388 959 1747 
Q 959 1106 1268 751 
Q 1578 397 2138 397 
Q 2388 397 2633 464 
Q 2878 531 3122 666 
L 3122 134 
Q 2881 22 2623 -34 
Q 2366 -91 2075 -91 
Q 1284 -91 818 406 
Q 353 903 353 1747 
Q 353 2603 823 3093 
Q 1294 3584 2113 3584 
Q 2378 3584 2631 3529 
Q 2884 3475 3122 3366 
z
" transform="scale(0.015625)"/>
       <path id="DejaVuSans-6f" d="M 1959 3097 
Q 1497 3097 1228 2736 
Q 959 2375 959 1747 
Q 959 1119 1226 758 
Q 1494 397 1959 397 
Q 2419 397 2687 759 
Q 2956 1122 2956 1747 
Q 2956 2369 2687 2733 
Q 2419 3097 1959 3097 
z
M 1959 3584 
Q 2709 3584 3137 3096 
Q 3566 2609 3566 1747 
Q 3566 888 3137 398 
Q 2709 -91 1959 -91 
Q 1206 -91 779 398 
Q 353 888 353 1747 
Q 353 2609 779 3096 
Q 1206 3584 1959 3584 
z
" transform="scale(0.015625)"/>
       <path id="DejaVuSans-72" d="M 2631 2963 
Q 2534 3019 2420 3045 
Q 2306 3072 2169 3072 
Q 1681 3072 1420 2755 
Q 1159 2438 1159 1844 
L 1159 0 
L 581 0 
L 581 3500 
L 1159 3500 
L 1159 2956 
Q 1341 3275 1631 3429 
Q 1922 3584 2338 3584 
Q 2397 3584 2469 3576 
Q 2541 3569 2628 3553 
L 2631 2963 
z
" transform="scale(0.015625)"/>
       <path id="DejaVuSans-65" d="M 3597 1894 
L 3597 1613 
L 953 1613 
Q 991 1019 1311 708 
Q 1631 397 2203 397 
Q 2534 397 2845 478 
Q 3156 559 3463 722 
L 3463 178 
Q 3153 47 2828 -22 
Q 2503 -91 2169 -91 
Q 1331 -91 842 396 
Q 353 884 353 1716 
Q 353 2575 817 3079 
Q 1281 3584 2069 3584 
Q 2775 3584 3186 3129 
Q 3597 2675 3597 1894 
z
M 3022 2063 
Q 3016 2534 2758 2815 
Q 2500 3097 2075 3097 
Q 1594 3097 1305 2825 
Q 1016 2553 972 2059 
L 3022 2063 
z
" transform="scale(0.015625)"/>
      </defs>
      <use xlink:href="#DejaVuSans-66"/>
      <use xlink:href="#DejaVuSans-41" x="35.205078"/>
      <use xlink:href="#DejaVuSans-5f" x="103.613281"/>
      <use xlink:href="#DejaVuSans-73" x="153.613281"/>
      <use xlink:href="#DejaVuSans-63" x="205.712891"/>
      <use xlink:href="#DejaVuSans-6f" x="260.693359"/>
      <use xlink:href="#DejaVuSans-72" x="321.875"/>
      <use xlink:href="#DejaVuSans-65" x="360.738281"/>
     </g>
    </g>
   </g>
   <g id="matplotlib.axis_2">
    <g id="ytick_1">
     <g id="line2d_15">
      <path d="M 43.78125 301.521477 
L 561.17125 301.521477 
" clip-path="url(#pa261960b84)" style="fill: none; stroke: #b0b0b0; stroke-width: 0.8; stroke-linecap: square"/>
     </g>
     <g id="line2d_16">
      <defs>
       <path id="ma35585cf68" d="M 0 0 
L -3.5 0 
" style="stroke: #000000; stroke-width: 0.8"/>
      </defs>
      <g>
       <use xlink:href="#ma35585cf68" x="43.78125" y="301.521477" style="stroke: #000000; stroke-width: 0.8"/>
      </g>
     </g>
     <g id="text_9">
      <!-- 0.0 -->
      <g transform="translate(20.878125 305.320696) scale(0.1 -0.1)">
       <use xlink:href="#DejaVuSans-30"/>
       <use xlink:href="#DejaVuSans-2e" x="63.623047"/>
       <use xlink:href="#DejaVuSans-30" x="95.410156"/>
      </g>
     </g>
    </g>
    <g id="ytick_2">
     <g id="line2d_17">
      <path d="M 43.78125 265.467704 
L 561.17125 265.467704 
" clip-path="url(#pa261960b84)" style="fill: none; stroke: #b0b0b0; stroke-width: 0.8; stroke-linecap: square"/>
     </g>
     <g id="line2d_18">
      <g>
       <use xlink:href="#ma35585cf68" x="43.78125" y="265.467704" style="stroke: #000000; stroke-width: 0.8"/>
      </g>
     </g>
     <g id="text_10">
      <!-- 0.5 -->
      <g transform="translate(20.878125 269.266923) scale(0.1 -0.1)">
       <use xlink:href="#DejaVuSans-30"/>
       <use xlink:href="#DejaVuSans-2e" x="63.623047"/>
       <use xlink:href="#DejaVuSans-35" x="95.410156"/>
      </g>
     </g>
    </g>
    <g id="ytick_3">
     <g id="line2d_19">
      <path d="M 43.78125 229.413931 
L 561.17125 229.413931 
" clip-path="url(#pa261960b84)" style="fill: none; stroke: #b0b0b0; stroke-width: 0.8; stroke-linecap: square"/>
     </g>
     <g id="line2d_20">
      <g>
       <use xlink:href="#ma35585cf68" x="43.78125" y="229.413931" style="stroke: #000000; stroke-width: 0.8"/>
      </g>
     </g>
     <g id="text_11">
      <!-- 1.0 -->
      <g transform="translate(20.878125 233.21315) scale(0.1 -0.1)">
       <use xlink:href="#DejaVuSans-31"/>
       <use xlink:href="#DejaVuSans-2e" x="63.623047"/>
       <use xlink:href="#DejaVuSans-30" x="95.410156"/>
      </g>
     </g>
    </g>
    <g id="ytick_4">
     <g id="line2d_21">
      <path d="M 43.78125 193.360158 
L 561.17125 193.360158 
" clip-path="url(#pa261960b84)" style="fill: none; stroke: #b0b0b0; stroke-width: 0.8; stroke-linecap: square"/>
     </g>
     <g id="line2d_22">
      <g>
       <use xlink:href="#ma35585cf68" x="43.78125" y="193.360158" style="stroke: #000000; stroke-width: 0.8"/>
      </g>
     </g>
     <g id="text_12">
      <!-- 1.5 -->
      <g transform="translate(20.878125 197.159377) scale(0.1 -0.1)">
       <use xlink:href="#DejaVuSans-31"/>
       <use xlink:href="#DejaVuSans-2e" x="63.623047"/>
       <use xlink:href="#DejaVuSans-35" x="95.410156"/>
      </g>
     </g>
    </g>
    <g id="ytick_5">
     <g id="line2d_23">
      <path d="M 43.78125 157.306385 
L 561.17125 157.306385 
" clip-path="url(#pa261960b84)" style="fill: none; stroke: #b0b0b0; stroke-width: 0.8; stroke-linecap: square"/>
     </g>
     <g id="line2d_24">
      <g>
       <use xlink:href="#ma35585cf68" x="43.78125" y="157.306385" style="stroke: #000000; stroke-width: 0.8"/>
      </g>
     </g>
     <g id="text_13">
      <!-- 2.0 -->
      <g transform="translate(20.878125 161.105604) scale(0.1 -0.1)">
       <use xlink:href="#DejaVuSans-32"/>
       <use xlink:href="#DejaVuSans-2e" x="63.623047"/>
       <use xlink:href="#DejaVuSans-30" x="95.410156"/>
      </g>
     </g>
    </g>
    <g id="ytick_6">
     <g id="line2d_25">
      <path d="M 43.78125 121.252612 
L 561.17125 121.252612 
" clip-path="url(#pa261960b84)" style="fill: none; stroke: #b0b0b0; stroke-width: 0.8; stroke-linecap: square"/>
     </g>
     <g id="line2d_26">
      <g>
       <use xlink:href="#ma35585cf68" x="43.78125" y="121.252612" style="stroke: #000000; stroke-width: 0.8"/>
      </g>
     </g>
     <g id="text_14">
      <!-- 2.5 -->
      <g transform="translate(20.878125 125.051831) scale(0.1 -0.1)">
       <use xlink:href="#DejaVuSans-32"/>
       <use xlink:href="#DejaVuSans-2e" x="63.623047"/>
       <use xlink:href="#DejaVuSans-35" x="95.410156"/>
      </g>
     </g>
    </g>
    <g id="ytick_7">
     <g id="line2d_27">
      <path d="M 43.78125 85.198839 
L 561.17125 85.198839 
" clip-path="url(#pa261960b84)" style="fill: none; stroke: #b0b0b0; stroke-width: 0.8; stroke-linecap: square"/>
     </g>
     <g id="line2d_28">
      <g>
       <use xlink:href="#ma35585cf68" x="43.78125" y="85.198839" style="stroke: #000000; stroke-width: 0.8"/>
      </g>
     </g>
     <g id="text_15">
      <!-- 3.0 -->
      <g transform="translate(20.878125 88.998058) scale(0.1 -0.1)">
       <defs>
        <path id="DejaVuSans-33" d="M 2597 2516 
Q 3050 2419 3304 2112 
Q 3559 1806 3559 1356 
Q 3559 666 3084 287 
Q 2609 -91 1734 -91 
Q 1441 -91 1130 -33 
Q 819 25 488 141 
L 488 750 
Q 750 597 1062 519 
Q 1375 441 1716 441 
Q 2309 441 2620 675 
Q 2931 909 2931 1356 
Q 2931 1769 2642 2001 
Q 2353 2234 1838 2234 
L 1294 2234 
L 1294 2753 
L 1863 2753 
Q 2328 2753 2575 2939 
Q 2822 3125 2822 3475 
Q 2822 3834 2567 4026 
Q 2313 4219 1838 4219 
Q 1578 4219 1281 4162 
Q 984 4106 628 3988 
L 628 4550 
Q 988 4650 1302 4700 
Q 1616 4750 1894 4750 
Q 2613 4750 3031 4423 
Q 3450 4097 3450 3541 
Q 3450 3153 3228 2886 
Q 3006 2619 2597 2516 
z
" transform="scale(0.015625)"/>
       </defs>
       <use xlink:href="#DejaVuSans-33"/>
       <use xlink:href="#DejaVuSans-2e" x="63.623047"/>
       <use xlink:href="#DejaVuSans-30" x="95.410156"/>
      </g>
     </g>
    </g>
    <g id="ytick_8">
     <g id="line2d_29">
      <path d="M 43.78125 49.145066 
L 561.17125 49.145066 
" clip-path="url(#pa261960b84)" style="fill: none; stroke: #b0b0b0; stroke-width: 0.8; stroke-linecap: square"/>
     </g>
     <g id="line2d_30">
      <g>
       <use xlink:href="#ma35585cf68" x="43.78125" y="49.145066" style="stroke: #000000; stroke-width: 0.8"/>
      </g>
     </g>
     <g id="text_16">
      <!-- 3.5 -->
      <g transform="translate(20.878125 52.944284) scale(0.1 -0.1)">
       <use xlink:href="#DejaVuSans-33"/>
       <use xlink:href="#DejaVuSans-2e" x="63.623047"/>
       <use xlink:href="#DejaVuSans-35" x="95.410156"/>
      </g>
     </g>
    </g>
    <g id="text_17">
     <!-- Density -->
     <g transform="translate(14.798438 187.576094) rotate(-90) scale(0.1 -0.1)">
      <defs>
       <path id="DejaVuSans-44" d="M 1259 4147 
L 1259 519 
L 2022 519 
Q 2988 519 3436 956 
Q 3884 1394 3884 2338 
Q 3884 3275 3436 3711 
Q 2988 4147 2022 4147 
L 1259 4147 
z
M 628 4666 
L 1925 4666 
Q 3281 4666 3915 4102 
Q 4550 3538 4550 2338 
Q 4550 1131 3912 565 
Q 3275 0 1925 0 
L 628 0 
L 628 4666 
z
" transform="scale(0.015625)"/>
       <path id="DejaVuSans-6e" d="M 3513 2113 
L 3513 0 
L 2938 0 
L 2938 2094 
Q 2938 2591 2744 2837 
Q 2550 3084 2163 3084 
Q 1697 3084 1428 2787 
Q 1159 2491 1159 1978 
L 1159 0 
L 581 0 
L 581 3500 
L 1159 3500 
L 1159 2956 
Q 1366 3272 1645 3428 
Q 1925 3584 2291 3584 
Q 2894 3584 3203 3211 
Q 3513 2838 3513 2113 
z
" transform="scale(0.015625)"/>
       <path id="DejaVuSans-69" d="M 603 3500 
L 1178 3500 
L 1178 0 
L 603 0 
L 603 3500 
z
M 603 4863 
L 1178 4863 
L 1178 4134 
L 603 4134 
L 603 4863 
z
" transform="scale(0.015625)"/>
       <path id="DejaVuSans-74" d="M 1172 4494 
L 1172 3500 
L 2356 3500 
L 2356 3053 
L 1172 3053 
L 1172 1153 
Q 1172 725 1289 603 
Q 1406 481 1766 481 
L 2356 481 
L 2356 0 
L 1766 0 
Q 1100 0 847 248 
Q 594 497 594 1153 
L 594 3053 
L 172 3053 
L 172 3500 
L 594 3500 
L 594 4494 
L 1172 4494 
z
" transform="scale(0.015625)"/>
       <path id="DejaVuSans-79" d="M 2059 -325 
Q 1816 -950 1584 -1140 
Q 1353 -1331 966 -1331 
L 506 -1331 
L 506 -850 
L 844 -850 
Q 1081 -850 1212 -737 
Q 1344 -625 1503 -206 
L 1606 56 
L 191 3500 
L 800 3500 
L 1894 763 
L 2988 3500 
L 3597 3500 
L 2059 -325 
z
" transform="scale(0.015625)"/>
      </defs>
      <use xlink:href="#DejaVuSans-44"/>
      <use xlink:href="#DejaVuSans-65" x="77.001953"/>
      <use xlink:href="#DejaVuSans-6e" x="138.525391"/>
      <use xlink:href="#DejaVuSans-73" x="201.904297"/>
      <use xlink:href="#DejaVuSans-69" x="254.003906"/>
      <use xlink:href="#DejaVuSans-74" x="281.787109"/>
      <use xlink:href="#DejaVuSans-79" x="320.996094"/>
     </g>
    </g>
   </g>
   <g id="line2d_31">
    <path d="M 67.298977 222.421011 
L 70.12676 207.706624 
L 73.897137 186.790967 
L 84.265674 128.180295 
L 87.093457 113.551602 
L 89.92124 100.021212 
L 92.749023 87.755748 
L 94.634211 80.337262 
L 96.5194 73.552462 
L 98.404588 67.419458 
L 100.289777 61.955817 
L 102.174966 57.181772 
L 104.060154 53.122765 
L 105.945343 49.810977 
L 106.887937 48.447291 
L 107.830531 47.285629 
L 108.773126 46.331823 
L 109.71572 45.591943 
L 110.658314 45.072192 
L 111.600908 44.778794 
L 112.543503 44.717857 
L 113.486097 44.895231 
L 114.428691 45.316366 
L 115.371286 45.986153 
L 116.31388 46.908771 
L 117.256474 48.087545 
L 118.199068 49.524799 
L 119.141663 51.221726 
L 120.084257 53.178275 
L 121.969445 57.863221 
L 123.854634 63.551021 
L 125.739823 70.188947 
L 127.625011 77.700201 
L 129.5102 85.985505 
L 132.337983 99.600762 
L 136.10836 119.241883 
L 143.649114 159.275589 
L 146.476897 173.22623 
L 149.30468 186.111336 
L 152.132462 197.760085 
L 154.017651 204.799582 
L 155.90284 211.255857 
L 157.788028 217.143539 
L 159.673217 222.488876 
L 161.558405 227.326871 
L 163.443594 231.698493 
L 165.328782 235.6481 
L 167.213971 239.221196 
L 169.099159 242.462571 
L 171.926942 246.795139 
L 174.754725 250.60679 
L 177.582508 254.008655 
L 180.410291 257.09279 
L 184.180668 260.839225 
L 188.893639 265.131746 
L 196.434394 271.592727 
L 217.171468 289.029379 
L 220.941845 291.750168 
L 223.769628 293.570687 
L 226.597411 295.177975 
L 229.425193 296.561919 
L 232.252976 297.723519 
L 235.080759 298.673537 
L 237.908542 299.430233 
L 241.678919 300.178625 
L 245.449296 300.683719 
L 250.162267 301.057159 
L 255.817833 301.235158 
L 261.473399 301.189406 
L 267.128965 300.922104 
L 271.841936 300.49116 
L 276.554907 299.824132 
L 281.267879 298.890446 
L 285.98085 297.69968 
L 292.57901 295.751211 
L 299.17717 293.867494 
L 302.947547 293.034823 
L 305.77533 292.602473 
L 308.603113 292.368514 
L 311.430896 292.349299 
L 314.258678 292.546184 
L 317.086461 292.94537 
L 320.856838 293.743449 
L 325.56981 295.035026 
L 336.880941 298.318071 
L 341.593913 299.38772 
L 346.306884 300.191113 
L 351.019855 300.745071 
L 356.675421 301.148624 
L 363.273581 301.380987 
L 373.642118 301.498151 
L 406.632918 301.521468 
L 537.653523 301.521477 
L 537.653523 301.521477 
" clip-path="url(#pa261960b84)" style="fill: none; stroke: #ff0000; stroke-opacity: 0.7; stroke-width: 1.5; stroke-linecap: square"/>
   </g>
   <g id="line2d_32">
    <path d="M 67.298977 219.623492 
L 70.12676 198.327854 
L 72.954543 175.228577 
L 81.437891 104.44378 
L 83.32308 90.393244 
L 85.208269 77.579811 
L 87.093457 66.233251 
L 88.978646 56.536733 
L 90.863834 48.622312 
L 91.806429 45.360212 
L 92.749023 42.569254 
L 93.691617 40.251254 
L 94.634211 38.404964 
L 95.576806 37.026222 
L 96.5194 36.108116 
L 97.461994 35.641165 
L 98.404588 35.613523 
L 99.347183 36.011185 
L 100.289777 36.818212 
L 101.232371 38.016948 
L 102.174966 39.588248 
L 103.11756 41.511702 
L 104.060154 43.765853 
L 105.945343 49.176492 
L 107.830531 55.635645 
L 109.71572 62.955093 
L 112.543503 75.141656 
L 116.31388 92.732948 
L 123.854634 128.28111 
L 127.625011 144.718338 
L 130.452794 156.159304 
L 133.280577 166.821461 
L 136.10836 176.759512 
L 139.878737 189.046388 
L 143.649114 200.451163 
L 147.419491 211.153052 
L 151.189868 221.217792 
L 154.960245 230.59544 
L 157.788028 237.1038 
L 160.615811 243.095497 
L 163.443594 248.521066 
L 166.271377 253.35289 
L 169.099159 257.590889 
L 171.926942 261.262359 
L 174.754725 264.41666 
L 177.582508 267.116449 
L 180.410291 269.427702 
L 183.238074 271.410823 
L 186.065856 273.11463 
L 188.893639 274.57405 
L 191.721422 275.811401 
L 194.549205 276.840229 
L 197.376988 277.670347 
L 200.204771 278.312681 
L 203.975148 278.905121 
L 207.745525 279.248314 
L 212.458496 279.443228 
L 224.712222 279.825196 
L 230.367788 280.311175 
L 237.908542 281.245196 
L 245.449296 282.15676 
L 250.162267 282.520855 
L 254.875239 282.645483 
L 259.58821 282.536288 
L 267.128965 282.080765 
L 274.669719 281.690845 
L 280.325284 281.629109 
L 285.98085 281.800232 
L 290.693822 282.13433 
L 295.406793 282.677929 
L 300.119764 283.467576 
L 304.832736 284.505642 
L 310.488301 286.002309 
L 334.053158 292.533877 
L 345.36429 295.540653 
L 350.077261 296.576133 
L 354.790233 297.380345 
L 360.445798 298.07112 
L 388.723627 300.838259 
L 395.321787 301.222758 
L 402.862541 301.432242 
L 415.116266 301.514753 
L 493.351592 301.520291 
L 518.801637 301.410582 
L 537.653523 301.219029 
L 537.653523 301.219029 
" clip-path="url(#pa261960b84)" style="fill: none; stroke: #0000ff; stroke-opacity: 0.7; stroke-width: 1.5; stroke-linecap: square"/>
   </g>
   <g id="patch_3">
    <path d="M 43.78125 314.816875 
L 43.78125 22.318125 
" style="fill: none; stroke: #000000; stroke-width: 0.8; stroke-linejoin: miter; stroke-linecap: square"/>
   </g>
   <g id="patch_4">
    <path d="M 561.17125 314.816875 
L 561.17125 22.318125 
" style="fill: none; stroke: #000000; stroke-width: 0.8; stroke-linejoin: miter; stroke-linecap: square"/>
   </g>
   <g id="patch_5">
    <path d="M 43.78125 314.816875 
L 561.17125 314.816875 
" style="fill: none; stroke: #000000; stroke-width: 0.8; stroke-linejoin: miter; stroke-linecap: square"/>
   </g>
   <g id="patch_6">
    <path d="M 43.78125 22.318125 
L 561.17125 22.318125 
" style="fill: none; stroke: #000000; stroke-width: 0.8; stroke-linejoin: miter; stroke-linecap: square"/>
   </g>
   <g id="text_18">
    <!-- Feature Distribution for fA_score -->
    <g transform="translate(205.499375 16.318125) scale(0.12 -0.12)">
     <defs>
      <path id="DejaVuSans-46" d="M 628 4666 
L 3309 4666 
L 3309 4134 
L 1259 4134 
L 1259 2759 
L 3109 2759 
L 3109 2228 
L 1259 2228 
L 1259 0 
L 628 0 
L 628 4666 
z
" transform="scale(0.015625)"/>
      <path id="DejaVuSans-61" d="M 2194 1759 
Q 1497 1759 1228 1600 
Q 959 1441 959 1056 
Q 959 750 1161 570 
Q 1363 391 1709 391 
Q 2188 391 2477 730 
Q 2766 1069 2766 1631 
L 2766 1759 
L 2194 1759 
z
M 3341 1997 
L 3341 0 
L 2766 0 
L 2766 531 
Q 2569 213 2275 61 
Q 1981 -91 1556 -91 
Q 1019 -91 701 211 
Q 384 513 384 1019 
Q 384 1609 779 1909 
Q 1175 2209 1959 2209 
L 2766 2209 
L 2766 2266 
Q 2766 2663 2505 2880 
Q 2244 3097 1772 3097 
Q 1472 3097 1187 3025 
Q 903 2953 641 2809 
L 641 3341 
Q 956 3463 1253 3523 
Q 1550 3584 1831 3584 
Q 2591 3584 2966 3190 
Q 3341 2797 3341 1997 
z
" transform="scale(0.015625)"/>
      <path id="DejaVuSans-75" d="M 544 1381 
L 544 3500 
L 1119 3500 
L 1119 1403 
Q 1119 906 1312 657 
Q 1506 409 1894 409 
Q 2359 409 2629 706 
Q 2900 1003 2900 1516 
L 2900 3500 
L 3475 3500 
L 3475 0 
L 2900 0 
L 2900 538 
Q 2691 219 2414 64 
Q 2138 -91 1772 -91 
Q 1169 -91 856 284 
Q 544 659 544 1381 
z
M 1991 3584 
L 1991 3584 
z
" transform="scale(0.015625)"/>
      <path id="DejaVuSans-20" transform="scale(0.015625)"/>
      <path id="DejaVuSans-62" d="M 3116 1747 
Q 3116 2381 2855 2742 
Q 2594 3103 2138 3103 
Q 1681 3103 1420 2742 
Q 1159 2381 1159 1747 
Q 1159 1113 1420 752 
Q 1681 391 2138 391 
Q 2594 391 2855 752 
Q 3116 1113 3116 1747 
z
M 1159 2969 
Q 1341 3281 1617 3432 
Q 1894 3584 2278 3584 
Q 2916 3584 3314 3078 
Q 3713 2572 3713 1747 
Q 3713 922 3314 415 
Q 2916 -91 2278 -91 
Q 1894 -91 1617 61 
Q 1341 213 1159 525 
L 1159 0 
L 581 0 
L 581 4863 
L 1159 4863 
L 1159 2969 
z
" transform="scale(0.015625)"/>
     </defs>
     <use xlink:href="#DejaVuSans-46"/>
     <use xlink:href="#DejaVuSans-65" x="52.019531"/>
     <use xlink:href="#DejaVuSans-61" x="113.542969"/>
     <use xlink:href="#DejaVuSans-74" x="174.822266"/>
     <use xlink:href="#DejaVuSans-75" x="214.03125"/>
     <use xlink:href="#DejaVuSans-72" x="277.410156"/>
     <use xlink:href="#DejaVuSans-65" x="316.273438"/>
     <use xlink:href="#DejaVuSans-20" x="377.796875"/>
     <use xlink:href="#DejaVuSans-44" x="409.583984"/>
     <use xlink:href="#DejaVuSans-69" x="486.585938"/>
     <use xlink:href="#DejaVuSans-73" x="514.369141"/>
     <use xlink:href="#DejaVuSans-74" x="566.46875"/>
     <use xlink:href="#DejaVuSans-72" x="605.677734"/>
     <use xlink:href="#DejaVuSans-69" x="646.791016"/>
     <use xlink:href="#DejaVuSans-62" x="674.574219"/>
     <use xlink:href="#DejaVuSans-75" x="738.050781"/>
     <use xlink:href="#DejaVuSans-74" x="801.429688"/>
     <use xlink:href="#DejaVuSans-69" x="840.638672"/>
     <use xlink:href="#DejaVuSans-6f" x="868.421875"/>
     <use xlink:href="#DejaVuSans-6e" x="929.603516"/>
     <use xlink:href="#DejaVuSans-20" x="992.982422"/>
     <use xlink:href="#DejaVuSans-66" x="1024.769531"/>
     <use xlink:href="#DejaVuSans-6f" x="1059.974609"/>
     <use xlink:href="#DejaVuSans-72" x="1121.15625"/>
     <use xlink:href="#DejaVuSans-20" x="1162.269531"/>
     <use xlink:href="#DejaVuSans-66" x="1194.056641"/>
     <use xlink:href="#DejaVuSans-41" x="1229.261719"/>
     <use xlink:href="#DejaVuSans-5f" x="1297.669922"/>
     <use xlink:href="#DejaVuSans-73" x="1347.669922"/>
     <use xlink:href="#DejaVuSans-63" x="1399.769531"/>
     <use xlink:href="#DejaVuSans-6f" x="1454.75"/>
     <use xlink:href="#DejaVuSans-72" x="1515.931641"/>
     <use xlink:href="#DejaVuSans-65" x="1554.794922"/>
    </g>
   </g>
   <g id="legend_1">
    <g id="patch_7">
     <path d="M 447.043125 59.674375 
L 554.17125 59.674375 
Q 556.17125 59.674375 556.17125 57.674375 
L 556.17125 29.318125 
Q 556.17125 27.318125 554.17125 27.318125 
L 447.043125 27.318125 
Q 445.043125 27.318125 445.043125 29.318125 
L 445.043125 57.674375 
Q 445.043125 59.674375 447.043125 59.674375 
z
" style="fill: #ffffff; opacity: 0.8; stroke: #cccccc; stroke-linejoin: miter"/>
    </g>
    <g id="line2d_33">
     <path d="M 449.043125 35.416562 
L 459.043125 35.416562 
L 469.043125 35.416562 
" style="fill: none; stroke: #ff0000; stroke-opacity: 0.7; stroke-width: 1.5; stroke-linecap: square"/>
    </g>
    <g id="text_19">
     <!-- Melanoma -->
     <g transform="translate(477.043125 38.916562) scale(0.1 -0.1)">
      <defs>
       <path id="DejaVuSans-4d" d="M 628 4666 
L 1569 4666 
L 2759 1491 
L 3956 4666 
L 4897 4666 
L 4897 0 
L 4281 0 
L 4281 4097 
L 3078 897 
L 2444 897 
L 1241 4097 
L 1241 0 
L 628 0 
L 628 4666 
z
" transform="scale(0.015625)"/>
       <path id="DejaVuSans-6c" d="M 603 4863 
L 1178 4863 
L 1178 0 
L 603 0 
L 603 4863 
z
" transform="scale(0.015625)"/>
       <path id="DejaVuSans-6d" d="M 3328 2828 
Q 3544 3216 3844 3400 
Q 4144 3584 4550 3584 
Q 5097 3584 5394 3201 
Q 5691 2819 5691 2113 
L 5691 0 
L 5113 0 
L 5113 2094 
Q 5113 2597 4934 2840 
Q 4756 3084 4391 3084 
Q 3944 3084 3684 2787 
Q 3425 2491 3425 1978 
L 3425 0 
L 2847 0 
L 2847 2094 
Q 2847 2600 2669 2842 
Q 2491 3084 2119 3084 
Q 1678 3084 1418 2786 
Q 1159 2488 1159 1978 
L 1159 0 
L 581 0 
L 581 3500 
L 1159 3500 
L 1159 2956 
Q 1356 3278 1631 3431 
Q 1906 3584 2284 3584 
Q 2666 3584 2933 3390 
Q 3200 3197 3328 2828 
z
" transform="scale(0.015625)"/>
      </defs>
      <use xlink:href="#DejaVuSans-4d"/>
      <use xlink:href="#DejaVuSans-65" x="86.279297"/>
      <use xlink:href="#DejaVuSans-6c" x="147.802734"/>
      <use xlink:href="#DejaVuSans-61" x="175.585938"/>
      <use xlink:href="#DejaVuSans-6e" x="236.865234"/>
      <use xlink:href="#DejaVuSans-6f" x="300.244141"/>
      <use xlink:href="#DejaVuSans-6d" x="361.425781"/>
      <use xlink:href="#DejaVuSans-61" x="458.837891"/>
     </g>
    </g>
    <g id="line2d_34">
     <path d="M 449.043125 50.094688 
L 459.043125 50.094688 
L 469.043125 50.094688 
" style="fill: none; stroke: #0000ff; stroke-opacity: 0.7; stroke-width: 1.5; stroke-linecap: square"/>
    </g>
    <g id="text_20">
     <!-- Non Melanoma -->
     <g transform="translate(477.043125 53.594688) scale(0.1 -0.1)">
      <defs>
       <path id="DejaVuSans-4e" d="M 628 4666 
L 1478 4666 
L 3547 763 
L 3547 4666 
L 4159 4666 
L 4159 0 
L 3309 0 
L 1241 3903 
L 1241 0 
L 628 0 
L 628 4666 
z
" transform="scale(0.015625)"/>
      </defs>
      <use xlink:href="#DejaVuSans-4e"/>
      <use xlink:href="#DejaVuSans-6f" x="74.804688"/>
      <use xlink:href="#DejaVuSans-6e" x="135.986328"/>
      <use xlink:href="#DejaVuSans-20" x="199.365234"/>
      <use xlink:href="#DejaVuSans-4d" x="231.152344"/>
      <use xlink:href="#DejaVuSans-65" x="317.431641"/>
      <use xlink:href="#DejaVuSans-6c" x="378.955078"/>
      <use xlink:href="#DejaVuSans-61" x="406.738281"/>
      <use xlink:href="#DejaVuSans-6e" x="468.017578"/>
      <use xlink:href="#DejaVuSans-6f" x="531.396484"/>
      <use xlink:href="#DejaVuSans-6d" x="592.578125"/>
      <use xlink:href="#DejaVuSans-61" x="689.990234"/>
     </g>
    </g>
   </g>
  </g>
 </g>
 <defs>
  <clipPath id="pa261960b84">
   <rect x="43.78125" y="22.318125" width="517.39" height="292.49875"/>
  </clipPath>
 </defs>
</svg>
