<?xml version="1.0" encoding="utf-8" standalone="no"?>
<!DOCTYPE svg PUBLIC "-//W3C//DTD SVG 1.1//EN"
  "http://www.w3.org/Graphics/SVG/1.1/DTD/svg11.dtd">
<svg xmlns:xlink="http://www.w3.org/1999/xlink" width="568.238023pt" height="352.65125pt" viewBox="0 0 568.238023 352.65125" xmlns="http://www.w3.org/2000/svg" version="1.1">
 <metadata>
  <rdf:RDF xmlns:dc="http://purl.org/dc/elements/1.1/" xmlns:cc="http://creativecommons.org/ns#" xmlns:rdf="http://www.w3.org/1999/02/22-rdf-syntax-ns#">
   <cc:Work>
    <dc:type rdf:resource="http://purl.org/dc/dcmitype/StillImage"/>
    <dc:date>2025-05-25T15:29:03.344004</dc:date>
    <dc:format>image/svg+xml</dc:format>
    <dc:creator>
     <cc:Agent>
      <dc:title>Matplotlib v3.8.4, https://matplotlib.org/</dc:title>
     </cc:Agent>
    </dc:creator>
   </cc:Work>
  </rdf:RDF>
 </metadata>
 <defs>
  <style type="text/css">*{stroke-linejoin: round; stroke-linecap: butt}</style>
 </defs>
 <g id="figure_1">
  <g id="patch_1">
   <path d="M 0 352.65125 
L 568.238023 352.65125 
L 568.238023 0 
L 0 0 
z
" style="fill: #ffffff"/>
  </g>
  <g id="axes_1">
   <g id="patch_2">
    <path d="M 40.603125 314.816875 
L 553.790798 314.816875 
L 553.790798 22.318125 
L 40.603125 22.318125 
z
" style="fill: #ffffff"/>
   </g>
   <g id="PolyCollection_1">
    <defs>
     <path id="m13d02a6e75" d="M 63.929837 -51.129773 
L 63.929837 -85.193718 
L 64.864776 -85.28325 
L 65.799714 -85.362724 
L 66.734653 -85.432103 
L 67.669591 -85.491362 
L 68.604529 -85.540484 
L 69.539468 -85.579466 
L 70.474406 -85.608311 
L 71.409344 -85.627035 
L 72.344283 -85.635664 
L 73.279221 -85.634232 
L 74.21416 -85.622787 
L 75.149098 -85.601384 
L 76.084036 -85.570089 
L 77.018975 -85.528976 
L 77.953913 -85.478131 
L 78.888851 -85.417648 
L 79.82379 -85.347632 
L 80.758728 -85.268195 
L 81.693667 -85.179458 
L 82.628605 -85.081553 
L 83.563543 -84.974619 
L 84.498482 -84.858801 
L 85.43342 -84.734256 
L 86.368358 -84.601145 
L 87.303297 -84.45964 
L 88.238235 -84.309917 
L 89.173174 -84.15216 
L 90.108112 -83.98656 
L 91.04305 -83.813313 
L 91.977989 -83.632622 
L 92.912927 -83.444695 
L 93.847865 -83.249744 
L 94.782804 -83.047989 
L 95.717742 -82.839651 
L 96.652681 -82.624958 
L 97.587619 -82.404138 
L 98.522557 -82.177427 
L 99.457496 -81.945062 
L 100.392434 -81.70728 
L 101.327372 -81.464326 
L 102.262311 -81.216441 
L 103.197249 -80.963872 
L 104.132187 -80.706866 
L 105.067126 -80.445669 
L 106.002064 -80.180531 
L 106.937003 -79.911698 
L 107.871941 -79.63942 
L 108.806879 -79.363943 
L 109.741818 -79.085515 
L 110.676756 -78.804382 
L 111.611694 -78.520786 
L 112.546633 -78.234971 
L 113.481571 -77.947177 
L 114.41651 -77.657641 
L 115.351448 -77.366599 
L 116.286386 -77.074283 
L 117.221325 -76.780921 
L 118.156263 -76.48674 
L 119.091201 -76.19196 
L 120.02614 -75.8968 
L 120.961078 -75.601473 
L 121.896017 -75.306189 
L 122.830955 -75.011152 
L 123.765893 -74.716561 
L 124.700832 -74.422612 
L 125.63577 -74.129494 
L 126.570708 -73.837391 
L 127.505647 -73.546482 
L 128.440585 -73.256941 
L 129.375524 -72.968936 
L 130.310462 -72.682627 
L 131.2454 -72.398172 
L 132.180339 -72.11572 
L 133.115277 -71.835415 
L 134.050215 -71.557395 
L 134.985154 -71.281792 
L 135.920092 -71.008732 
L 136.855031 -70.738333 
L 137.789969 -70.47071 
L 138.724907 -70.205969 
L 139.659846 -69.94421 
L 140.594784 -69.685529 
L 141.529722 -69.430015 
L 142.464661 -69.177749 
L 143.399599 -68.928807 
L 144.334538 -68.683261 
L 145.269476 -68.441175 
L 146.204414 -68.202607 
L 147.139353 -67.96761 
L 148.074291 -67.736231 
L 149.009229 -67.508511 
L 149.944168 -67.284488 
L 150.879106 -67.06419 
L 151.814045 -66.847645 
L 152.748983 -66.634871 
L 153.683921 -66.425885 
L 154.61886 -66.220696 
L 155.553798 -66.019311 
L 156.488736 -65.821729 
L 157.423675 -65.627949 
L 158.358613 -65.437962 
L 159.293552 -65.251755 
L 160.22849 -65.069314 
L 161.163428 -64.890618 
L 162.098367 -64.715644 
L 163.033305 -64.544364 
L 163.968243 -64.376749 
L 164.903182 -64.212764 
L 165.83812 -64.052372 
L 166.773059 -63.895534 
L 167.707997 -63.742207 
L 168.642935 -63.592347 
L 169.577874 -63.445905 
L 170.512812 -63.302831 
L 171.44775 -63.163074 
L 172.382689 -63.026579 
L 173.317627 -62.89329 
L 174.252566 -62.76315 
L 175.187504 -62.636099 
L 176.122442 -62.512078 
L 177.057381 -62.391023 
L 177.992319 -62.272872 
L 178.927257 -62.157561 
L 179.862196 -62.045025 
L 180.797134 -61.935198 
L 181.732073 -61.828014 
L 182.667011 -61.723406 
L 183.601949 -61.621306 
L 184.536888 -61.521648 
L 185.471826 -61.424363 
L 186.406764 -61.329384 
L 187.341703 -61.236643 
L 188.276641 -61.146073 
L 189.211579 -61.057606 
L 190.146518 -60.971176 
L 191.081456 -60.886715 
L 192.016395 -60.804158 
L 192.951333 -60.723439 
L 193.886271 -60.644493 
L 194.82121 -60.567256 
L 195.756148 -60.491665 
L 196.691086 -60.417657 
L 197.626025 -60.345171 
L 198.560963 -60.274146 
L 199.495902 -60.204522 
L 200.43084 -60.136241 
L 201.365778 -60.069246 
L 202.300717 -60.00348 
L 203.235655 -59.938887 
L 204.170593 -59.875415 
L 205.105532 -59.813011 
L 206.04047 -59.751622 
L 206.975409 -59.6912 
L 207.910347 -59.631696 
L 208.845285 -59.573062 
L 209.780224 -59.515252 
L 210.715162 -59.458222 
L 211.6501 -59.401929 
L 212.585039 -59.346331 
L 213.519977 -59.291387 
L 214.454916 -59.237058 
L 215.389854 -59.183308 
L 216.324792 -59.130099 
L 217.259731 -59.077398 
L 218.194669 -59.02517 
L 219.129607 -58.973385 
L 220.064546 -58.922011 
L 220.999484 -58.871019 
L 221.934423 -58.820381 
L 222.869361 -58.770072 
L 223.804299 -58.720065 
L 224.739238 -58.670338 
L 225.674176 -58.620867 
L 226.609114 -58.571631 
L 227.544053 -58.522611 
L 228.478991 -58.473787 
L 229.41393 -58.425141 
L 230.348868 -58.376658 
L 231.283806 -58.328323 
L 232.218745 -58.28012 
L 233.153683 -58.232037 
L 234.088621 -58.184063 
L 235.02356 -58.136185 
L 235.958498 -58.088394 
L 236.893437 -58.040681 
L 237.828375 -57.993039 
L 238.763313 -57.945459 
L 239.698252 -57.897936 
L 240.63319 -57.850464 
L 241.568128 -57.803039 
L 242.503067 -57.755657 
L 243.438005 -57.708315 
L 244.372944 -57.66101 
L 245.307882 -57.613742 
L 246.24282 -57.566508 
L 247.177759 -57.519309 
L 248.112697 -57.472145 
L 249.047635 -57.425016 
L 249.982574 -57.377925 
L 250.917512 -57.330873 
L 251.852451 -57.283861 
L 252.787389 -57.236894 
L 253.722327 -57.189974 
L 254.657266 -57.143105 
L 255.592204 -57.09629 
L 256.527142 -57.049534 
L 257.462081 -57.002841 
L 258.397019 -56.956217 
L 259.331958 -56.909666 
L 260.266896 -56.863193 
L 261.201834 -56.816804 
L 262.136773 -56.770505 
L 263.071711 -56.724301 
L 264.006649 -56.678199 
L 264.941588 -56.632204 
L 265.876526 -56.586323 
L 266.811465 -56.540561 
L 267.746403 -56.494925 
L 268.681341 -56.449421 
L 269.61628 -56.404056 
L 270.551218 -56.358836 
L 271.486156 -56.313767 
L 272.421095 -56.268854 
L 273.356033 -56.224106 
L 274.290971 -56.179526 
L 275.22591 -56.135123 
L 276.160848 -56.090901 
L 277.095787 -56.046866 
L 278.030725 -56.003024 
L 278.965663 -55.959382 
L 279.900602 -55.915943 
L 280.83554 -55.872714 
L 281.770478 -55.829701 
L 282.705417 -55.786907 
L 283.640355 -55.744338 
L 284.575294 -55.701999 
L 285.510232 -55.659895 
L 286.44517 -55.61803 
L 287.380109 -55.576408 
L 288.315047 -55.535033 
L 289.249985 -55.493909 
L 290.184924 -55.453041 
L 291.119862 -55.412432 
L 292.054801 -55.372085 
L 292.989739 -55.332003 
L 293.924677 -55.29219 
L 294.859616 -55.252649 
L 295.794554 -55.213382 
L 296.729492 -55.174392 
L 297.664431 -55.135681 
L 298.599369 -55.097251 
L 299.534308 -55.059106 
L 300.469246 -55.021245 
L 301.404184 -54.983672 
L 302.339123 -54.946388 
L 303.274061 -54.909393 
L 304.208999 -54.872691 
L 305.143938 -54.836281 
L 306.078876 -54.800164 
L 307.013815 -54.764341 
L 307.948753 -54.728814 
L 308.883691 -54.693582 
L 309.81863 -54.658646 
L 310.753568 -54.624006 
L 311.688506 -54.589662 
L 312.623445 -54.555615 
L 313.558383 -54.521864 
L 314.493322 -54.488408 
L 315.42826 -54.455248 
L 316.363198 -54.422383 
L 317.298137 -54.389813 
L 318.233075 -54.357536 
L 319.168013 -54.325552 
L 320.102952 -54.293861 
L 321.03789 -54.26246 
L 321.972829 -54.231349 
L 322.907767 -54.200528 
L 323.842705 -54.169994 
L 324.777644 -54.139746 
L 325.712582 -54.109783 
L 326.64752 -54.080104 
L 327.582459 -54.050706 
L 328.517397 -54.021589 
L 329.452336 -53.992751 
L 330.387274 -53.964189 
L 331.322212 -53.935903 
L 332.257151 -53.90789 
L 333.192089 -53.880149 
L 334.127027 -53.852678 
L 335.061966 -53.825474 
L 335.996904 -53.798536 
L 336.931843 -53.771862 
L 337.866781 -53.74545 
L 338.801719 -53.719297 
L 339.736658 -53.693403 
L 340.671596 -53.667764 
L 341.606534 -53.642379 
L 342.541473 -53.617246 
L 343.476411 -53.592362 
L 344.41135 -53.567726 
L 345.346288 -53.543336 
L 346.281226 -53.51919 
L 347.216165 -53.495285 
L 348.151103 -53.471621 
L 349.086041 -53.448194 
L 350.02098 -53.425004 
L 350.955918 -53.402049 
L 351.890857 -53.379326 
L 352.825795 -53.356834 
L 353.760733 -53.334573 
L 354.695672 -53.312539 
L 355.63061 -53.290732 
L 356.565548 -53.26915 
L 357.500487 -53.247793 
L 358.435425 -53.226659 
L 359.370364 -53.205747 
L 360.305302 -53.185056 
L 361.24024 -53.164585 
L 362.175179 -53.144334 
L 363.110117 -53.124301 
L 364.045055 -53.104488 
L 364.979994 -53.084892 
L 365.914932 -53.065515 
L 366.84987 -53.046356 
L 367.784809 -53.027415 
L 368.719747 -53.008692 
L 369.654686 -52.990188 
L 370.589624 -52.971903 
L 371.524562 -52.953838 
L 372.459501 -52.935994 
L 373.394439 -52.918371 
L 374.329377 -52.900972 
L 375.264316 -52.883797 
L 376.199254 -52.866848 
L 377.134193 -52.850126 
L 378.069131 -52.833633 
L 379.004069 -52.817372 
L 379.939008 -52.801344 
L 380.873946 -52.785551 
L 381.808884 -52.769997 
L 382.743823 -52.754682 
L 383.678761 -52.739612 
L 384.6137 -52.724787 
L 385.548638 -52.710211 
L 386.483576 -52.695888 
L 387.418515 -52.68182 
L 388.353453 -52.668011 
L 389.288391 -52.654465 
L 390.22333 -52.641184 
L 391.158268 -52.628174 
L 392.093207 -52.615436 
L 393.028145 -52.602977 
L 393.963083 -52.590798 
L 394.898022 -52.578905 
L 395.83296 -52.567302 
L 396.767898 -52.555992 
L 397.702837 -52.544981 
L 398.637775 -52.534271 
L 399.572714 -52.523868 
L 400.507652 -52.513776 
L 401.44259 -52.503998 
L 402.377529 -52.49454 
L 403.312467 -52.485405 
L 404.247405 -52.476598 
L 405.182344 -52.468122 
L 406.117282 -52.459982 
L 407.052221 -52.452181 
L 407.987159 -52.444724 
L 408.922097 -52.437615 
L 409.857036 -52.430856 
L 410.791974 -52.424452 
L 411.726912 -52.418406 
L 412.661851 -52.412721 
L 413.596789 -52.4074 
L 414.531728 -52.402446 
L 415.466666 -52.397862 
L 416.401604 -52.393651 
L 417.336543 -52.389814 
L 418.271481 -52.386353 
L 419.206419 -52.383271 
L 420.141358 -52.380569 
L 421.076296 -52.378248 
L 422.011235 -52.376309 
L 422.946173 -52.374754 
L 423.881111 -52.373581 
L 424.81605 -52.372792 
L 425.750988 -52.372386 
L 426.685926 -52.372363 
L 427.620865 -52.372721 
L 428.555803 -52.373461 
L 429.490742 -52.374579 
L 430.42568 -52.376074 
L 431.360618 -52.377944 
L 432.295557 -52.380187 
L 433.230495 -52.382798 
L 434.165433 -52.385775 
L 435.100372 -52.389115 
L 436.03531 -52.392812 
L 436.970249 -52.396863 
L 437.905187 -52.401262 
L 438.840125 -52.406004 
L 439.775064 -52.411084 
L 440.710002 -52.416495 
L 441.64494 -52.422231 
L 442.579879 -52.428285 
L 443.514817 -52.434649 
L 444.449756 -52.441318 
L 445.384694 -52.448281 
L 446.319632 -52.455531 
L 447.254571 -52.46306 
L 448.189509 -52.470858 
L 449.124447 -52.478915 
L 450.059386 -52.487223 
L 450.994324 -52.495771 
L 451.929262 -52.504548 
L 452.864201 -52.513544 
L 453.799139 -52.522748 
L 454.734078 -52.532148 
L 455.669016 -52.541734 
L 456.603954 -52.551492 
L 457.538893 -52.561412 
L 458.473831 -52.571479 
L 459.408769 -52.581683 
L 460.343708 -52.59201 
L 461.278646 -52.602448 
L 462.213585 -52.612982 
L 463.148523 -52.623599 
L 464.083461 -52.634287 
L 465.0184 -52.645031 
L 465.953338 -52.655817 
L 466.888276 -52.666632 
L 467.823215 -52.677461 
L 468.758153 -52.68829 
L 469.693092 -52.699106 
L 470.62803 -52.709894 
L 471.562968 -52.720639 
L 472.497907 -52.731328 
L 473.432845 -52.741946 
L 474.367783 -52.75248 
L 475.302722 -52.762914 
L 476.23766 -52.773235 
L 477.172599 -52.783428 
L 478.107537 -52.79348 
L 479.042475 -52.803378 
L 479.977414 -52.813106 
L 480.912352 -52.822652 
L 481.84729 -52.832003 
L 482.782229 -52.841144 
L 483.717167 -52.850064 
L 484.652106 -52.858749 
L 485.587044 -52.867187 
L 486.521982 -52.875365 
L 487.456921 -52.883271 
L 488.391859 -52.890894 
L 489.326797 -52.898222 
L 490.261736 -52.905244 
L 491.196674 -52.911949 
L 492.131613 -52.918326 
L 493.066551 -52.924365 
L 494.001489 -52.930056 
L 494.936428 -52.93539 
L 495.871366 -52.940358 
L 496.806304 -52.944951 
L 497.741243 -52.94916 
L 498.676181 -52.952978 
L 499.61112 -52.956396 
L 500.546058 -52.959409 
L 501.480996 -52.962009 
L 502.415935 -52.96419 
L 503.350873 -52.965946 
L 504.285811 -52.967272 
L 505.22075 -52.968163 
L 506.155688 -52.968614 
L 507.090627 -52.968622 
L 508.025565 -52.968183 
L 508.960503 -52.967294 
L 509.895442 -52.965952 
L 510.83038 -52.964155 
L 511.765318 -52.961902 
L 512.700257 -52.959191 
L 513.635195 -52.956022 
L 514.570134 -52.952394 
L 515.505072 -52.948308 
L 516.44001 -52.943765 
L 517.374949 -52.938765 
L 518.309887 -52.93331 
L 519.244825 -52.927402 
L 520.179764 -52.921044 
L 521.114702 -52.914238 
L 522.049641 -52.906988 
L 522.984579 -52.899299 
L 523.919517 -52.891173 
L 524.854456 -52.882615 
L 525.789394 -52.873632 
L 526.724332 -52.864227 
L 527.659271 -52.854407 
L 528.594209 -52.844179 
L 529.529148 -52.833548 
L 530.464086 -52.822522 
L 530.464086 -51.129773 
L 530.464086 -51.129773 
L 529.529148 -51.129773 
L 528.594209 -51.129773 
L 527.659271 -51.129773 
L 526.724332 -51.129773 
L 525.789394 -51.129773 
L 524.854456 -51.129773 
L 523.919517 -51.129773 
L 522.984579 -51.129773 
L 522.049641 -51.129773 
L 521.114702 -51.129773 
L 520.179764 -51.129773 
L 519.244825 -51.129773 
L 518.309887 -51.129773 
L 517.374949 -51.129773 
L 516.44001 -51.129773 
L 515.505072 -51.129773 
L 514.570134 -51.129773 
L 513.635195 -51.129773 
L 512.700257 -51.129773 
L 511.765318 -51.129773 
L 510.83038 -51.129773 
L 509.895442 -51.129773 
L 508.960503 -51.129773 
L 508.025565 -51.129773 
L 507.090627 -51.129773 
L 506.155688 -51.129773 
L 505.22075 -51.129773 
L 504.285811 -51.129773 
L 503.350873 -51.129773 
L 502.415935 -51.129773 
L 501.480996 -51.129773 
L 500.546058 -51.129773 
L 499.61112 -51.129773 
L 498.676181 -51.129773 
L 497.741243 -51.129773 
L 496.806304 -51.129773 
L 495.871366 -51.129773 
L 494.936428 -51.129773 
L 494.001489 -51.129773 
L 493.066551 -51.129773 
L 492.131613 -51.129773 
L 491.196674 -51.129773 
L 490.261736 -51.129773 
L 489.326797 -51.129773 
L 488.391859 -51.129773 
L 487.456921 -51.129773 
L 486.521982 -51.129773 
L 485.587044 -51.129773 
L 484.652106 -51.129773 
L 483.717167 -51.129773 
L 482.782229 -51.129773 
L 481.84729 -51.129773 
L 480.912352 -51.129773 
L 479.977414 -51.129773 
L 479.042475 -51.129773 
L 478.107537 -51.129773 
L 477.172599 -51.129773 
L 476.23766 -51.129773 
L 475.302722 -51.129773 
L 474.367783 -51.129773 
L 473.432845 -51.129773 
L 472.497907 -51.129773 
L 471.562968 -51.129773 
L 470.62803 -51.129773 
L 469.693092 -51.129773 
L 468.758153 -51.129773 
L 467.823215 -51.129773 
L 466.888276 -51.129773 
L 465.953338 -51.129773 
L 465.0184 -51.129773 
L 464.083461 -51.129773 
L 463.148523 -51.129773 
L 462.213585 -51.129773 
L 461.278646 -51.129773 
L 460.343708 -51.129773 
L 459.408769 -51.129773 
L 458.473831 -51.129773 
L 457.538893 -51.129773 
L 456.603954 -51.129773 
L 455.669016 -51.129773 
L 454.734078 -51.129773 
L 453.799139 -51.129773 
L 452.864201 -51.129773 
L 451.929262 -51.129773 
L 450.994324 -51.129773 
L 450.059386 -51.129773 
L 449.124447 -51.129773 
L 448.189509 -51.129773 
L 447.254571 -51.129773 
L 446.319632 -51.129773 
L 445.384694 -51.129773 
L 444.449756 -51.129773 
L 443.514817 -51.129773 
L 442.579879 -51.129773 
L 441.64494 -51.129773 
L 440.710002 -51.129773 
L 439.775064 -51.129773 
L 438.840125 -51.129773 
L 437.905187 -51.129773 
L 436.970249 -51.129773 
L 436.03531 -51.129773 
L 435.100372 -51.129773 
L 434.165433 -51.129773 
L 433.230495 -51.129773 
L 432.295557 -51.129773 
L 431.360618 -51.129773 
L 430.42568 -51.129773 
L 429.490742 -51.129773 
L 428.555803 -51.129773 
L 427.620865 -51.129773 
L 426.685926 -51.129773 
L 425.750988 -51.129773 
L 424.81605 -51.129773 
L 423.881111 -51.129773 
L 422.946173 -51.129773 
L 422.011235 -51.129773 
L 421.076296 -51.129773 
L 420.141358 -51.129773 
L 419.206419 -51.129773 
L 418.271481 -51.129773 
L 417.336543 -51.129773 
L 416.401604 -51.129773 
L 415.466666 -51.129773 
L 414.531728 -51.129773 
L 413.596789 -51.129773 
L 412.661851 -51.129773 
L 411.726912 -51.129773 
L 410.791974 -51.129773 
L 409.857036 -51.129773 
L 408.922097 -51.129773 
L 407.987159 -51.129773 
L 407.052221 -51.129773 
L 406.117282 -51.129773 
L 405.182344 -51.129773 
L 404.247405 -51.129773 
L 403.312467 -51.129773 
L 402.377529 -51.129773 
L 401.44259 -51.129773 
L 400.507652 -51.129773 
L 399.572714 -51.129773 
L 398.637775 -51.129773 
L 397.702837 -51.129773 
L 396.767898 -51.129773 
L 395.83296 -51.129773 
L 394.898022 -51.129773 
L 393.963083 -51.129773 
L 393.028145 -51.129773 
L 392.093207 -51.129773 
L 391.158268 -51.129773 
L 390.22333 -51.129773 
L 389.288391 -51.129773 
L 388.353453 -51.129773 
L 387.418515 -51.129773 
L 386.483576 -51.129773 
L 385.548638 -51.129773 
L 384.6137 -51.129773 
L 383.678761 -51.129773 
L 382.743823 -51.129773 
L 381.808884 -51.129773 
L 380.873946 -51.129773 
L 379.939008 -51.129773 
L 379.004069 -51.129773 
L 378.069131 -51.129773 
L 377.134193 -51.129773 
L 376.199254 -51.129773 
L 375.264316 -51.129773 
L 374.329377 -51.129773 
L 373.394439 -51.129773 
L 372.459501 -51.129773 
L 371.524562 -51.129773 
L 370.589624 -51.129773 
L 369.654686 -51.129773 
L 368.719747 -51.129773 
L 367.784809 -51.129773 
L 366.84987 -51.129773 
L 365.914932 -51.129773 
L 364.979994 -51.129773 
L 364.045055 -51.129773 
L 363.110117 -51.129773 
L 362.175179 -51.129773 
L 361.24024 -51.129773 
L 360.305302 -51.129773 
L 359.370364 -51.129773 
L 358.435425 -51.129773 
L 357.500487 -51.129773 
L 356.565548 -51.129773 
L 355.63061 -51.129773 
L 354.695672 -51.129773 
L 353.760733 -51.129773 
L 352.825795 -51.129773 
L 351.890857 -51.129773 
L 350.955918 -51.129773 
L 350.02098 -51.129773 
L 349.086041 -51.129773 
L 348.151103 -51.129773 
L 347.216165 -51.129773 
L 346.281226 -51.129773 
L 345.346288 -51.129773 
L 344.41135 -51.129773 
L 343.476411 -51.129773 
L 342.541473 -51.129773 
L 341.606534 -51.129773 
L 340.671596 -51.129773 
L 339.736658 -51.129773 
L 338.801719 -51.129773 
L 337.866781 -51.129773 
L 336.931843 -51.129773 
L 335.996904 -51.129773 
L 335.061966 -51.129773 
L 334.127027 -51.129773 
L 333.192089 -51.129773 
L 332.257151 -51.129773 
L 331.322212 -51.129773 
L 330.387274 -51.129773 
L 329.452336 -51.129773 
L 328.517397 -51.129773 
L 327.582459 -51.129773 
L 326.64752 -51.129773 
L 325.712582 -51.129773 
L 324.777644 -51.129773 
L 323.842705 -51.129773 
L 322.907767 -51.129773 
L 321.972829 -51.129773 
L 321.03789 -51.129773 
L 320.102952 -51.129773 
L 319.168013 -51.129773 
L 318.233075 -51.129773 
L 317.298137 -51.129773 
L 316.363198 -51.129773 
L 315.42826 -51.129773 
L 314.493322 -51.129773 
L 313.558383 -51.129773 
L 312.623445 -51.129773 
L 311.688506 -51.129773 
L 310.753568 -51.129773 
L 309.81863 -51.129773 
L 308.883691 -51.129773 
L 307.948753 -51.129773 
L 307.013815 -51.129773 
L 306.078876 -51.129773 
L 305.143938 -51.129773 
L 304.208999 -51.129773 
L 303.274061 -51.129773 
L 302.339123 -51.129773 
L 301.404184 -51.129773 
L 300.469246 -51.129773 
L 299.534308 -51.129773 
L 298.599369 -51.129773 
L 297.664431 -51.129773 
L 296.729492 -51.129773 
L 295.794554 -51.129773 
L 294.859616 -51.129773 
L 293.924677 -51.129773 
L 292.989739 -51.129773 
L 292.054801 -51.129773 
L 291.119862 -51.129773 
L 290.184924 -51.129773 
L 289.249985 -51.129773 
L 288.315047 -51.129773 
L 287.380109 -51.129773 
L 286.44517 -51.129773 
L 285.510232 -51.129773 
L 284.575294 -51.129773 
L 283.640355 -51.129773 
L 282.705417 -51.129773 
L 281.770478 -51.129773 
L 280.83554 -51.129773 
L 279.900602 -51.129773 
L 278.965663 -51.129773 
L 278.030725 -51.129773 
L 277.095787 -51.129773 
L 276.160848 -51.129773 
L 275.22591 -51.129773 
L 274.290971 -51.129773 
L 273.356033 -51.129773 
L 272.421095 -51.129773 
L 271.486156 -51.129773 
L 270.551218 -51.129773 
L 269.61628 -51.129773 
L 268.681341 -51.129773 
L 267.746403 -51.129773 
L 266.811465 -51.129773 
L 265.876526 -51.129773 
L 264.941588 -51.129773 
L 264.006649 -51.129773 
L 263.071711 -51.129773 
L 262.136773 -51.129773 
L 261.201834 -51.129773 
L 260.266896 -51.129773 
L 259.331958 -51.129773 
L 258.397019 -51.129773 
L 257.462081 -51.129773 
L 256.527142 -51.129773 
L 255.592204 -51.129773 
L 254.657266 -51.129773 
L 253.722327 -51.129773 
L 252.787389 -51.129773 
L 251.852451 -51.129773 
L 250.917512 -51.129773 
L 249.982574 -51.129773 
L 249.047635 -51.129773 
L 248.112697 -51.129773 
L 247.177759 -51.129773 
L 246.24282 -51.129773 
L 245.307882 -51.129773 
L 244.372944 -51.129773 
L 243.438005 -51.129773 
L 242.503067 -51.129773 
L 241.568128 -51.129773 
L 240.63319 -51.129773 
L 239.698252 -51.129773 
L 238.763313 -51.129773 
L 237.828375 -51.129773 
L 236.893437 -51.129773 
L 235.958498 -51.129773 
L 235.02356 -51.129773 
L 234.088621 -51.129773 
L 233.153683 -51.129773 
L 232.218745 -51.129773 
L 231.283806 -51.129773 
L 230.348868 -51.129773 
L 229.41393 -51.129773 
L 228.478991 -51.129773 
L 227.544053 -51.129773 
L 226.609114 -51.129773 
L 225.674176 -51.129773 
L 224.739238 -51.129773 
L 223.804299 -51.129773 
L 222.869361 -51.129773 
L 221.934423 -51.129773 
L 220.999484 -51.129773 
L 220.064546 -51.129773 
L 219.129607 -51.129773 
L 218.194669 -51.129773 
L 217.259731 -51.129773 
L 216.324792 -51.129773 
L 215.389854 -51.129773 
L 214.454916 -51.129773 
L 213.519977 -51.129773 
L 212.585039 -51.129773 
L 211.6501 -51.129773 
L 210.715162 -51.129773 
L 209.780224 -51.129773 
L 208.845285 -51.129773 
L 207.910347 -51.129773 
L 206.975409 -51.129773 
L 206.04047 -51.129773 
L 205.105532 -51.129773 
L 204.170593 -51.129773 
L 203.235655 -51.129773 
L 202.300717 -51.129773 
L 201.365778 -51.129773 
L 200.43084 -51.129773 
L 199.495902 -51.129773 
L 198.560963 -51.129773 
L 197.626025 -51.129773 
L 196.691086 -51.129773 
L 195.756148 -51.129773 
L 194.82121 -51.129773 
L 193.886271 -51.129773 
L 192.951333 -51.129773 
L 192.016395 -51.129773 
L 191.081456 -51.129773 
L 190.146518 -51.129773 
L 189.211579 -51.129773 
L 188.276641 -51.129773 
L 187.341703 -51.129773 
L 186.406764 -51.129773 
L 185.471826 -51.129773 
L 184.536888 -51.129773 
L 183.601949 -51.129773 
L 182.667011 -51.129773 
L 181.732073 -51.129773 
L 180.797134 -51.129773 
L 179.862196 -51.129773 
L 178.927257 -51.129773 
L 177.992319 -51.129773 
L 177.057381 -51.129773 
L 176.122442 -51.129773 
L 175.187504 -51.129773 
L 174.252566 -51.129773 
L 173.317627 -51.129773 
L 172.382689 -51.129773 
L 171.44775 -51.129773 
L 170.512812 -51.129773 
L 169.577874 -51.129773 
L 168.642935 -51.129773 
L 167.707997 -51.129773 
L 166.773059 -51.129773 
L 165.83812 -51.129773 
L 164.903182 -51.129773 
L 163.968243 -51.129773 
L 163.033305 -51.129773 
L 162.098367 -51.129773 
L 161.163428 -51.129773 
L 160.22849 -51.129773 
L 159.293552 -51.129773 
L 158.358613 -51.129773 
L 157.423675 -51.129773 
L 156.488736 -51.129773 
L 155.553798 -51.129773 
L 154.61886 -51.129773 
L 153.683921 -51.129773 
L 152.748983 -51.129773 
L 151.814045 -51.129773 
L 150.879106 -51.129773 
L 149.944168 -51.129773 
L 149.009229 -51.129773 
L 148.074291 -51.129773 
L 147.139353 -51.129773 
L 146.204414 -51.129773 
L 145.269476 -51.129773 
L 144.334538 -51.129773 
L 143.399599 -51.129773 
L 142.464661 -51.129773 
L 141.529722 -51.129773 
L 140.594784 -51.129773 
L 139.659846 -51.129773 
L 138.724907 -51.129773 
L 137.789969 -51.129773 
L 136.855031 -51.129773 
L 135.920092 -51.129773 
L 134.985154 -51.129773 
L 134.050215 -51.129773 
L 133.115277 -51.129773 
L 132.180339 -51.129773 
L 131.2454 -51.129773 
L 130.310462 -51.129773 
L 129.375524 -51.129773 
L 128.440585 -51.129773 
L 127.505647 -51.129773 
L 126.570708 -51.129773 
L 125.63577 -51.129773 
L 124.700832 -51.129773 
L 123.765893 -51.129773 
L 122.830955 -51.129773 
L 121.896017 -51.129773 
L 120.961078 -51.129773 
L 120.02614 -51.129773 
L 119.091201 -51.129773 
L 118.156263 -51.129773 
L 117.221325 -51.129773 
L 116.286386 -51.129773 
L 115.351448 -51.129773 
L 114.41651 -51.129773 
L 113.481571 -51.129773 
L 112.546633 -51.129773 
L 111.611694 -51.129773 
L 110.676756 -51.129773 
L 109.741818 -51.129773 
L 108.806879 -51.129773 
L 107.871941 -51.129773 
L 106.937003 -51.129773 
L 106.002064 -51.129773 
L 105.067126 -51.129773 
L 104.132187 -51.129773 
L 103.197249 -51.129773 
L 102.262311 -51.129773 
L 101.327372 -51.129773 
L 100.392434 -51.129773 
L 99.457496 -51.129773 
L 98.522557 -51.129773 
L 97.587619 -51.129773 
L 96.652681 -51.129773 
L 95.717742 -51.129773 
L 94.782804 -51.129773 
L 93.847865 -51.129773 
L 92.912927 -51.129773 
L 91.977989 -51.129773 
L 91.04305 -51.129773 
L 90.108112 -51.129773 
L 89.173174 -51.129773 
L 88.238235 -51.129773 
L 87.303297 -51.129773 
L 86.368358 -51.129773 
L 85.43342 -51.129773 
L 84.498482 -51.129773 
L 83.563543 -51.129773 
L 82.628605 -51.129773 
L 81.693667 -51.129773 
L 80.758728 -51.129773 
L 79.82379 -51.129773 
L 78.888851 -51.129773 
L 77.953913 -51.129773 
L 77.018975 -51.129773 
L 76.084036 -51.129773 
L 75.149098 -51.129773 
L 74.21416 -51.129773 
L 73.279221 -51.129773 
L 72.344283 -51.129773 
L 71.409344 -51.129773 
L 70.474406 -51.129773 
L 69.539468 -51.129773 
L 68.604529 -51.129773 
L 67.669591 -51.129773 
L 66.734653 -51.129773 
L 65.799714 -51.129773 
L 64.864776 -51.129773 
L 63.929837 -51.129773 
z
" style="stroke: #ff0000; stroke-opacity: 0.2"/>
    </defs>
    <g clip-path="url(#p745becf450)">
     <use xlink:href="#m13d02a6e75" x="0" y="352.65125" style="fill: #ff0000; fill-opacity: 0.2; stroke: #ff0000; stroke-opacity: 0.2"/>
    </g>
   </g>
   <g id="PolyCollection_2">
    <defs>
     <path id="m846f3ea789" d="M 63.929837 -51.129773 
L 63.929837 -316.659376 
L 64.864776 -317.037727 
L 65.799714 -313.812221 
L 66.734653 -307.15207 
L 67.669591 -297.364783 
L 68.604529 -284.87387 
L 69.539468 -270.189479 
L 70.474406 -253.874768 
L 71.409344 -236.511067 
L 72.344283 -218.664799 
L 73.279221 -200.858672 
L 74.21416 -183.549055 
L 75.149098 -167.110589 
L 76.084036 -151.828338 
L 77.018975 -137.896989 
L 77.953913 -125.42607 
L 78.888851 -114.449749 
L 79.82379 -104.939617 
L 80.758728 -96.8189 
L 81.693667 -89.9767 
L 82.628605 -84.28119 
L 83.563543 -79.591009 
L 84.498482 -75.764432 
L 85.43342 -72.666211 
L 86.368358 -70.172197 
L 87.303297 -68.17202 
L 88.238235 -66.570191 
L 89.173174 -65.286024 
L 90.108112 -64.252734 
L 91.04305 -63.416047 
L 91.977989 -62.732561 
L 92.912927 -62.168056 
L 93.847865 -61.695868 
L 94.782804 -61.295413 
L 95.717742 -60.950891 
L 96.652681 -60.650181 
L 97.587619 -60.383926 
L 98.522557 -60.144797 
L 99.457496 -59.92691 
L 100.392434 -59.725391 
L 101.327372 -59.536069 
L 102.262311 -59.355275 
L 103.197249 -59.179737 
L 104.132187 -59.00655 
L 105.067126 -58.833209 
L 106.002064 -58.657678 
L 106.937003 -58.478482 
L 107.871941 -58.294794 
L 108.806879 -58.106518 
L 109.741818 -57.914321 
L 110.676756 -57.719636 
L 111.611694 -57.524603 
L 112.546633 -57.331955 
L 113.481571 -57.144853 
L 114.41651 -56.966681 
L 115.351448 -56.800804 
L 116.286386 -56.650317 
L 117.221325 -56.517807 
L 118.156263 -56.405136 
L 119.091201 -56.313278 
L 120.02614 -56.24222 
L 120.961078 -56.190936 
L 121.896017 -56.157438 
L 122.830955 -56.138905 
L 123.765893 -56.131871 
L 124.700832 -56.13246 
L 125.63577 -56.136651 
L 126.570708 -56.140539 
L 127.505647 -56.140575 
L 128.440585 -56.133764 
L 129.375524 -56.117812 
L 130.310462 -56.091201 
L 131.2454 -56.053201 
L 132.180339 -56.003822 
L 133.115277 -55.943717 
L 134.050215 -55.874047 
L 134.985154 -55.796334 
L 135.920092 -55.712308 
L 136.855031 -55.623771 
L 137.789969 -55.53248 
L 138.724907 -55.440068 
L 139.659846 -55.347983 
L 140.594784 -55.257466 
L 141.529722 -55.169542 
L 142.464661 -55.085034 
L 143.399599 -55.004574 
L 144.334538 -54.92862 
L 145.269476 -54.857464 
L 146.204414 -54.791236 
L 147.139353 -54.729893 
L 148.074291 -54.673211 
L 149.009229 -54.620774 
L 149.944168 -54.571966 
L 150.879106 -54.525973 
L 151.814045 -54.4818 
L 152.748983 -54.438309 
L 153.683921 -54.394265 
L 154.61886 -54.348409 
L 155.553798 -54.299533 
L 156.488736 -54.246565 
L 157.423675 -54.188658 
L 158.358613 -54.125262 
L 159.293552 -54.056186 
L 160.22849 -53.981636 
L 161.163428 -53.902228 
L 162.098367 -53.818972 
L 163.033305 -53.733228 
L 163.968243 -53.646636 
L 164.903182 -53.561028 
L 165.83812 -53.478324 
L 166.773059 -53.400424 
L 167.707997 -53.329103 
L 168.642935 -53.26591 
L 169.577874 -53.212091 
L 170.512812 -53.168529 
L 171.44775 -53.135707 
L 172.382689 -53.113697 
L 173.317627 -53.102175 
L 174.252566 -53.100456 
L 175.187504 -53.107548 
L 176.122442 -53.122225 
L 177.057381 -53.143105 
L 177.992319 -53.168735 
L 178.927257 -53.197676 
L 179.862196 -53.228578 
L 180.797134 -53.260249 
L 181.732073 -53.291699 
L 182.667011 -53.322168 
L 183.601949 -53.351134 
L 184.536888 -53.378286 
L 185.471826 -53.40349 
L 186.406764 -53.426723 
L 187.341703 -53.448007 
L 188.276641 -53.467336 
L 189.211579 -53.484605 
L 190.146518 -53.499559 
L 191.081456 -53.511759 
L 192.016395 -53.520574 
L 192.951333 -53.525207 
L 193.886271 -53.524734 
L 194.82121 -53.518182 
L 195.756148 -53.504607 
L 196.691086 -53.48319 
L 197.626025 -53.45332 
L 198.560963 -53.414673 
L 199.495902 -53.367263 
L 200.43084 -53.311481 
L 201.365778 -53.248091 
L 202.300717 -53.178208 
L 203.235655 -53.10325 
L 204.170593 -53.024865 
L 205.105532 -52.944847 
L 206.04047 -52.865038 
L 206.975409 -52.787238 
L 207.910347 -52.713114 
L 208.845285 -52.644118 
L 209.780224 -52.58143 
L 210.715162 -52.525913 
L 211.6501 -52.478093 
L 212.585039 -52.438161 
L 213.519977 -52.405998 
L 214.454916 -52.381213 
L 215.389854 -52.363202 
L 216.324792 -52.351211 
L 217.259731 -52.34441 
L 218.194669 -52.341956 
L 219.129607 -52.343053 
L 220.064546 -52.347006 
L 220.999484 -52.353244 
L 221.934423 -52.361339 
L 222.869361 -52.370997 
L 223.804299 -52.382041 
L 224.739238 -52.394372 
L 225.674176 -52.407924 
L 226.609114 -52.42262 
L 227.544053 -52.438321 
L 228.478991 -52.454789 
L 229.41393 -52.471657 
L 230.348868 -52.488414 
L 231.283806 -52.504408 
L 232.218745 -52.518862 
L 233.153683 -52.530907 
L 234.088621 -52.53963 
L 235.02356 -52.544126 
L 235.958498 -52.54356 
L 236.893437 -52.537227 
L 237.828375 -52.524612 
L 238.763313 -52.505442 
L 239.698252 -52.479722 
L 240.63319 -52.447764 
L 241.568128 -52.41019 
L 242.503067 -52.367928 
L 243.438005 -52.322182 
L 244.372944 -52.274383 
L 245.307882 -52.226132 
L 246.24282 -52.179125 
L 247.177759 -52.135067 
L 248.112697 -52.095588 
L 249.047635 -52.062155 
L 249.982574 -52.03599 
L 250.917512 -52.018002 
L 251.852451 -52.008728 
L 252.787389 -52.008295 
L 253.722327 -52.016413 
L 254.657266 -52.032372 
L 255.592204 -52.055086 
L 256.527142 -52.08314 
L 257.462081 -52.114866 
L 258.397019 -52.148434 
L 259.331958 -52.181949 
L 260.266896 -52.213554 
L 261.201834 -52.241521 
L 262.136773 -52.264343 
L 263.071711 -52.280796 
L 264.006649 -52.289988 
L 264.941588 -52.29138 
L 265.876526 -52.284787 
L 266.811465 -52.270353 
L 267.746403 -52.248509 
L 268.681341 -52.219921 
L 269.61628 -52.185429 
L 270.551218 -52.145982 
L 271.486156 -52.102581 
L 272.421095 -52.056227 
L 273.356033 -52.007877 
L 274.290971 -51.958412 
L 275.22591 -51.908618 
L 276.160848 -51.859171 
L 277.095787 -51.810631 
L 278.030725 -51.763444 
L 278.965663 -51.717945 
L 279.900602 -51.674368 
L 280.83554 -51.632853 
L 281.770478 -51.593458 
L 282.705417 -51.556176 
L 283.640355 -51.520945 
L 284.575294 -51.487667 
L 285.510232 -51.456226 
L 286.44517 -51.4265 
L 287.380109 -51.398375 
L 288.315047 -51.371759 
L 289.249985 -51.346588 
L 290.184924 -51.322825 
L 291.119862 -51.300468 
L 292.054801 -51.279534 
L 292.989739 -51.260061 
L 293.924677 -51.242094 
L 294.859616 -51.225676 
L 295.794554 -51.210841 
L 296.729492 -51.197605 
L 297.664431 -51.185965 
L 298.599369 -51.175897 
L 299.534308 -51.167356 
L 300.469246 -51.160284 
L 301.404184 -51.154616 
L 302.339123 -51.150283 
L 303.274061 -51.147226 
L 304.208999 -51.145401 
L 305.143938 -51.144784 
L 306.078876 -51.145375 
L 307.013815 -51.147203 
L 307.948753 -51.150321 
L 308.883691 -51.154804 
L 309.81863 -51.160744 
L 310.753568 -51.16824 
L 311.688506 -51.177386 
L 312.623445 -51.188262 
L 313.558383 -51.200921 
L 314.493322 -51.215376 
L 315.42826 -51.231589 
L 316.363198 -51.249467 
L 317.298137 -51.268852 
L 318.233075 -51.289528 
L 319.168013 -51.311218 
L 320.102952 -51.333599 
L 321.03789 -51.35631 
L 321.972829 -51.378972 
L 322.907767 -51.401199 
L 323.842705 -51.422623 
L 324.777644 -51.442906 
L 325.712582 -51.461755 
L 326.64752 -51.478929 
L 327.582459 -51.494249 
L 328.517397 -51.507594 
L 329.452336 -51.518896 
L 330.387274 -51.528134 
L 331.322212 -51.53532 
L 332.257151 -51.540488 
L 333.192089 -51.54368 
L 334.127027 -51.54494 
L 335.061966 -51.544305 
L 335.996904 -51.541801 
L 336.931843 -51.537451 
L 337.866781 -51.531277 
L 338.801719 -51.523313 
L 339.736658 -51.513617 
L 340.671596 -51.502283 
L 341.606534 -51.489455 
L 342.541473 -51.475333 
L 343.476411 -51.460177 
L 344.41135 -51.444302 
L 345.346288 -51.428072 
L 346.281226 -51.411883 
L 347.216165 -51.396141 
L 348.151103 -51.381237 
L 349.086041 -51.367522 
L 350.02098 -51.355279 
L 350.955918 -51.344706 
L 351.890857 -51.335895 
L 352.825795 -51.328825 
L 353.760733 -51.323365 
L 354.695672 -51.319282 
L 355.63061 -51.31626 
L 356.565548 -51.313926 
L 357.500487 -51.311881 
L 358.435425 -51.309737 
L 359.370364 -51.307144 
L 360.305302 -51.303825 
L 361.24024 -51.299599 
L 362.175179 -51.294396 
L 363.110117 -51.288267 
L 364.045055 -51.281381 
L 364.979994 -51.274017 
L 365.914932 -51.266546 
L 366.84987 -51.259404 
L 367.784809 -51.253072 
L 368.719747 -51.248037 
L 369.654686 -51.244768 
L 370.589624 -51.243683 
L 371.524562 -51.24512 
L 372.459501 -51.249316 
L 373.394439 -51.256386 
L 374.329377 -51.266304 
L 375.264316 -51.278901 
L 376.199254 -51.29386 
L 377.134193 -51.310721 
L 378.069131 -51.3289 
L 379.004069 -51.347709 
L 379.939008 -51.366388 
L 380.873946 -51.384141 
L 381.808884 -51.400183 
L 382.743823 -51.413776 
L 383.678761 -51.424283 
L 384.6137 -51.431196 
L 385.548638 -51.434177 
L 386.483576 -51.433073 
L 387.418515 -51.42793 
L 388.353453 -51.418986 
L 389.288391 -51.406658 
L 390.22333 -51.391515 
L 391.158268 -51.37424 
L 392.093207 -51.355594 
L 393.028145 -51.336366 
L 393.963083 -51.317334 
L 394.898022 -51.299228 
L 395.83296 -51.282689 
L 396.767898 -51.268249 
L 397.702837 -51.25631 
L 398.637775 -51.247133 
L 399.572714 -51.240832 
L 400.507652 -51.237382 
L 401.44259 -51.236625 
L 402.377529 -51.238281 
L 403.312467 -51.241972 
L 404.247405 -51.247237 
L 405.182344 -51.253561 
L 406.117282 -51.260398 
L 407.052221 -51.267199 
L 407.987159 -51.273439 
L 408.922097 -51.278643 
L 409.857036 -51.282409 
L 410.791974 -51.284428 
L 411.726912 -51.284493 
L 412.661851 -51.282511 
L 413.596789 -51.2785 
L 414.531728 -51.272582 
L 415.466666 -51.264968 
L 416.401604 -51.255941 
L 417.336543 -51.245834 
L 418.271481 -51.235004 
L 419.206419 -51.223812 
L 420.141358 -51.212598 
L 421.076296 -51.201669 
L 422.011235 -51.19128 
L 422.946173 -51.181632 
L 423.881111 -51.172864 
L 424.81605 -51.165062 
L 425.750988 -51.158254 
L 426.685926 -51.152426 
L 427.620865 -51.147531 
L 428.555803 -51.143492 
L 429.490742 -51.140218 
L 430.42568 -51.13761 
L 431.360618 -51.135568 
L 432.295557 -51.133997 
L 433.230495 -51.132806 
L 434.165433 -51.13192 
L 435.100372 -51.131271 
L 436.03531 -51.130803 
L 436.970249 -51.130471 
L 437.905187 -51.130239 
L 438.840125 -51.130079 
L 439.775064 -51.129972 
L 440.710002 -51.1299 
L 441.64494 -51.129853 
L 442.579879 -51.129822 
L 443.514817 -51.129803 
L 444.449756 -51.129791 
L 445.384694 -51.129784 
L 446.319632 -51.129779 
L 447.254571 -51.129776 
L 448.189509 -51.129775 
L 449.124447 -51.129774 
L 450.059386 -51.129773 
L 450.994324 -51.129773 
L 451.929262 -51.129773 
L 452.864201 -51.129773 
L 453.799139 -51.129773 
L 454.734078 -51.129773 
L 455.669016 -51.129773 
L 456.603954 -51.129773 
L 457.538893 -51.129773 
L 458.473831 -51.129773 
L 459.408769 -51.129773 
L 460.343708 -51.129773 
L 461.278646 -51.129773 
L 462.213585 -51.129773 
L 463.148523 -51.129773 
L 464.083461 -51.129773 
L 465.0184 -51.129773 
L 465.953338 -51.129773 
L 466.888276 -51.129773 
L 467.823215 -51.129773 
L 468.758153 -51.129773 
L 469.693092 -51.129773 
L 470.62803 -51.129773 
L 471.562968 -51.129773 
L 472.497907 -51.129773 
L 473.432845 -51.129773 
L 474.367783 -51.129773 
L 475.302722 -51.129773 
L 476.23766 -51.129773 
L 477.172599 -51.129773 
L 478.107537 -51.129774 
L 479.042475 -51.129775 
L 479.977414 -51.129777 
L 480.912352 -51.12978 
L 481.84729 -51.129784 
L 482.782229 -51.129792 
L 483.717167 -51.129805 
L 484.652106 -51.129825 
L 485.587044 -51.129857 
L 486.521982 -51.129907 
L 487.456921 -51.129982 
L 488.391859 -51.130095 
L 489.326797 -51.130262 
L 490.261736 -51.130504 
L 491.196674 -51.13085 
L 492.131613 -51.131337 
L 493.066551 -51.132011 
L 494.001489 -51.13293 
L 494.936428 -51.134161 
L 495.871366 -51.135784 
L 496.806304 -51.137887 
L 497.741243 -51.140568 
L 498.676181 -51.143927 
L 499.61112 -51.148063 
L 500.546058 -51.153065 
L 501.480996 -51.159006 
L 502.415935 -51.165931 
L 503.350873 -51.17385 
L 504.285811 -51.182724 
L 505.22075 -51.192466 
L 506.155688 -51.202925 
L 507.090627 -51.213893 
L 508.025565 -51.225106 
L 508.960503 -51.236251 
L 509.895442 -51.246977 
L 510.83038 -51.256916 
L 511.765318 -51.265702 
L 512.700257 -51.272993 
L 513.635195 -51.27849 
L 514.570134 -51.281964 
L 515.505072 -51.283264 
L 516.44001 -51.282336 
L 517.374949 -51.279218 
L 518.309887 -51.274045 
L 519.244825 -51.267036 
L 520.179764 -51.258478 
L 521.114702 -51.248706 
L 522.049641 -51.238086 
L 522.984579 -51.226987 
L 523.919517 -51.215762 
L 524.854456 -51.204732 
L 525.789394 -51.194172 
L 526.724332 -51.184299 
L 527.659271 -51.175271 
L 528.594209 -51.167188 
L 529.529148 -51.160096 
L 530.464086 -51.153993 
L 530.464086 -51.129773 
L 530.464086 -51.129773 
L 529.529148 -51.129773 
L 528.594209 -51.129773 
L 527.659271 -51.129773 
L 526.724332 -51.129773 
L 525.789394 -51.129773 
L 524.854456 -51.129773 
L 523.919517 -51.129773 
L 522.984579 -51.129773 
L 522.049641 -51.129773 
L 521.114702 -51.129773 
L 520.179764 -51.129773 
L 519.244825 -51.129773 
L 518.309887 -51.129773 
L 517.374949 -51.129773 
L 516.44001 -51.129773 
L 515.505072 -51.129773 
L 514.570134 -51.129773 
L 513.635195 -51.129773 
L 512.700257 -51.129773 
L 511.765318 -51.129773 
L 510.83038 -51.129773 
L 509.895442 -51.129773 
L 508.960503 -51.129773 
L 508.025565 -51.129773 
L 507.090627 -51.129773 
L 506.155688 -51.129773 
L 505.22075 -51.129773 
L 504.285811 -51.129773 
L 503.350873 -51.129773 
L 502.415935 -51.129773 
L 501.480996 -51.129773 
L 500.546058 -51.129773 
L 499.61112 -51.129773 
L 498.676181 -51.129773 
L 497.741243 -51.129773 
L 496.806304 -51.129773 
L 495.871366 -51.129773 
L 494.936428 -51.129773 
L 494.001489 -51.129773 
L 493.066551 -51.129773 
L 492.131613 -51.129773 
L 491.196674 -51.129773 
L 490.261736 -51.129773 
L 489.326797 -51.129773 
L 488.391859 -51.129773 
L 487.456921 -51.129773 
L 486.521982 -51.129773 
L 485.587044 -51.129773 
L 484.652106 -51.129773 
L 483.717167 -51.129773 
L 482.782229 -51.129773 
L 481.84729 -51.129773 
L 480.912352 -51.129773 
L 479.977414 -51.129773 
L 479.042475 -51.129773 
L 478.107537 -51.129773 
L 477.172599 -51.129773 
L 476.23766 -51.129773 
L 475.302722 -51.129773 
L 474.367783 -51.129773 
L 473.432845 -51.129773 
L 472.497907 -51.129773 
L 471.562968 -51.129773 
L 470.62803 -51.129773 
L 469.693092 -51.129773 
L 468.758153 -51.129773 
L 467.823215 -51.129773 
L 466.888276 -51.129773 
L 465.953338 -51.129773 
L 465.0184 -51.129773 
L 464.083461 -51.129773 
L 463.148523 -51.129773 
L 462.213585 -51.129773 
L 461.278646 -51.129773 
L 460.343708 -51.129773 
L 459.408769 -51.129773 
L 458.473831 -51.129773 
L 457.538893 -51.129773 
L 456.603954 -51.129773 
L 455.669016 -51.129773 
L 454.734078 -51.129773 
L 453.799139 -51.129773 
L 452.864201 -51.129773 
L 451.929262 -51.129773 
L 450.994324 -51.129773 
L 450.059386 -51.129773 
L 449.124447 -51.129773 
L 448.189509 -51.129773 
L 447.254571 -51.129773 
L 446.319632 -51.129773 
L 445.384694 -51.129773 
L 444.449756 -51.129773 
L 443.514817 -51.129773 
L 442.579879 -51.129773 
L 441.64494 -51.129773 
L 440.710002 -51.129773 
L 439.775064 -51.129773 
L 438.840125 -51.129773 
L 437.905187 -51.129773 
L 436.970249 -51.129773 
L 436.03531 -51.129773 
L 435.100372 -51.129773 
L 434.165433 -51.129773 
L 433.230495 -51.129773 
L 432.295557 -51.129773 
L 431.360618 -51.129773 
L 430.42568 -51.129773 
L 429.490742 -51.129773 
L 428.555803 -51.129773 
L 427.620865 -51.129773 
L 426.685926 -51.129773 
L 425.750988 -51.129773 
L 424.81605 -51.129773 
L 423.881111 -51.129773 
L 422.946173 -51.129773 
L 422.011235 -51.129773 
L 421.076296 -51.129773 
L 420.141358 -51.129773 
L 419.206419 -51.129773 
L 418.271481 -51.129773 
L 417.336543 -51.129773 
L 416.401604 -51.129773 
L 415.466666 -51.129773 
L 414.531728 -51.129773 
L 413.596789 -51.129773 
L 412.661851 -51.129773 
L 411.726912 -51.129773 
L 410.791974 -51.129773 
L 409.857036 -51.129773 
L 408.922097 -51.129773 
L 407.987159 -51.129773 
L 407.052221 -51.129773 
L 406.117282 -51.129773 
L 405.182344 -51.129773 
L 404.247405 -51.129773 
L 403.312467 -51.129773 
L 402.377529 -51.129773 
L 401.44259 -51.129773 
L 400.507652 -51.129773 
L 399.572714 -51.129773 
L 398.637775 -51.129773 
L 397.702837 -51.129773 
L 396.767898 -51.129773 
L 395.83296 -51.129773 
L 394.898022 -51.129773 
L 393.963083 -51.129773 
L 393.028145 -51.129773 
L 392.093207 -51.129773 
L 391.158268 -51.129773 
L 390.22333 -51.129773 
L 389.288391 -51.129773 
L 388.353453 -51.129773 
L 387.418515 -51.129773 
L 386.483576 -51.129773 
L 385.548638 -51.129773 
L 384.6137 -51.129773 
L 383.678761 -51.129773 
L 382.743823 -51.129773 
L 381.808884 -51.129773 
L 380.873946 -51.129773 
L 379.939008 -51.129773 
L 379.004069 -51.129773 
L 378.069131 -51.129773 
L 377.134193 -51.129773 
L 376.199254 -51.129773 
L 375.264316 -51.129773 
L 374.329377 -51.129773 
L 373.394439 -51.129773 
L 372.459501 -51.129773 
L 371.524562 -51.129773 
L 370.589624 -51.129773 
L 369.654686 -51.129773 
L 368.719747 -51.129773 
L 367.784809 -51.129773 
L 366.84987 -51.129773 
L 365.914932 -51.129773 
L 364.979994 -51.129773 
L 364.045055 -51.129773 
L 363.110117 -51.129773 
L 362.175179 -51.129773 
L 361.24024 -51.129773 
L 360.305302 -51.129773 
L 359.370364 -51.129773 
L 358.435425 -51.129773 
L 357.500487 -51.129773 
L 356.565548 -51.129773 
L 355.63061 -51.129773 
L 354.695672 -51.129773 
L 353.760733 -51.129773 
L 352.825795 -51.129773 
L 351.890857 -51.129773 
L 350.955918 -51.129773 
L 350.02098 -51.129773 
L 349.086041 -51.129773 
L 348.151103 -51.129773 
L 347.216165 -51.129773 
L 346.281226 -51.129773 
L 345.346288 -51.129773 
L 344.41135 -51.129773 
L 343.476411 -51.129773 
L 342.541473 -51.129773 
L 341.606534 -51.129773 
L 340.671596 -51.129773 
L 339.736658 -51.129773 
L 338.801719 -51.129773 
L 337.866781 -51.129773 
L 336.931843 -51.129773 
L 335.996904 -51.129773 
L 335.061966 -51.129773 
L 334.127027 -51.129773 
L 333.192089 -51.129773 
L 332.257151 -51.129773 
L 331.322212 -51.129773 
L 330.387274 -51.129773 
L 329.452336 -51.129773 
L 328.517397 -51.129773 
L 327.582459 -51.129773 
L 326.64752 -51.129773 
L 325.712582 -51.129773 
L 324.777644 -51.129773 
L 323.842705 -51.129773 
L 322.907767 -51.129773 
L 321.972829 -51.129773 
L 321.03789 -51.129773 
L 320.102952 -51.129773 
L 319.168013 -51.129773 
L 318.233075 -51.129773 
L 317.298137 -51.129773 
L 316.363198 -51.129773 
L 315.42826 -51.129773 
L 314.493322 -51.129773 
L 313.558383 -51.129773 
L 312.623445 -51.129773 
L 311.688506 -51.129773 
L 310.753568 -51.129773 
L 309.81863 -51.129773 
L 308.883691 -51.129773 
L 307.948753 -51.129773 
L 307.013815 -51.129773 
L 306.078876 -51.129773 
L 305.143938 -51.129773 
L 304.208999 -51.129773 
L 303.274061 -51.129773 
L 302.339123 -51.129773 
L 301.404184 -51.129773 
L 300.469246 -51.129773 
L 299.534308 -51.129773 
L 298.599369 -51.129773 
L 297.664431 -51.129773 
L 296.729492 -51.129773 
L 295.794554 -51.129773 
L 294.859616 -51.129773 
L 293.924677 -51.129773 
L 292.989739 -51.129773 
L 292.054801 -51.129773 
L 291.119862 -51.129773 
L 290.184924 -51.129773 
L 289.249985 -51.129773 
L 288.315047 -51.129773 
L 287.380109 -51.129773 
L 286.44517 -51.129773 
L 285.510232 -51.129773 
L 284.575294 -51.129773 
L 283.640355 -51.129773 
L 282.705417 -51.129773 
L 281.770478 -51.129773 
L 280.83554 -51.129773 
L 279.900602 -51.129773 
L 278.965663 -51.129773 
L 278.030725 -51.129773 
L 277.095787 -51.129773 
L 276.160848 -51.129773 
L 275.22591 -51.129773 
L 274.290971 -51.129773 
L 273.356033 -51.129773 
L 272.421095 -51.129773 
L 271.486156 -51.129773 
L 270.551218 -51.129773 
L 269.61628 -51.129773 
L 268.681341 -51.129773 
L 267.746403 -51.129773 
L 266.811465 -51.129773 
L 265.876526 -51.129773 
L 264.941588 -51.129773 
L 264.006649 -51.129773 
L 263.071711 -51.129773 
L 262.136773 -51.129773 
L 261.201834 -51.129773 
L 260.266896 -51.129773 
L 259.331958 -51.129773 
L 258.397019 -51.129773 
L 257.462081 -51.129773 
L 256.527142 -51.129773 
L 255.592204 -51.129773 
L 254.657266 -51.129773 
L 253.722327 -51.129773 
L 252.787389 -51.129773 
L 251.852451 -51.129773 
L 250.917512 -51.129773 
L 249.982574 -51.129773 
L 249.047635 -51.129773 
L 248.112697 -51.129773 
L 247.177759 -51.129773 
L 246.24282 -51.129773 
L 245.307882 -51.129773 
L 244.372944 -51.129773 
L 243.438005 -51.129773 
L 242.503067 -51.129773 
L 241.568128 -51.129773 
L 240.63319 -51.129773 
L 239.698252 -51.129773 
L 238.763313 -51.129773 
L 237.828375 -51.129773 
L 236.893437 -51.129773 
L 235.958498 -51.129773 
L 235.02356 -51.129773 
L 234.088621 -51.129773 
L 233.153683 -51.129773 
L 232.218745 -51.129773 
L 231.283806 -51.129773 
L 230.348868 -51.129773 
L 229.41393 -51.129773 
L 228.478991 -51.129773 
L 227.544053 -51.129773 
L 226.609114 -51.129773 
L 225.674176 -51.129773 
L 224.739238 -51.129773 
L 223.804299 -51.129773 
L 222.869361 -51.129773 
L 221.934423 -51.129773 
L 220.999484 -51.129773 
L 220.064546 -51.129773 
L 219.129607 -51.129773 
L 218.194669 -51.129773 
L 217.259731 -51.129773 
L 216.324792 -51.129773 
L 215.389854 -51.129773 
L 214.454916 -51.129773 
L 213.519977 -51.129773 
L 212.585039 -51.129773 
L 211.6501 -51.129773 
L 210.715162 -51.129773 
L 209.780224 -51.129773 
L 208.845285 -51.129773 
L 207.910347 -51.129773 
L 206.975409 -51.129773 
L 206.04047 -51.129773 
L 205.105532 -51.129773 
L 204.170593 -51.129773 
L 203.235655 -51.129773 
L 202.300717 -51.129773 
L 201.365778 -51.129773 
L 200.43084 -51.129773 
L 199.495902 -51.129773 
L 198.560963 -51.129773 
L 197.626025 -51.129773 
L 196.691086 -51.129773 
L 195.756148 -51.129773 
L 194.82121 -51.129773 
L 193.886271 -51.129773 
L 192.951333 -51.129773 
L 192.016395 -51.129773 
L 191.081456 -51.129773 
L 190.146518 -51.129773 
L 189.211579 -51.129773 
L 188.276641 -51.129773 
L 187.341703 -51.129773 
L 186.406764 -51.129773 
L 185.471826 -51.129773 
L 184.536888 -51.129773 
L 183.601949 -51.129773 
L 182.667011 -51.129773 
L 181.732073 -51.129773 
L 180.797134 -51.129773 
L 179.862196 -51.129773 
L 178.927257 -51.129773 
L 177.992319 -51.129773 
L 177.057381 -51.129773 
L 176.122442 -51.129773 
L 175.187504 -51.129773 
L 174.252566 -51.129773 
L 173.317627 -51.129773 
L 172.382689 -51.129773 
L 171.44775 -51.129773 
L 170.512812 -51.129773 
L 169.577874 -51.129773 
L 168.642935 -51.129773 
L 167.707997 -51.129773 
L 166.773059 -51.129773 
L 165.83812 -51.129773 
L 164.903182 -51.129773 
L 163.968243 -51.129773 
L 163.033305 -51.129773 
L 162.098367 -51.129773 
L 161.163428 -51.129773 
L 160.22849 -51.129773 
L 159.293552 -51.129773 
L 158.358613 -51.129773 
L 157.423675 -51.129773 
L 156.488736 -51.129773 
L 155.553798 -51.129773 
L 154.61886 -51.129773 
L 153.683921 -51.129773 
L 152.748983 -51.129773 
L 151.814045 -51.129773 
L 150.879106 -51.129773 
L 149.944168 -51.129773 
L 149.009229 -51.129773 
L 148.074291 -51.129773 
L 147.139353 -51.129773 
L 146.204414 -51.129773 
L 145.269476 -51.129773 
L 144.334538 -51.129773 
L 143.399599 -51.129773 
L 142.464661 -51.129773 
L 141.529722 -51.129773 
L 140.594784 -51.129773 
L 139.659846 -51.129773 
L 138.724907 -51.129773 
L 137.789969 -51.129773 
L 136.855031 -51.129773 
L 135.920092 -51.129773 
L 134.985154 -51.129773 
L 134.050215 -51.129773 
L 133.115277 -51.129773 
L 132.180339 -51.129773 
L 131.2454 -51.129773 
L 130.310462 -51.129773 
L 129.375524 -51.129773 
L 128.440585 -51.129773 
L 127.505647 -51.129773 
L 126.570708 -51.129773 
L 125.63577 -51.129773 
L 124.700832 -51.129773 
L 123.765893 -51.129773 
L 122.830955 -51.129773 
L 121.896017 -51.129773 
L 120.961078 -51.129773 
L 120.02614 -51.129773 
L 119.091201 -51.129773 
L 118.156263 -51.129773 
L 117.221325 -51.129773 
L 116.286386 -51.129773 
L 115.351448 -51.129773 
L 114.41651 -51.129773 
L 113.481571 -51.129773 
L 112.546633 -51.129773 
L 111.611694 -51.129773 
L 110.676756 -51.129773 
L 109.741818 -51.129773 
L 108.806879 -51.129773 
L 107.871941 -51.129773 
L 106.937003 -51.129773 
L 106.002064 -51.129773 
L 105.067126 -51.129773 
L 104.132187 -51.129773 
L 103.197249 -51.129773 
L 102.262311 -51.129773 
L 101.327372 -51.129773 
L 100.392434 -51.129773 
L 99.457496 -51.129773 
L 98.522557 -51.129773 
L 97.587619 -51.129773 
L 96.652681 -51.129773 
L 95.717742 -51.129773 
L 94.782804 -51.129773 
L 93.847865 -51.129773 
L 92.912927 -51.129773 
L 91.977989 -51.129773 
L 91.04305 -51.129773 
L 90.108112 -51.129773 
L 89.173174 -51.129773 
L 88.238235 -51.129773 
L 87.303297 -51.129773 
L 86.368358 -51.129773 
L 85.43342 -51.129773 
L 84.498482 -51.129773 
L 83.563543 -51.129773 
L 82.628605 -51.129773 
L 81.693667 -51.129773 
L 80.758728 -51.129773 
L 79.82379 -51.129773 
L 78.888851 -51.129773 
L 77.953913 -51.129773 
L 77.018975 -51.129773 
L 76.084036 -51.129773 
L 75.149098 -51.129773 
L 74.21416 -51.129773 
L 73.279221 -51.129773 
L 72.344283 -51.129773 
L 71.409344 -51.129773 
L 70.474406 -51.129773 
L 69.539468 -51.129773 
L 68.604529 -51.129773 
L 67.669591 -51.129773 
L 66.734653 -51.129773 
L 65.799714 -51.129773 
L 64.864776 -51.129773 
L 63.929837 -51.129773 
z
" style="stroke: #0000ff; stroke-opacity: 0.2"/>
    </defs>
    <g clip-path="url(#p745becf450)">
     <use xlink:href="#m846f3ea789" x="0" y="352.65125" style="fill: #0000ff; fill-opacity: 0.2; stroke: #0000ff; stroke-opacity: 0.2"/>
    </g>
   </g>
   <g id="matplotlib.axis_1">
    <g id="xtick_1">
     <g id="line2d_1">
      <path d="M 63.929837 314.816875 
L 63.929837 22.318125 
" clip-path="url(#p745becf450)" style="fill: none; stroke: #b0b0b0; stroke-width: 0.8; stroke-linecap: square"/>
     </g>
     <g id="line2d_2">
      <defs>
       <path id="m380c4346ac" d="M 0 0 
L 0 3.5 
" style="stroke: #000000; stroke-width: 0.8"/>
      </defs>
      <g>
       <use xlink:href="#m380c4346ac" x="63.929837" y="314.816875" style="stroke: #000000; stroke-width: 0.8"/>
      </g>
     </g>
     <g id="text_1">
      <!-- 0.0 -->
      <g transform="translate(55.978275 329.415313) scale(0.1 -0.1)">
       <defs>
        <path id="DejaVuSans-30" d="M 2034 4250 
Q 1547 4250 1301 3770 
Q 1056 3291 1056 2328 
Q 1056 1369 1301 889 
Q 1547 409 2034 409 
Q 2525 409 2770 889 
Q 3016 1369 3016 2328 
Q 3016 3291 2770 3770 
Q 2525 4250 2034 4250 
z
M 2034 4750 
Q 2819 4750 3233 4129 
Q 3647 3509 3647 2328 
Q 3647 1150 3233 529 
Q 2819 -91 2034 -91 
Q 1250 -91 836 529 
Q 422 1150 422 2328 
Q 422 3509 836 4129 
Q 1250 4750 2034 4750 
z
" transform="scale(0.015625)"/>
        <path id="DejaVuSans-2e" d="M 684 794 
L 1344 794 
L 1344 0 
L 684 0 
L 684 794 
z
" transform="scale(0.015625)"/>
       </defs>
       <use xlink:href="#DejaVuSans-30"/>
       <use xlink:href="#DejaVuSans-2e" x="63.623047"/>
       <use xlink:href="#DejaVuSans-30" x="95.410156"/>
      </g>
     </g>
    </g>
    <g id="xtick_2">
     <g id="line2d_3">
      <path d="M 161.761162 314.816875 
L 161.761162 22.318125 
" clip-path="url(#p745becf450)" style="fill: none; stroke: #b0b0b0; stroke-width: 0.8; stroke-linecap: square"/>
     </g>
     <g id="line2d_4">
      <g>
       <use xlink:href="#m380c4346ac" x="161.761162" y="314.816875" style="stroke: #000000; stroke-width: 0.8"/>
      </g>
     </g>
     <g id="text_2">
      <!-- 0.2 -->
      <g transform="translate(153.8096 329.415313) scale(0.1 -0.1)">
       <defs>
        <path id="DejaVuSans-32" d="M 1228 531 
L 3431 531 
L 3431 0 
L 469 0 
L 469 531 
Q 828 903 1448 1529 
Q 2069 2156 2228 2338 
Q 2531 2678 2651 2914 
Q 2772 3150 2772 3378 
Q 2772 3750 2511 3984 
Q 2250 4219 1831 4219 
Q 1534 4219 1204 4116 
Q 875 4013 500 3803 
L 500 4441 
Q 881 4594 1212 4672 
Q 1544 4750 1819 4750 
Q 2544 4750 2975 4387 
Q 3406 4025 3406 3419 
Q 3406 3131 3298 2873 
Q 3191 2616 2906 2266 
Q 2828 2175 2409 1742 
Q 1991 1309 1228 531 
z
" transform="scale(0.015625)"/>
       </defs>
       <use xlink:href="#DejaVuSans-30"/>
       <use xlink:href="#DejaVuSans-2e" x="63.623047"/>
       <use xlink:href="#DejaVuSans-32" x="95.410156"/>
      </g>
     </g>
    </g>
    <g id="xtick_3">
     <g id="line2d_5">
      <path d="M 259.592487 314.816875 
L 259.592487 22.318125 
" clip-path="url(#p745becf450)" style="fill: none; stroke: #b0b0b0; stroke-width: 0.8; stroke-linecap: square"/>
     </g>
     <g id="line2d_6">
      <g>
       <use xlink:href="#m380c4346ac" x="259.592487" y="314.816875" style="stroke: #000000; stroke-width: 0.8"/>
      </g>
     </g>
     <g id="text_3">
      <!-- 0.4 -->
      <g transform="translate(251.640924 329.415313) scale(0.1 -0.1)">
       <defs>
        <path id="DejaVuSans-34" d="M 2419 4116 
L 825 1625 
L 2419 1625 
L 2419 4116 
z
M 2253 4666 
L 3047 4666 
L 3047 1625 
L 3713 1625 
L 3713 1100 
L 3047 1100 
L 3047 0 
L 2419 0 
L 2419 1100 
L 313 1100 
L 313 1709 
L 2253 4666 
z
" transform="scale(0.015625)"/>
       </defs>
       <use xlink:href="#DejaVuSans-30"/>
       <use xlink:href="#DejaVuSans-2e" x="63.623047"/>
       <use xlink:href="#DejaVuSans-34" x="95.410156"/>
      </g>
     </g>
    </g>
    <g id="xtick_4">
     <g id="line2d_7">
      <path d="M 357.423811 314.816875 
L 357.423811 22.318125 
" clip-path="url(#p745becf450)" style="fill: none; stroke: #b0b0b0; stroke-width: 0.8; stroke-linecap: square"/>
     </g>
     <g id="line2d_8">
      <g>
       <use xlink:href="#m380c4346ac" x="357.423811" y="314.816875" style="stroke: #000000; stroke-width: 0.8"/>
      </g>
     </g>
     <g id="text_4">
      <!-- 0.6 -->
      <g transform="translate(349.472249 329.415313) scale(0.1 -0.1)">
       <defs>
        <path id="DejaVuSans-36" d="M 2113 2584 
Q 1688 2584 1439 2293 
Q 1191 2003 1191 1497 
Q 1191 994 1439 701 
Q 1688 409 2113 409 
Q 2538 409 2786 701 
Q 3034 994 3034 1497 
Q 3034 2003 2786 2293 
Q 2538 2584 2113 2584 
z
M 3366 4563 
L 3366 3988 
Q 3128 4100 2886 4159 
Q 2644 4219 2406 4219 
Q 1781 4219 1451 3797 
Q 1122 3375 1075 2522 
Q 1259 2794 1537 2939 
Q 1816 3084 2150 3084 
Q 2853 3084 3261 2657 
Q 3669 2231 3669 1497 
Q 3669 778 3244 343 
Q 2819 -91 2113 -91 
Q 1303 -91 875 529 
Q 447 1150 447 2328 
Q 447 3434 972 4092 
Q 1497 4750 2381 4750 
Q 2619 4750 2861 4703 
Q 3103 4656 3366 4563 
z
" transform="scale(0.015625)"/>
       </defs>
       <use xlink:href="#DejaVuSans-30"/>
       <use xlink:href="#DejaVuSans-2e" x="63.623047"/>
       <use xlink:href="#DejaVuSans-36" x="95.410156"/>
      </g>
     </g>
    </g>
    <g id="xtick_5">
     <g id="line2d_9">
      <path d="M 455.255136 314.816875 
L 455.255136 22.318125 
" clip-path="url(#p745becf450)" style="fill: none; stroke: #b0b0b0; stroke-width: 0.8; stroke-linecap: square"/>
     </g>
     <g id="line2d_10">
      <g>
       <use xlink:href="#m380c4346ac" x="455.255136" y="314.816875" style="stroke: #000000; stroke-width: 0.8"/>
      </g>
     </g>
     <g id="text_5">
      <!-- 0.8 -->
      <g transform="translate(447.303573 329.415313) scale(0.1 -0.1)">
       <defs>
        <path id="DejaVuSans-38" d="M 2034 2216 
Q 1584 2216 1326 1975 
Q 1069 1734 1069 1313 
Q 1069 891 1326 650 
Q 1584 409 2034 409 
Q 2484 409 2743 651 
Q 3003 894 3003 1313 
Q 3003 1734 2745 1975 
Q 2488 2216 2034 2216 
z
M 1403 2484 
Q 997 2584 770 2862 
Q 544 3141 544 3541 
Q 544 4100 942 4425 
Q 1341 4750 2034 4750 
Q 2731 4750 3128 4425 
Q 3525 4100 3525 3541 
Q 3525 3141 3298 2862 
Q 3072 2584 2669 2484 
Q 3125 2378 3379 2068 
Q 3634 1759 3634 1313 
Q 3634 634 3220 271 
Q 2806 -91 2034 -91 
Q 1263 -91 848 271 
Q 434 634 434 1313 
Q 434 1759 690 2068 
Q 947 2378 1403 2484 
z
M 1172 3481 
Q 1172 3119 1398 2916 
Q 1625 2713 2034 2713 
Q 2441 2713 2670 2916 
Q 2900 3119 2900 3481 
Q 2900 3844 2670 4047 
Q 2441 4250 2034 4250 
Q 1625 4250 1398 4047 
Q 1172 3844 1172 3481 
z
" transform="scale(0.015625)"/>
       </defs>
       <use xlink:href="#DejaVuSans-30"/>
       <use xlink:href="#DejaVuSans-2e" x="63.623047"/>
       <use xlink:href="#DejaVuSans-38" x="95.410156"/>
      </g>
     </g>
    </g>
    <g id="xtick_6">
     <g id="line2d_11">
      <path d="M 553.086461 314.816875 
L 553.086461 22.318125 
" clip-path="url(#p745becf450)" style="fill: none; stroke: #b0b0b0; stroke-width: 0.8; stroke-linecap: square"/>
     </g>
     <g id="line2d_12">
      <g>
       <use xlink:href="#m380c4346ac" x="553.086461" y="314.816875" style="stroke: #000000; stroke-width: 0.8"/>
      </g>
     </g>
     <g id="text_6">
      <!-- 1.0 -->
      <g transform="translate(545.134898 329.415313) scale(0.1 -0.1)">
       <defs>
        <path id="DejaVuSans-31" d="M 794 531 
L 1825 531 
L 1825 4091 
L 703 3866 
L 703 4441 
L 1819 4666 
L 2450 4666 
L 2450 531 
L 3481 531 
L 3481 0 
L 794 0 
L 794 531 
z
" transform="scale(0.015625)"/>
       </defs>
       <use xlink:href="#DejaVuSans-31"/>
       <use xlink:href="#DejaVuSans-2e" x="63.623047"/>
       <use xlink:href="#DejaVuSans-30" x="95.410156"/>
      </g>
     </g>
    </g>
    <g id="text_7">
     <!-- fBV_score -->
     <g transform="translate(272.809462 343.093437) scale(0.1 -0.1)">
      <defs>
       <path id="DejaVuSans-66" d="M 2375 4863 
L 2375 4384 
L 1825 4384 
Q 1516 4384 1395 4259 
Q 1275 4134 1275 3809 
L 1275 3500 
L 2222 3500 
L 2222 3053 
L 1275 3053 
L 1275 0 
L 697 0 
L 697 3053 
L 147 3053 
L 147 3500 
L 697 3500 
L 697 3744 
Q 697 4328 969 4595 
Q 1241 4863 1831 4863 
L 2375 4863 
z
" transform="scale(0.015625)"/>
       <path id="DejaVuSans-42" d="M 1259 2228 
L 1259 519 
L 2272 519 
Q 2781 519 3026 730 
Q 3272 941 3272 1375 
Q 3272 1813 3026 2020 
Q 2781 2228 2272 2228 
L 1259 2228 
z
M 1259 4147 
L 1259 2741 
L 2194 2741 
Q 2656 2741 2882 2914 
Q 3109 3088 3109 3444 
Q 3109 3797 2882 3972 
Q 2656 4147 2194 4147 
L 1259 4147 
z
M 628 4666 
L 2241 4666 
Q 2963 4666 3353 4366 
Q 3744 4066 3744 3513 
Q 3744 3084 3544 2831 
Q 3344 2578 2956 2516 
Q 3422 2416 3680 2098 
Q 3938 1781 3938 1306 
Q 3938 681 3513 340 
Q 3088 0 2303 0 
L 628 0 
L 628 4666 
z
" transform="scale(0.015625)"/>
       <path id="DejaVuSans-56" d="M 1831 0 
L 50 4666 
L 709 4666 
L 2188 738 
L 3669 4666 
L 4325 4666 
L 2547 0 
L 1831 0 
z
" transform="scale(0.015625)"/>
       <path id="DejaVuSans-5f" d="M 3263 -1063 
L 3263 -1509 
L -63 -1509 
L -63 -1063 
L 3263 -1063 
z
" transform="scale(0.015625)"/>
       <path id="DejaVuSans-73" d="M 2834 3397 
L 2834 2853 
Q 2591 2978 2328 3040 
Q 2066 3103 1784 3103 
Q 1356 3103 1142 2972 
Q 928 2841 928 2578 
Q 928 2378 1081 2264 
Q 1234 2150 1697 2047 
L 1894 2003 
Q 2506 1872 2764 1633 
Q 3022 1394 3022 966 
Q 3022 478 2636 193 
Q 2250 -91 1575 -91 
Q 1294 -91 989 -36 
Q 684 19 347 128 
L 347 722 
Q 666 556 975 473 
Q 1284 391 1588 391 
Q 1994 391 2212 530 
Q 2431 669 2431 922 
Q 2431 1156 2273 1281 
Q 2116 1406 1581 1522 
L 1381 1569 
Q 847 1681 609 1914 
Q 372 2147 372 2553 
Q 372 3047 722 3315 
Q 1072 3584 1716 3584 
Q 2034 3584 2315 3537 
Q 2597 3491 2834 3397 
z
" transform="scale(0.015625)"/>
       <path id="DejaVuSans-63" d="M 3122 3366 
L 3122 2828 
Q 2878 2963 2633 3030 
Q 2388 3097 2138 3097 
Q 1578 3097 1268 2742 
Q 959 2388 959 1747 
Q 959 1106 1268 751 
Q 1578 397 2138 397 
Q 2388 397 2633 464 
Q 2878 531 3122 666 
L 3122 134 
Q 2881 22 2623 -34 
Q 2366 -91 2075 -91 
Q 1284 -91 818 406 
Q 353 903 353 1747 
Q 353 2603 823 3093 
Q 1294 3584 2113 3584 
Q 2378 3584 2631 3529 
Q 2884 3475 3122 3366 
z
" transform="scale(0.015625)"/>
       <path id="DejaVuSans-6f" d="M 1959 3097 
Q 1497 3097 1228 2736 
Q 959 2375 959 1747 
Q 959 1119 1226 758 
Q 1494 397 1959 397 
Q 2419 397 2687 759 
Q 2956 1122 2956 1747 
Q 2956 2369 2687 2733 
Q 2419 3097 1959 3097 
z
M 1959 3584 
Q 2709 3584 3137 3096 
Q 3566 2609 3566 1747 
Q 3566 888 3137 398 
Q 2709 -91 1959 -91 
Q 1206 -91 779 398 
Q 353 888 353 1747 
Q 353 2609 779 3096 
Q 1206 3584 1959 3584 
z
" transform="scale(0.015625)"/>
       <path id="DejaVuSans-72" d="M 2631 2963 
Q 2534 3019 2420 3045 
Q 2306 3072 2169 3072 
Q 1681 3072 1420 2755 
Q 1159 2438 1159 1844 
L 1159 0 
L 581 0 
L 581 3500 
L 1159 3500 
L 1159 2956 
Q 1341 3275 1631 3429 
Q 1922 3584 2338 3584 
Q 2397 3584 2469 3576 
Q 2541 3569 2628 3553 
L 2631 2963 
z
" transform="scale(0.015625)"/>
       <path id="DejaVuSans-65" d="M 3597 1894 
L 3597 1613 
L 953 1613 
Q 991 1019 1311 708 
Q 1631 397 2203 397 
Q 2534 397 2845 478 
Q 3156 559 3463 722 
L 3463 178 
Q 3153 47 2828 -22 
Q 2503 -91 2169 -91 
Q 1331 -91 842 396 
Q 353 884 353 1716 
Q 353 2575 817 3079 
Q 1281 3584 2069 3584 
Q 2775 3584 3186 3129 
Q 3597 2675 3597 1894 
z
M 3022 2063 
Q 3016 2534 2758 2815 
Q 2500 3097 2075 3097 
Q 1594 3097 1305 2825 
Q 1016 2553 972 2059 
L 3022 2063 
z
" transform="scale(0.015625)"/>
      </defs>
      <use xlink:href="#DejaVuSans-66"/>
      <use xlink:href="#DejaVuSans-42" x="35.205078"/>
      <use xlink:href="#DejaVuSans-56" x="100.683594"/>
      <use xlink:href="#DejaVuSans-5f" x="169.091797"/>
      <use xlink:href="#DejaVuSans-73" x="219.091797"/>
      <use xlink:href="#DejaVuSans-63" x="271.191406"/>
      <use xlink:href="#DejaVuSans-6f" x="326.171875"/>
      <use xlink:href="#DejaVuSans-72" x="387.353516"/>
      <use xlink:href="#DejaVuSans-65" x="426.216797"/>
     </g>
    </g>
   </g>
   <g id="matplotlib.axis_2">
    <g id="ytick_1">
     <g id="line2d_13">
      <path d="M 40.603125 301.521477 
L 553.790798 301.521477 
" clip-path="url(#p745becf450)" style="fill: none; stroke: #b0b0b0; stroke-width: 0.8; stroke-linecap: square"/>
     </g>
     <g id="line2d_14">
      <defs>
       <path id="m2b6025a6b3" d="M 0 0 
L -3.5 0 
" style="stroke: #000000; stroke-width: 0.8"/>
      </defs>
      <g>
       <use xlink:href="#m2b6025a6b3" x="40.603125" y="301.521477" style="stroke: #000000; stroke-width: 0.8"/>
      </g>
     </g>
     <g id="text_8">
      <!-- 0 -->
      <g transform="translate(27.240625 305.320696) scale(0.1 -0.1)">
       <use xlink:href="#DejaVuSans-30"/>
      </g>
     </g>
    </g>
    <g id="ytick_2">
     <g id="line2d_15">
      <path d="M 40.603125 239.059215 
L 553.790798 239.059215 
" clip-path="url(#p745becf450)" style="fill: none; stroke: #b0b0b0; stroke-width: 0.8; stroke-linecap: square"/>
     </g>
     <g id="line2d_16">
      <g>
       <use xlink:href="#m2b6025a6b3" x="40.603125" y="239.059215" style="stroke: #000000; stroke-width: 0.8"/>
      </g>
     </g>
     <g id="text_9">
      <!-- 5 -->
      <g transform="translate(27.240625 242.858434) scale(0.1 -0.1)">
       <defs>
        <path id="DejaVuSans-35" d="M 691 4666 
L 3169 4666 
L 3169 4134 
L 1269 4134 
L 1269 2991 
Q 1406 3038 1543 3061 
Q 1681 3084 1819 3084 
Q 2600 3084 3056 2656 
Q 3513 2228 3513 1497 
Q 3513 744 3044 326 
Q 2575 -91 1722 -91 
Q 1428 -91 1123 -41 
Q 819 9 494 109 
L 494 744 
Q 775 591 1075 516 
Q 1375 441 1709 441 
Q 2250 441 2565 725 
Q 2881 1009 2881 1497 
Q 2881 1984 2565 2268 
Q 2250 2553 1709 2553 
Q 1456 2553 1204 2497 
Q 953 2441 691 2322 
L 691 4666 
z
" transform="scale(0.015625)"/>
       </defs>
       <use xlink:href="#DejaVuSans-35"/>
      </g>
     </g>
    </g>
    <g id="ytick_3">
     <g id="line2d_17">
      <path d="M 40.603125 176.596953 
L 553.790798 176.596953 
" clip-path="url(#p745becf450)" style="fill: none; stroke: #b0b0b0; stroke-width: 0.8; stroke-linecap: square"/>
     </g>
     <g id="line2d_18">
      <g>
       <use xlink:href="#m2b6025a6b3" x="40.603125" y="176.596953" style="stroke: #000000; stroke-width: 0.8"/>
      </g>
     </g>
     <g id="text_10">
      <!-- 10 -->
      <g transform="translate(20.878125 180.396171) scale(0.1 -0.1)">
       <use xlink:href="#DejaVuSans-31"/>
       <use xlink:href="#DejaVuSans-30" x="63.623047"/>
      </g>
     </g>
    </g>
    <g id="ytick_4">
     <g id="line2d_19">
      <path d="M 40.603125 114.13469 
L 553.790798 114.13469 
" clip-path="url(#p745becf450)" style="fill: none; stroke: #b0b0b0; stroke-width: 0.8; stroke-linecap: square"/>
     </g>
     <g id="line2d_20">
      <g>
       <use xlink:href="#m2b6025a6b3" x="40.603125" y="114.13469" style="stroke: #000000; stroke-width: 0.8"/>
      </g>
     </g>
     <g id="text_11">
      <!-- 15 -->
      <g transform="translate(20.878125 117.933909) scale(0.1 -0.1)">
       <use xlink:href="#DejaVuSans-31"/>
       <use xlink:href="#DejaVuSans-35" x="63.623047"/>
      </g>
     </g>
    </g>
    <g id="ytick_5">
     <g id="line2d_21">
      <path d="M 40.603125 51.672428 
L 553.790798 51.672428 
" clip-path="url(#p745becf450)" style="fill: none; stroke: #b0b0b0; stroke-width: 0.8; stroke-linecap: square"/>
     </g>
     <g id="line2d_22">
      <g>
       <use xlink:href="#m2b6025a6b3" x="40.603125" y="51.672428" style="stroke: #000000; stroke-width: 0.8"/>
      </g>
     </g>
     <g id="text_12">
      <!-- 20 -->
      <g transform="translate(20.878125 55.471647) scale(0.1 -0.1)">
       <use xlink:href="#DejaVuSans-32"/>
       <use xlink:href="#DejaVuSans-30" x="63.623047"/>
      </g>
     </g>
    </g>
    <g id="text_13">
     <!-- Density -->
     <g transform="translate(14.798438 187.576094) rotate(-90) scale(0.1 -0.1)">
      <defs>
       <path id="DejaVuSans-44" d="M 1259 4147 
L 1259 519 
L 2022 519 
Q 2988 519 3436 956 
Q 3884 1394 3884 2338 
Q 3884 3275 3436 3711 
Q 2988 4147 2022 4147 
L 1259 4147 
z
M 628 4666 
L 1925 4666 
Q 3281 4666 3915 4102 
Q 4550 3538 4550 2338 
Q 4550 1131 3912 565 
Q 3275 0 1925 0 
L 628 0 
L 628 4666 
z
" transform="scale(0.015625)"/>
       <path id="DejaVuSans-6e" d="M 3513 2113 
L 3513 0 
L 2938 0 
L 2938 2094 
Q 2938 2591 2744 2837 
Q 2550 3084 2163 3084 
Q 1697 3084 1428 2787 
Q 1159 2491 1159 1978 
L 1159 0 
L 581 0 
L 581 3500 
L 1159 3500 
L 1159 2956 
Q 1366 3272 1645 3428 
Q 1925 3584 2291 3584 
Q 2894 3584 3203 3211 
Q 3513 2838 3513 2113 
z
" transform="scale(0.015625)"/>
       <path id="DejaVuSans-69" d="M 603 3500 
L 1178 3500 
L 1178 0 
L 603 0 
L 603 3500 
z
M 603 4863 
L 1178 4863 
L 1178 4134 
L 603 4134 
L 603 4863 
z
" transform="scale(0.015625)"/>
       <path id="DejaVuSans-74" d="M 1172 4494 
L 1172 3500 
L 2356 3500 
L 2356 3053 
L 1172 3053 
L 1172 1153 
Q 1172 725 1289 603 
Q 1406 481 1766 481 
L 2356 481 
L 2356 0 
L 1766 0 
Q 1100 0 847 248 
Q 594 497 594 1153 
L 594 3053 
L 172 3053 
L 172 3500 
L 594 3500 
L 594 4494 
L 1172 4494 
z
" transform="scale(0.015625)"/>
       <path id="DejaVuSans-79" d="M 2059 -325 
Q 1816 -950 1584 -1140 
Q 1353 -1331 966 -1331 
L 506 -1331 
L 506 -850 
L 844 -850 
Q 1081 -850 1212 -737 
Q 1344 -625 1503 -206 
L 1606 56 
L 191 3500 
L 800 3500 
L 1894 763 
L 2988 3500 
L 3597 3500 
L 2059 -325 
z
" transform="scale(0.015625)"/>
      </defs>
      <use xlink:href="#DejaVuSans-44"/>
      <use xlink:href="#DejaVuSans-65" x="77.001953"/>
      <use xlink:href="#DejaVuSans-6e" x="138.525391"/>
      <use xlink:href="#DejaVuSans-73" x="201.904297"/>
      <use xlink:href="#DejaVuSans-69" x="254.003906"/>
      <use xlink:href="#DejaVuSans-74" x="281.787109"/>
      <use xlink:href="#DejaVuSans-79" x="320.996094"/>
     </g>
    </g>
   </g>
   <g id="line2d_23">
    <path d="M 63.929837 267.457532 
L 68.604529 267.110766 
L 73.279221 267.017018 
L 77.953913 267.173119 
L 82.628605 267.569697 
L 87.303297 268.19161 
L 91.977989 269.018628 
L 97.587619 270.247112 
L 104.132187 271.944384 
L 111.611694 274.130464 
L 127.505647 279.104768 
L 137.789969 282.18054 
L 146.204414 284.448643 
L 153.683921 286.225365 
L 161.163428 287.760632 
L 168.642935 289.058903 
L 176.122442 290.139172 
L 184.536888 291.129602 
L 193.886271 292.006757 
L 206.04047 292.899628 
L 222.869361 293.881178 
L 264.006649 295.973051 
L 296.729492 297.476858 
L 322.907767 298.450722 
L 350.02098 299.226246 
L 379.939008 299.849906 
L 407.052221 300.199069 
L 430.42568 300.275176 
L 454.734078 300.119102 
L 508.025565 299.683067 
L 528.594209 299.807071 
L 530.464086 299.828728 
L 530.464086 299.828728 
" clip-path="url(#p745becf450)" style="fill: none; stroke: #ff0000; stroke-opacity: 0.7; stroke-width: 1.5; stroke-linecap: square"/>
   </g>
   <g id="line2d_24">
    <path d="M 63.929837 35.991874 
L 64.864776 35.613523 
L 65.799714 38.839029 
L 66.734653 45.49918 
L 67.669591 55.286467 
L 68.604529 67.77738 
L 70.474406 98.776482 
L 75.149098 185.540661 
L 77.018975 214.754261 
L 77.953913 227.22518 
L 78.888851 238.201501 
L 79.82379 247.711633 
L 80.758728 255.83235 
L 81.693667 262.67455 
L 82.628605 268.37006 
L 83.563543 273.060241 
L 84.498482 276.886818 
L 85.43342 279.985039 
L 86.368358 282.479053 
L 87.303297 284.47923 
L 88.238235 286.081059 
L 89.173174 287.365226 
L 90.108112 288.398516 
L 91.04305 289.235203 
L 92.912927 290.483194 
L 94.782804 291.355837 
L 96.652681 292.001069 
L 99.457496 292.72434 
L 104.132187 293.6447 
L 111.611694 295.126647 
L 116.286386 296.000933 
L 119.091201 296.337972 
L 122.830955 296.512345 
L 132.180339 296.647428 
L 137.789969 297.11877 
L 146.204414 297.860014 
L 154.61886 298.302841 
L 161.163428 298.749022 
L 170.512812 299.482721 
L 175.187504 299.543702 
L 182.667011 299.329082 
L 192.016395 299.130676 
L 197.626025 299.19793 
L 202.300717 299.473042 
L 212.585039 300.213089 
L 218.194669 300.309294 
L 228.478991 300.196461 
L 237.828375 300.126638 
L 243.438005 300.329068 
L 250.917512 300.633248 
L 255.592204 300.596164 
L 265.876526 300.366463 
L 271.486156 300.548669 
L 288.315047 301.279491 
L 299.534308 301.483894 
L 311.688506 301.473864 
L 323.842705 301.228627 
L 334.127027 301.10631 
L 345.346288 301.223178 
L 358.435425 301.341513 
L 379.004069 301.303541 
L 387.418515 301.22332 
L 428.555803 301.507758 
L 464.083461 301.521477 
L 508.960503 301.414999 
L 520.179764 301.392772 
L 530.464086 301.497257 
L 530.464086 301.497257 
" clip-path="url(#p745becf450)" style="fill: none; stroke: #0000ff; stroke-opacity: 0.7; stroke-width: 1.5; stroke-linecap: square"/>
   </g>
   <g id="patch_3">
    <path d="M 40.603125 314.816875 
L 40.603125 22.318125 
" style="fill: none; stroke: #000000; stroke-width: 0.8; stroke-linejoin: miter; stroke-linecap: square"/>
   </g>
   <g id="patch_4">
    <path d="M 553.790798 314.816875 
L 553.790798 22.318125 
" style="fill: none; stroke: #000000; stroke-width: 0.8; stroke-linejoin: miter; stroke-linecap: square"/>
   </g>
   <g id="patch_5">
    <path d="M 40.603125 314.816875 
L 553.790798 314.816875 
" style="fill: none; stroke: #000000; stroke-width: 0.8; stroke-linejoin: miter; stroke-linecap: square"/>
   </g>
   <g id="patch_6">
    <path d="M 40.603125 22.318125 
L 553.790798 22.318125 
" style="fill: none; stroke: #000000; stroke-width: 0.8; stroke-linejoin: miter; stroke-linecap: square"/>
   </g>
   <g id="text_14">
    <!-- Feature Distribution for fBV_score -->
    <g transform="translate(196.291024 16.318125) scale(0.12 -0.12)">
     <defs>
      <path id="DejaVuSans-46" d="M 628 4666 
L 3309 4666 
L 3309 4134 
L 1259 4134 
L 1259 2759 
L 3109 2759 
L 3109 2228 
L 1259 2228 
L 1259 0 
L 628 0 
L 628 4666 
z
" transform="scale(0.015625)"/>
      <path id="DejaVuSans-61" d="M 2194 1759 
Q 1497 1759 1228 1600 
Q 959 1441 959 1056 
Q 959 750 1161 570 
Q 1363 391 1709 391 
Q 2188 391 2477 730 
Q 2766 1069 2766 1631 
L 2766 1759 
L 2194 1759 
z
M 3341 1997 
L 3341 0 
L 2766 0 
L 2766 531 
Q 2569 213 2275 61 
Q 1981 -91 1556 -91 
Q 1019 -91 701 211 
Q 384 513 384 1019 
Q 384 1609 779 1909 
Q 1175 2209 1959 2209 
L 2766 2209 
L 2766 2266 
Q 2766 2663 2505 2880 
Q 2244 3097 1772 3097 
Q 1472 3097 1187 3025 
Q 903 2953 641 2809 
L 641 3341 
Q 956 3463 1253 3523 
Q 1550 3584 1831 3584 
Q 2591 3584 2966 3190 
Q 3341 2797 3341 1997 
z
" transform="scale(0.015625)"/>
      <path id="DejaVuSans-75" d="M 544 1381 
L 544 3500 
L 1119 3500 
L 1119 1403 
Q 1119 906 1312 657 
Q 1506 409 1894 409 
Q 2359 409 2629 706 
Q 2900 1003 2900 1516 
L 2900 3500 
L 3475 3500 
L 3475 0 
L 2900 0 
L 2900 538 
Q 2691 219 2414 64 
Q 2138 -91 1772 -91 
Q 1169 -91 856 284 
Q 544 659 544 1381 
z
M 1991 3584 
L 1991 3584 
z
" transform="scale(0.015625)"/>
      <path id="DejaVuSans-20" transform="scale(0.015625)"/>
      <path id="DejaVuSans-62" d="M 3116 1747 
Q 3116 2381 2855 2742 
Q 2594 3103 2138 3103 
Q 1681 3103 1420 2742 
Q 1159 2381 1159 1747 
Q 1159 1113 1420 752 
Q 1681 391 2138 391 
Q 2594 391 2855 752 
Q 3116 1113 3116 1747 
z
M 1159 2969 
Q 1341 3281 1617 3432 
Q 1894 3584 2278 3584 
Q 2916 3584 3314 3078 
Q 3713 2572 3713 1747 
Q 3713 922 3314 415 
Q 2916 -91 2278 -91 
Q 1894 -91 1617 61 
Q 1341 213 1159 525 
L 1159 0 
L 581 0 
L 581 4863 
L 1159 4863 
L 1159 2969 
z
" transform="scale(0.015625)"/>
     </defs>
     <use xlink:href="#DejaVuSans-46"/>
     <use xlink:href="#DejaVuSans-65" x="52.019531"/>
     <use xlink:href="#DejaVuSans-61" x="113.542969"/>
     <use xlink:href="#DejaVuSans-74" x="174.822266"/>
     <use xlink:href="#DejaVuSans-75" x="214.03125"/>
     <use xlink:href="#DejaVuSans-72" x="277.410156"/>
     <use xlink:href="#DejaVuSans-65" x="316.273438"/>
     <use xlink:href="#DejaVuSans-20" x="377.796875"/>
     <use xlink:href="#DejaVuSans-44" x="409.583984"/>
     <use xlink:href="#DejaVuSans-69" x="486.585938"/>
     <use xlink:href="#DejaVuSans-73" x="514.369141"/>
     <use xlink:href="#DejaVuSans-74" x="566.46875"/>
     <use xlink:href="#DejaVuSans-72" x="605.677734"/>
     <use xlink:href="#DejaVuSans-69" x="646.791016"/>
     <use xlink:href="#DejaVuSans-62" x="674.574219"/>
     <use xlink:href="#DejaVuSans-75" x="738.050781"/>
     <use xlink:href="#DejaVuSans-74" x="801.429688"/>
     <use xlink:href="#DejaVuSans-69" x="840.638672"/>
     <use xlink:href="#DejaVuSans-6f" x="868.421875"/>
     <use xlink:href="#DejaVuSans-6e" x="929.603516"/>
     <use xlink:href="#DejaVuSans-20" x="992.982422"/>
     <use xlink:href="#DejaVuSans-66" x="1024.769531"/>
     <use xlink:href="#DejaVuSans-6f" x="1059.974609"/>
     <use xlink:href="#DejaVuSans-72" x="1121.15625"/>
     <use xlink:href="#DejaVuSans-20" x="1162.269531"/>
     <use xlink:href="#DejaVuSans-66" x="1194.056641"/>
     <use xlink:href="#DejaVuSans-42" x="1229.261719"/>
     <use xlink:href="#DejaVuSans-56" x="1294.740234"/>
     <use xlink:href="#DejaVuSans-5f" x="1363.148438"/>
     <use xlink:href="#DejaVuSans-73" x="1413.148438"/>
     <use xlink:href="#DejaVuSans-63" x="1465.248047"/>
     <use xlink:href="#DejaVuSans-6f" x="1520.228516"/>
     <use xlink:href="#DejaVuSans-72" x="1581.410156"/>
     <use xlink:href="#DejaVuSans-65" x="1620.273438"/>
    </g>
   </g>
   <g id="legend_1">
    <g id="patch_7">
     <path d="M 439.662673 59.674375 
L 546.790798 59.674375 
Q 548.790798 59.674375 548.790798 57.674375 
L 548.790798 29.318125 
Q 548.790798 27.318125 546.790798 27.318125 
L 439.662673 27.318125 
Q 437.662673 27.318125 437.662673 29.318125 
L 437.662673 57.674375 
Q 437.662673 59.674375 439.662673 59.674375 
z
" style="fill: #ffffff; opacity: 0.8; stroke: #cccccc; stroke-linejoin: miter"/>
    </g>
    <g id="line2d_25">
     <path d="M 441.662673 35.416562 
L 451.662673 35.416562 
L 461.662673 35.416562 
" style="fill: none; stroke: #ff0000; stroke-opacity: 0.7; stroke-width: 1.5; stroke-linecap: square"/>
    </g>
    <g id="text_15">
     <!-- Melanoma -->
     <g transform="translate(469.662673 38.916562) scale(0.1 -0.1)">
      <defs>
       <path id="DejaVuSans-4d" d="M 628 4666 
L 1569 4666 
L 2759 1491 
L 3956 4666 
L 4897 4666 
L 4897 0 
L 4281 0 
L 4281 4097 
L 3078 897 
L 2444 897 
L 1241 4097 
L 1241 0 
L 628 0 
L 628 4666 
z
" transform="scale(0.015625)"/>
       <path id="DejaVuSans-6c" d="M 603 4863 
L 1178 4863 
L 1178 0 
L 603 0 
L 603 4863 
z
" transform="scale(0.015625)"/>
       <path id="DejaVuSans-6d" d="M 3328 2828 
Q 3544 3216 3844 3400 
Q 4144 3584 4550 3584 
Q 5097 3584 5394 3201 
Q 5691 2819 5691 2113 
L 5691 0 
L 5113 0 
L 5113 2094 
Q 5113 2597 4934 2840 
Q 4756 3084 4391 3084 
Q 3944 3084 3684 2787 
Q 3425 2491 3425 1978 
L 3425 0 
L 2847 0 
L 2847 2094 
Q 2847 2600 2669 2842 
Q 2491 3084 2119 3084 
Q 1678 3084 1418 2786 
Q 1159 2488 1159 1978 
L 1159 0 
L 581 0 
L 581 3500 
L 1159 3500 
L 1159 2956 
Q 1356 3278 1631 3431 
Q 1906 3584 2284 3584 
Q 2666 3584 2933 3390 
Q 3200 3197 3328 2828 
z
" transform="scale(0.015625)"/>
      </defs>
      <use xlink:href="#DejaVuSans-4d"/>
      <use xlink:href="#DejaVuSans-65" x="86.279297"/>
      <use xlink:href="#DejaVuSans-6c" x="147.802734"/>
      <use xlink:href="#DejaVuSans-61" x="175.585938"/>
      <use xlink:href="#DejaVuSans-6e" x="236.865234"/>
      <use xlink:href="#DejaVuSans-6f" x="300.244141"/>
      <use xlink:href="#DejaVuSans-6d" x="361.425781"/>
      <use xlink:href="#DejaVuSans-61" x="458.837891"/>
     </g>
    </g>
    <g id="line2d_26">
     <path d="M 441.662673 50.094688 
L 451.662673 50.094688 
L 461.662673 50.094688 
" style="fill: none; stroke: #0000ff; stroke-opacity: 0.7; stroke-width: 1.5; stroke-linecap: square"/>
    </g>
    <g id="text_16">
     <!-- Non Melanoma -->
     <g transform="translate(469.662673 53.594688) scale(0.1 -0.1)">
      <defs>
       <path id="DejaVuSans-4e" d="M 628 4666 
L 1478 4666 
L 3547 763 
L 3547 4666 
L 4159 4666 
L 4159 0 
L 3309 0 
L 1241 3903 
L 1241 0 
L 628 0 
L 628 4666 
z
" transform="scale(0.015625)"/>
      </defs>
      <use xlink:href="#DejaVuSans-4e"/>
      <use xlink:href="#DejaVuSans-6f" x="74.804688"/>
      <use xlink:href="#DejaVuSans-6e" x="135.986328"/>
      <use xlink:href="#DejaVuSans-20" x="199.365234"/>
      <use xlink:href="#DejaVuSans-4d" x="231.152344"/>
      <use xlink:href="#DejaVuSans-65" x="317.431641"/>
      <use xlink:href="#DejaVuSans-6c" x="378.955078"/>
      <use xlink:href="#DejaVuSans-61" x="406.738281"/>
      <use xlink:href="#DejaVuSans-6e" x="468.017578"/>
      <use xlink:href="#DejaVuSans-6f" x="531.396484"/>
      <use xlink:href="#DejaVuSans-6d" x="592.578125"/>
      <use xlink:href="#DejaVuSans-61" x="689.990234"/>
     </g>
    </g>
   </g>
  </g>
 </g>
 <defs>
  <clipPath id="p745becf450">
   <rect x="40.603125" y="22.318125" width="513.187673" height="292.49875"/>
  </clipPath>
 </defs>
</svg>
